<mxfile host="65bd71144e" modified="2021-11-12T02:55:08.264Z" agent="5.0 (Windows NT 10.0; Win64; x64) AppleWebKit/537.36 (KHTML, like Gecko) Code/1.62.1 Chrome/91.0.4472.164 Electron/13.5.2 Safari/537.36" etag="BZWIZbHZwLuHkwpADyUL" version="15.7.3" type="embed" pages="3">
    <diagram id="SRbu9WIoCtEo2R0tmvOP" name="S08-01 商品情報検索">
        <mxGraphModel dx="1109" dy="614" grid="1" gridSize="10" guides="1" tooltips="1" connect="1" arrows="1" fold="1" page="1" pageScale="1" pageWidth="827" pageHeight="1169" math="0" shadow="0">
            <root>
                <mxCell id="0"/>
                <mxCell id="1" style="" parent="0"/>
                <mxCell id="elqUJP_zJi6E47OMO-D8-3" value="" style="rounded=0;whiteSpace=wrap;html=1;shadow=1;" parent="1" vertex="1">
                    <mxGeometry x="160" y="80" width="460" height="420" as="geometry"/>
                </mxCell>
                <mxCell id="elqUJP_zJi6E47OMO-D8-4" value="商品検索" style="text;html=1;align=center;verticalAlign=middle;resizable=0;points=[];autosize=1;strokeColor=none;fillColor=none;" parent="1" vertex="1">
                    <mxGeometry x="360" y="90" width="60" height="20" as="geometry"/>
                </mxCell>
                <mxCell id="elqUJP_zJi6E47OMO-D8-5" value="" style="rounded=0;whiteSpace=wrap;html=1;" parent="1" vertex="1">
                    <mxGeometry x="185" y="130" width="415" height="60" as="geometry"/>
                </mxCell>
                <mxCell id="elqUJP_zJi6E47OMO-D8-6" value="商品名" style="rounded=0;whiteSpace=wrap;html=1;" parent="1" vertex="1">
                    <mxGeometry x="185" y="130" width="70" height="30" as="geometry"/>
                </mxCell>
                <mxCell id="elqUJP_zJi6E47OMO-D8-7" value="&lt;div&gt;仕入価格&lt;/div&gt;" style="rounded=0;whiteSpace=wrap;html=1;" parent="1" vertex="1">
                    <mxGeometry x="185" y="160" width="70" height="30" as="geometry"/>
                </mxCell>
                <mxCell id="elqUJP_zJi6E47OMO-D8-8" value="管理番号" style="rounded=0;whiteSpace=wrap;html=1;" parent="1" vertex="1">
                    <mxGeometry x="389" y="130" width="70" height="30" as="geometry"/>
                </mxCell>
                <mxCell id="elqUJP_zJi6E47OMO-D8-9" value="管理場所" style="rounded=0;whiteSpace=wrap;html=1;" parent="1" vertex="1">
                    <mxGeometry x="390" y="160" width="70" height="30" as="geometry"/>
                </mxCell>
                <mxCell id="elqUJP_zJi6E47OMO-D8-10" value="" style="rounded=0;whiteSpace=wrap;html=1;" parent="1" vertex="1">
                    <mxGeometry x="255" y="130" width="135" height="30" as="geometry"/>
                </mxCell>
                <mxCell id="elqUJP_zJi6E47OMO-D8-11" value="&lt;div&gt;&lt;br&gt;&lt;/div&gt;" style="rounded=0;whiteSpace=wrap;html=1;" parent="1" vertex="1">
                    <mxGeometry x="262.5" y="135" width="120" height="20" as="geometry"/>
                </mxCell>
                <mxCell id="elqUJP_zJi6E47OMO-D8-12" value="" style="rounded=0;whiteSpace=wrap;html=1;" parent="1" vertex="1">
                    <mxGeometry x="262.5" y="165" width="37.5" height="20" as="geometry"/>
                </mxCell>
                <mxCell id="elqUJP_zJi6E47OMO-D8-13" value="円" style="text;html=1;strokeColor=none;fillColor=none;align=center;verticalAlign=middle;whiteSpace=wrap;rounded=0;" parent="1" vertex="1">
                    <mxGeometry x="300" y="170" width="20" height="10" as="geometry"/>
                </mxCell>
                <mxCell id="elqUJP_zJi6E47OMO-D8-14" value="～" style="text;html=1;strokeColor=none;fillColor=none;align=center;verticalAlign=middle;whiteSpace=wrap;rounded=0;" parent="1" vertex="1">
                    <mxGeometry x="312.5" y="170" width="20" height="10" as="geometry"/>
                </mxCell>
                <mxCell id="elqUJP_zJi6E47OMO-D8-15" value="" style="rounded=0;whiteSpace=wrap;html=1;" parent="1" vertex="1">
                    <mxGeometry x="331.5" y="165" width="37.5" height="20" as="geometry"/>
                </mxCell>
                <mxCell id="elqUJP_zJi6E47OMO-D8-16" value="円" style="text;html=1;strokeColor=none;fillColor=none;align=center;verticalAlign=middle;whiteSpace=wrap;rounded=0;" parent="1" vertex="1">
                    <mxGeometry x="369" y="170" width="20" height="10" as="geometry"/>
                </mxCell>
                <mxCell id="elqUJP_zJi6E47OMO-D8-17" value="" style="rounded=0;whiteSpace=wrap;html=1;" parent="1" vertex="1">
                    <mxGeometry x="459" y="130" width="141" height="30" as="geometry"/>
                </mxCell>
                <mxCell id="elqUJP_zJi6E47OMO-D8-18" value="" style="rounded=0;whiteSpace=wrap;html=1;" parent="1" vertex="1">
                    <mxGeometry x="469.5" y="135" width="120" height="20" as="geometry"/>
                </mxCell>
                <mxCell id="elqUJP_zJi6E47OMO-D8-19" value="" style="rounded=0;whiteSpace=wrap;html=1;" parent="1" vertex="1">
                    <mxGeometry x="469.5" y="165" width="120" height="20" as="geometry"/>
                </mxCell>
                <mxCell id="elqUJP_zJi6E47OMO-D8-20" value="▼" style="rounded=0;whiteSpace=wrap;html=1;" parent="1" vertex="1">
                    <mxGeometry x="570" y="165" width="19.5" height="20" as="geometry"/>
                </mxCell>
                <mxCell id="elqUJP_zJi6E47OMO-D8-21" value="" style="rounded=0;whiteSpace=wrap;html=1;fillColor=default;align=center;" parent="1" vertex="1">
                    <mxGeometry x="182.5" y="220" width="415.5" height="240" as="geometry"/>
                </mxCell>
                <mxCell id="elqUJP_zJi6E47OMO-D8-22" value="" style="whiteSpace=wrap;html=1;" parent="1" vertex="1">
                    <mxGeometry x="182.5" y="220" width="415" height="30" as="geometry"/>
                </mxCell>
                <mxCell id="elqUJP_zJi6E47OMO-D8-23" value="入荷年月日" style="text;html=1;align=center;verticalAlign=middle;resizable=0;points=[];autosize=1;strokeColor=none;fillColor=none;" parent="1" vertex="1">
                    <mxGeometry x="182.5" y="225" width="80" height="20" as="geometry"/>
                </mxCell>
                <mxCell id="elqUJP_zJi6E47OMO-D8-24" value="" style="rounded=0;whiteSpace=wrap;html=1;" parent="1" vertex="1">
                    <mxGeometry x="262.5" y="225" width="107.5" height="20" as="geometry"/>
                </mxCell>
                <mxCell id="elqUJP_zJi6E47OMO-D8-25" value="" style="shape=image;html=1;verticalAlign=top;verticalLabelPosition=bottom;labelBackgroundColor=#ffffff;imageAspect=0;aspect=fixed;image=https://cdn0.iconfinder.com/data/icons/16x16-free-toolbar-icons/16/44.png;fillColor=default;gradientColor=none;" parent="1" vertex="1">
                    <mxGeometry x="375.75" y="227" width="16" height="16" as="geometry"/>
                </mxCell>
                <mxCell id="elqUJP_zJi6E47OMO-D8-26" value="" style="rounded=0;whiteSpace=wrap;html=1;fillColor=default;gradientColor=none;align=right;" parent="1" vertex="1">
                    <mxGeometry x="182.5" y="250" width="207.5" height="30" as="geometry"/>
                </mxCell>
                <mxCell id="elqUJP_zJi6E47OMO-D8-27" value="" style="rounded=0;whiteSpace=wrap;html=1;fillColor=default;gradientColor=none;align=right;" parent="1" vertex="1">
                    <mxGeometry x="390.5" y="250" width="207.5" height="30" as="geometry"/>
                </mxCell>
                <mxCell id="elqUJP_zJi6E47OMO-D8-28" value="" style="rounded=0;whiteSpace=wrap;html=1;fillColor=default;gradientColor=none;align=right;" parent="1" vertex="1">
                    <mxGeometry x="182.25" y="280" width="207.5" height="30" as="geometry"/>
                </mxCell>
                <mxCell id="elqUJP_zJi6E47OMO-D8-29" value="" style="rounded=0;whiteSpace=wrap;html=1;fillColor=default;gradientColor=none;align=right;" parent="1" vertex="1">
                    <mxGeometry x="390.25" y="280" width="207.5" height="30" as="geometry"/>
                </mxCell>
                <mxCell id="elqUJP_zJi6E47OMO-D8-30" value="" style="rounded=0;whiteSpace=wrap;html=1;fillColor=default;gradientColor=none;align=right;" parent="1" vertex="1">
                    <mxGeometry x="182" y="310" width="207.5" height="30" as="geometry"/>
                </mxCell>
                <mxCell id="elqUJP_zJi6E47OMO-D8-31" value="" style="rounded=0;whiteSpace=wrap;html=1;fillColor=default;gradientColor=none;align=right;" parent="1" vertex="1">
                    <mxGeometry x="390" y="310" width="207.5" height="30" as="geometry"/>
                </mxCell>
                <mxCell id="elqUJP_zJi6E47OMO-D8-32" value="" style="rounded=0;whiteSpace=wrap;html=1;fillColor=default;gradientColor=none;align=right;" parent="1" vertex="1">
                    <mxGeometry x="182" y="340" width="207.5" height="30" as="geometry"/>
                </mxCell>
                <mxCell id="elqUJP_zJi6E47OMO-D8-33" value="" style="rounded=0;whiteSpace=wrap;html=1;fillColor=default;gradientColor=none;align=right;" parent="1" vertex="1">
                    <mxGeometry x="390" y="340" width="207.5" height="30" as="geometry"/>
                </mxCell>
                <mxCell id="elqUJP_zJi6E47OMO-D8-34" value="" style="rounded=0;whiteSpace=wrap;html=1;fillColor=default;gradientColor=none;align=right;" parent="1" vertex="1">
                    <mxGeometry x="182.25" y="370" width="207.5" height="30" as="geometry"/>
                </mxCell>
                <mxCell id="elqUJP_zJi6E47OMO-D8-35" value="" style="rounded=0;whiteSpace=wrap;html=1;fillColor=default;gradientColor=none;align=right;" parent="1" vertex="1">
                    <mxGeometry x="390.25" y="370" width="207.5" height="30" as="geometry"/>
                </mxCell>
                <mxCell id="elqUJP_zJi6E47OMO-D8-36" value="" style="rounded=0;whiteSpace=wrap;html=1;fillColor=default;gradientColor=none;align=right;" parent="1" vertex="1">
                    <mxGeometry x="182.5" y="400" width="207.5" height="30" as="geometry"/>
                </mxCell>
                <mxCell id="elqUJP_zJi6E47OMO-D8-37" value="" style="rounded=0;whiteSpace=wrap;html=1;fillColor=default;gradientColor=none;align=right;" parent="1" vertex="1">
                    <mxGeometry x="390.5" y="400" width="207.5" height="30" as="geometry"/>
                </mxCell>
                <mxCell id="elqUJP_zJi6E47OMO-D8-38" value="" style="rounded=0;whiteSpace=wrap;html=1;fillColor=default;gradientColor=none;align=right;" parent="1" vertex="1">
                    <mxGeometry x="182" y="430" width="207.5" height="30" as="geometry"/>
                </mxCell>
                <mxCell id="elqUJP_zJi6E47OMO-D8-39" value="" style="rounded=0;whiteSpace=wrap;html=1;fillColor=default;gradientColor=none;align=right;" parent="1" vertex="1">
                    <mxGeometry x="390" y="430" width="207.5" height="30" as="geometry"/>
                </mxCell>
                <mxCell id="elqUJP_zJi6E47OMO-D8-40" value="メーカー" style="text;html=1;align=center;verticalAlign=middle;resizable=0;points=[];autosize=1;strokeColor=none;fillColor=none;" parent="1" vertex="1">
                    <mxGeometry x="195" y="255" width="60" height="20" as="geometry"/>
                </mxCell>
                <mxCell id="elqUJP_zJi6E47OMO-D8-41" value="" style="rounded=0;whiteSpace=wrap;html=1;" parent="1" vertex="1">
                    <mxGeometry x="262.5" y="255" width="107.5" height="20" as="geometry"/>
                </mxCell>
                <mxCell id="elqUJP_zJi6E47OMO-D8-42" value="型番" style="text;html=1;align=center;verticalAlign=middle;resizable=0;points=[];autosize=1;strokeColor=none;fillColor=none;" parent="1" vertex="1">
                    <mxGeometry x="416.25" y="255" width="40" height="20" as="geometry"/>
                </mxCell>
                <mxCell id="elqUJP_zJi6E47OMO-D8-43" value="" style="rounded=0;whiteSpace=wrap;html=1;" parent="1" vertex="1">
                    <mxGeometry x="473.75" y="255" width="107.5" height="20" as="geometry"/>
                </mxCell>
                <mxCell id="elqUJP_zJi6E47OMO-D8-44" value="製品種別" style="text;html=1;align=center;verticalAlign=middle;resizable=0;points=[];autosize=1;strokeColor=none;fillColor=none;" parent="1" vertex="1">
                    <mxGeometry x="194" y="285" width="60" height="20" as="geometry"/>
                </mxCell>
                <mxCell id="elqUJP_zJi6E47OMO-D8-45" value="" style="rounded=0;whiteSpace=wrap;html=1;" parent="1" vertex="1">
                    <mxGeometry x="261.5" y="285" width="107.5" height="20" as="geometry"/>
                </mxCell>
                <mxCell id="elqUJP_zJi6E47OMO-D8-46" value="RAM" style="text;html=1;align=center;verticalAlign=middle;resizable=0;points=[];autosize=1;strokeColor=none;fillColor=none;" parent="1" vertex="1">
                    <mxGeometry x="205" y="315" width="40" height="20" as="geometry"/>
                </mxCell>
                <mxCell id="elqUJP_zJi6E47OMO-D8-47" value="" style="rounded=0;whiteSpace=wrap;html=1;" parent="1" vertex="1">
                    <mxGeometry x="262.5" y="315" width="87.5" height="20" as="geometry"/>
                </mxCell>
                <mxCell id="elqUJP_zJi6E47OMO-D8-48" value="モニタサイズ" style="text;html=1;align=center;verticalAlign=middle;resizable=0;points=[];autosize=1;strokeColor=none;fillColor=none;" parent="1" vertex="1">
                    <mxGeometry x="175" y="345" width="90" height="20" as="geometry"/>
                </mxCell>
                <mxCell id="elqUJP_zJi6E47OMO-D8-49" value="" style="rounded=0;whiteSpace=wrap;html=1;" parent="1" vertex="1">
                    <mxGeometry x="262.5" y="345" width="107.5" height="20" as="geometry"/>
                </mxCell>
                <mxCell id="elqUJP_zJi6E47OMO-D8-50" value="カメラ" style="text;html=1;align=center;verticalAlign=middle;resizable=0;points=[];autosize=1;strokeColor=none;fillColor=none;" parent="1" vertex="1">
                    <mxGeometry x="198.75" y="375" width="50" height="20" as="geometry"/>
                </mxCell>
                <mxCell id="elqUJP_zJi6E47OMO-D8-51" value="" style="rounded=0;whiteSpace=wrap;html=1;" parent="1" vertex="1">
                    <mxGeometry x="261.25" y="375" width="107.5" height="20" as="geometry"/>
                </mxCell>
                <mxCell id="elqUJP_zJi6E47OMO-D8-52" value="光学ドライブ" style="text;html=1;align=center;verticalAlign=middle;resizable=0;points=[];autosize=1;strokeColor=none;fillColor=none;" parent="1" vertex="1">
                    <mxGeometry x="178.75" y="405" width="90" height="20" as="geometry"/>
                </mxCell>
                <mxCell id="elqUJP_zJi6E47OMO-D8-53" value="" style="rounded=0;whiteSpace=wrap;html=1;" parent="1" vertex="1">
                    <mxGeometry x="261.25" y="405" width="107.5" height="20" as="geometry"/>
                </mxCell>
                <mxCell id="elqUJP_zJi6E47OMO-D8-54" value="OS" style="text;html=1;align=center;verticalAlign=middle;resizable=0;points=[];autosize=1;strokeColor=none;fillColor=none;" parent="1" vertex="1">
                    <mxGeometry x="210" y="435" width="30" height="20" as="geometry"/>
                </mxCell>
                <mxCell id="elqUJP_zJi6E47OMO-D8-55" value="" style="rounded=0;whiteSpace=wrap;html=1;" parent="1" vertex="1">
                    <mxGeometry x="262.5" y="435" width="107.5" height="20" as="geometry"/>
                </mxCell>
                <mxCell id="elqUJP_zJi6E47OMO-D8-56" value="CPU" style="text;html=1;align=center;verticalAlign=middle;resizable=0;points=[];autosize=1;strokeColor=none;fillColor=none;" parent="1" vertex="1">
                    <mxGeometry x="416.25" y="285" width="40" height="20" as="geometry"/>
                </mxCell>
                <mxCell id="elqUJP_zJi6E47OMO-D8-57" value="" style="rounded=0;whiteSpace=wrap;html=1;" parent="1" vertex="1">
                    <mxGeometry x="473.75" y="285" width="107.5" height="20" as="geometry"/>
                </mxCell>
                <mxCell id="elqUJP_zJi6E47OMO-D8-58" value="HDD,SSD" style="text;html=1;align=center;verticalAlign=middle;resizable=0;points=[];autosize=1;strokeColor=none;fillColor=none;" parent="1" vertex="1">
                    <mxGeometry x="401.75" y="315" width="70" height="20" as="geometry"/>
                </mxCell>
                <mxCell id="elqUJP_zJi6E47OMO-D8-59" value="" style="rounded=0;whiteSpace=wrap;html=1;" parent="1" vertex="1">
                    <mxGeometry x="474.25" y="315" width="85.75" height="20" as="geometry"/>
                </mxCell>
                <mxCell id="elqUJP_zJi6E47OMO-D8-60" value="モニタ解像度" style="text;html=1;align=center;verticalAlign=middle;resizable=0;points=[];autosize=1;strokeColor=none;fillColor=none;" parent="1" vertex="1">
                    <mxGeometry x="391.75" y="345" width="90" height="20" as="geometry"/>
                </mxCell>
                <mxCell id="elqUJP_zJi6E47OMO-D8-61" value="" style="rounded=0;whiteSpace=wrap;html=1;" parent="1" vertex="1">
                    <mxGeometry x="474.25" y="345" width="107.5" height="20" as="geometry"/>
                </mxCell>
                <mxCell id="elqUJP_zJi6E47OMO-D8-62" value="WiFi" style="text;html=1;align=center;verticalAlign=middle;resizable=0;points=[];autosize=1;strokeColor=none;fillColor=none;" parent="1" vertex="1">
                    <mxGeometry x="416.75" y="375" width="40" height="20" as="geometry"/>
                </mxCell>
                <mxCell id="elqUJP_zJi6E47OMO-D8-63" value="" style="rounded=0;whiteSpace=wrap;html=1;" parent="1" vertex="1">
                    <mxGeometry x="474.25" y="375" width="107.5" height="20" as="geometry"/>
                </mxCell>
                <mxCell id="elqUJP_zJi6E47OMO-D8-64" value="グラフィック" style="text;html=1;align=center;verticalAlign=middle;resizable=0;points=[];autosize=1;strokeColor=none;fillColor=none;" parent="1" vertex="1">
                    <mxGeometry x="391.75" y="405" width="90" height="20" as="geometry"/>
                </mxCell>
                <mxCell id="elqUJP_zJi6E47OMO-D8-65" value="" style="rounded=0;whiteSpace=wrap;html=1;" parent="1" vertex="1">
                    <mxGeometry x="474.25" y="405" width="107.5" height="20" as="geometry"/>
                </mxCell>
                <mxCell id="elqUJP_zJi6E47OMO-D8-66" value="" style="rounded=0;whiteSpace=wrap;html=1;" parent="1" vertex="1">
                    <mxGeometry x="473.75" y="435" width="107.5" height="20" as="geometry"/>
                </mxCell>
                <mxCell id="elqUJP_zJi6E47OMO-D8-67" value="販売状況" style="text;html=1;align=center;verticalAlign=middle;resizable=0;points=[];autosize=1;strokeColor=none;fillColor=none;" parent="1" vertex="1">
                    <mxGeometry x="406.75" y="435" width="60" height="20" as="geometry"/>
                </mxCell>
                <mxCell id="elqUJP_zJi6E47OMO-D8-68" value="▼" style="rounded=0;whiteSpace=wrap;html=1;" parent="1" vertex="1">
                    <mxGeometry x="349.25" y="285" width="19.5" height="20" as="geometry"/>
                </mxCell>
                <mxCell id="elqUJP_zJi6E47OMO-D8-69" value="▼" style="rounded=0;whiteSpace=wrap;html=1;" parent="1" vertex="1">
                    <mxGeometry x="349.25" y="375" width="19.5" height="20" as="geometry"/>
                </mxCell>
                <mxCell id="elqUJP_zJi6E47OMO-D8-70" value="▼" style="rounded=0;whiteSpace=wrap;html=1;" parent="1" vertex="1">
                    <mxGeometry x="349.25" y="405" width="19.5" height="20" as="geometry"/>
                </mxCell>
                <mxCell id="elqUJP_zJi6E47OMO-D8-71" value="▼" style="rounded=0;whiteSpace=wrap;html=1;" parent="1" vertex="1">
                    <mxGeometry x="561.75" y="375" width="19.5" height="20" as="geometry"/>
                </mxCell>
                <mxCell id="elqUJP_zJi6E47OMO-D8-72" value="▼" style="rounded=0;whiteSpace=wrap;html=1;" parent="1" vertex="1">
                    <mxGeometry x="561.75" y="435" width="19.5" height="20" as="geometry"/>
                </mxCell>
                <mxCell id="elqUJP_zJi6E47OMO-D8-73" value="検索" style="rounded=0;whiteSpace=wrap;html=1;" parent="1" vertex="1">
                    <mxGeometry x="362.75" y="470" width="53.5" height="20" as="geometry"/>
                </mxCell>
                <mxCell id="elqUJP_zJi6E47OMO-D8-74" value="GB" style="text;html=1;strokeColor=none;fillColor=none;align=center;verticalAlign=middle;whiteSpace=wrap;rounded=0;" parent="1" vertex="1">
                    <mxGeometry x="350" y="315" width="20" height="20" as="geometry"/>
                </mxCell>
                <mxCell id="elqUJP_zJi6E47OMO-D8-75" value="GB" style="text;html=1;strokeColor=none;fillColor=none;align=center;verticalAlign=middle;whiteSpace=wrap;rounded=0;" parent="1" vertex="1">
                    <mxGeometry x="561.75" y="315" width="20" height="20" as="geometry"/>
                </mxCell>
                <mxCell id="2" value="" style="rounded=0;whiteSpace=wrap;html=1;fillColor=default;strokeColor=default;fontColor=default;" parent="1" vertex="1">
                    <mxGeometry x="680" y="80" width="720" height="400" as="geometry"/>
                </mxCell>
                <mxCell id="3" value="商品情報検索" style="text;html=1;strokeColor=none;fillColor=none;align=center;verticalAlign=middle;whiteSpace=wrap;rounded=0;fontColor=default;fontStyle=1;fontSize=20;" parent="1" vertex="1">
                    <mxGeometry x="927.5" y="90" width="225" height="40" as="geometry"/>
                </mxCell>
                <mxCell id="z6mK0IaKQxgmxTh3KaRd-7" value="" style="shape=table;startSize=0;container=1;collapsible=0;childLayout=tableLayout;strokeColor=default;" parent="1" vertex="1">
                    <mxGeometry x="720" y="135" width="650" height="82" as="geometry"/>
                </mxCell>
                <mxCell id="z6mK0IaKQxgmxTh3KaRd-8" value="" style="shape=partialRectangle;collapsible=0;dropTarget=0;pointerEvents=0;fillColor=none;top=0;left=0;bottom=0;right=0;points=[[0,0.5],[1,0.5]];portConstraint=eastwest;strokeColor=default;" parent="z6mK0IaKQxgmxTh3KaRd-7" vertex="1">
                    <mxGeometry width="650" height="28" as="geometry"/>
                </mxCell>
                <mxCell id="z6mK0IaKQxgmxTh3KaRd-9" value="商品コード" style="shape=partialRectangle;html=1;whiteSpace=wrap;connectable=0;overflow=hidden;fillColor=#b0e3e6;top=0;left=0;bottom=0;right=0;pointerEvents=1;strokeColor=#0e8088;" parent="z6mK0IaKQxgmxTh3KaRd-8" vertex="1">
                    <mxGeometry width="102" height="28" as="geometry">
                        <mxRectangle width="102" height="28" as="alternateBounds"/>
                    </mxGeometry>
                </mxCell>
                <mxCell id="z6mK0IaKQxgmxTh3KaRd-10" value="" style="shape=partialRectangle;html=1;whiteSpace=wrap;connectable=0;overflow=hidden;fillColor=none;top=0;left=0;bottom=0;right=0;pointerEvents=1;strokeColor=default;" parent="z6mK0IaKQxgmxTh3KaRd-8" vertex="1">
                    <mxGeometry x="102" width="223" height="28" as="geometry">
                        <mxRectangle width="223" height="28" as="alternateBounds"/>
                    </mxGeometry>
                </mxCell>
                <mxCell id="z6mK0IaKQxgmxTh3KaRd-11" value="在庫場所" style="shape=partialRectangle;html=1;whiteSpace=wrap;connectable=0;overflow=hidden;fillColor=#b0e3e6;top=0;left=0;bottom=0;right=0;pointerEvents=1;strokeColor=#0e8088;" parent="z6mK0IaKQxgmxTh3KaRd-8" vertex="1">
                    <mxGeometry x="325" width="112" height="28" as="geometry">
                        <mxRectangle width="112" height="28" as="alternateBounds"/>
                    </mxGeometry>
                </mxCell>
                <mxCell id="z6mK0IaKQxgmxTh3KaRd-12" value="" style="shape=partialRectangle;html=1;whiteSpace=wrap;connectable=0;overflow=hidden;fillColor=none;top=0;left=0;bottom=0;right=0;pointerEvents=1;strokeColor=default;" parent="z6mK0IaKQxgmxTh3KaRd-8" vertex="1">
                    <mxGeometry x="437" width="213" height="28" as="geometry">
                        <mxRectangle width="213" height="28" as="alternateBounds"/>
                    </mxGeometry>
                </mxCell>
                <mxCell id="z6mK0IaKQxgmxTh3KaRd-13" value="" style="shape=partialRectangle;collapsible=0;dropTarget=0;pointerEvents=0;fillColor=none;top=0;left=0;bottom=0;right=0;points=[[0,0.5],[1,0.5]];portConstraint=eastwest;strokeColor=default;" parent="z6mK0IaKQxgmxTh3KaRd-7" vertex="1">
                    <mxGeometry y="28" width="650" height="27" as="geometry"/>
                </mxCell>
                <mxCell id="z6mK0IaKQxgmxTh3KaRd-14" value="カテゴリ" style="shape=partialRectangle;html=1;whiteSpace=wrap;connectable=0;overflow=hidden;fillColor=#b0e3e6;top=0;left=0;bottom=0;right=0;pointerEvents=1;strokeColor=#0e8088;" parent="z6mK0IaKQxgmxTh3KaRd-13" vertex="1">
                    <mxGeometry width="102" height="27" as="geometry">
                        <mxRectangle width="102" height="27" as="alternateBounds"/>
                    </mxGeometry>
                </mxCell>
                <mxCell id="z6mK0IaKQxgmxTh3KaRd-15" value="" style="shape=partialRectangle;html=1;whiteSpace=wrap;connectable=0;overflow=hidden;fillColor=none;top=0;left=0;bottom=0;right=0;pointerEvents=1;strokeColor=default;" parent="z6mK0IaKQxgmxTh3KaRd-13" vertex="1">
                    <mxGeometry x="102" width="223" height="27" as="geometry">
                        <mxRectangle width="223" height="27" as="alternateBounds"/>
                    </mxGeometry>
                </mxCell>
                <mxCell id="z6mK0IaKQxgmxTh3KaRd-16" value="仕入価格" style="shape=partialRectangle;html=1;whiteSpace=wrap;connectable=0;overflow=hidden;fillColor=#b0e3e6;top=0;left=0;bottom=0;right=0;pointerEvents=1;strokeColor=#0e8088;" parent="z6mK0IaKQxgmxTh3KaRd-13" vertex="1">
                    <mxGeometry x="325" width="112" height="27" as="geometry">
                        <mxRectangle width="112" height="27" as="alternateBounds"/>
                    </mxGeometry>
                </mxCell>
                <mxCell id="z6mK0IaKQxgmxTh3KaRd-17" value="" style="shape=partialRectangle;html=1;whiteSpace=wrap;connectable=0;overflow=hidden;fillColor=none;top=0;left=0;bottom=0;right=0;pointerEvents=1;strokeColor=default;" parent="z6mK0IaKQxgmxTh3KaRd-13" vertex="1">
                    <mxGeometry x="437" width="213" height="27" as="geometry">
                        <mxRectangle width="213" height="27" as="alternateBounds"/>
                    </mxGeometry>
                </mxCell>
                <mxCell id="z6mK0IaKQxgmxTh3KaRd-94" style="shape=partialRectangle;collapsible=0;dropTarget=0;pointerEvents=0;fillColor=none;top=0;left=0;bottom=0;right=0;points=[[0,0.5],[1,0.5]];portConstraint=eastwest;strokeColor=default;" parent="z6mK0IaKQxgmxTh3KaRd-7" vertex="1">
                    <mxGeometry y="55" width="650" height="27" as="geometry"/>
                </mxCell>
                <mxCell id="z6mK0IaKQxgmxTh3KaRd-95" value="商品状態" style="shape=partialRectangle;html=1;whiteSpace=wrap;connectable=0;overflow=hidden;fillColor=#b0e3e6;top=0;left=0;bottom=0;right=0;pointerEvents=1;strokeColor=#0e8088;" parent="z6mK0IaKQxgmxTh3KaRd-94" vertex="1">
                    <mxGeometry width="102" height="27" as="geometry">
                        <mxRectangle width="102" height="27" as="alternateBounds"/>
                    </mxGeometry>
                </mxCell>
                <mxCell id="z6mK0IaKQxgmxTh3KaRd-96" style="shape=partialRectangle;html=1;whiteSpace=wrap;connectable=0;overflow=hidden;fillColor=none;top=0;left=0;bottom=0;right=0;pointerEvents=1;strokeColor=default;" parent="z6mK0IaKQxgmxTh3KaRd-94" vertex="1">
                    <mxGeometry x="102" width="223" height="27" as="geometry">
                        <mxRectangle width="223" height="27" as="alternateBounds"/>
                    </mxGeometry>
                </mxCell>
                <mxCell id="z6mK0IaKQxgmxTh3KaRd-97" style="shape=partialRectangle;html=1;whiteSpace=wrap;connectable=0;overflow=hidden;fillColor=#b0e3e6;top=0;left=0;bottom=0;right=0;pointerEvents=1;strokeColor=#0e8088;" parent="z6mK0IaKQxgmxTh3KaRd-94" vertex="1">
                    <mxGeometry x="325" width="112" height="27" as="geometry">
                        <mxRectangle width="112" height="27" as="alternateBounds"/>
                    </mxGeometry>
                </mxCell>
                <mxCell id="z6mK0IaKQxgmxTh3KaRd-98" style="shape=partialRectangle;html=1;whiteSpace=wrap;connectable=0;overflow=hidden;fillColor=none;top=0;left=0;bottom=0;right=0;pointerEvents=1;strokeColor=default;" parent="z6mK0IaKQxgmxTh3KaRd-94" vertex="1">
                    <mxGeometry x="437" width="213" height="27" as="geometry">
                        <mxRectangle width="213" height="27" as="alternateBounds"/>
                    </mxGeometry>
                </mxCell>
                <mxCell id="z6mK0IaKQxgmxTh3KaRd-30" value="" style="shape=table;startSize=0;container=1;collapsible=0;childLayout=tableLayout;strokeColor=default;" parent="1" vertex="1">
                    <mxGeometry x="720" y="240" width="650" height="190" as="geometry"/>
                </mxCell>
                <mxCell id="z6mK0IaKQxgmxTh3KaRd-31" value="" style="shape=partialRectangle;collapsible=0;dropTarget=0;pointerEvents=0;fillColor=none;top=0;left=0;bottom=0;right=0;points=[[0,0.5],[1,0.5]];portConstraint=eastwest;strokeColor=default;" parent="z6mK0IaKQxgmxTh3KaRd-30" vertex="1">
                    <mxGeometry width="650" height="28" as="geometry"/>
                </mxCell>
                <mxCell id="z6mK0IaKQxgmxTh3KaRd-32" value="型番" style="shape=partialRectangle;html=1;whiteSpace=wrap;connectable=0;overflow=hidden;fillColor=#b0e3e6;top=0;left=0;bottom=0;right=0;pointerEvents=1;strokeColor=#0e8088;" parent="z6mK0IaKQxgmxTh3KaRd-31" vertex="1">
                    <mxGeometry width="102" height="28" as="geometry">
                        <mxRectangle width="102" height="28" as="alternateBounds"/>
                    </mxGeometry>
                </mxCell>
                <mxCell id="z6mK0IaKQxgmxTh3KaRd-33" value="" style="shape=partialRectangle;html=1;whiteSpace=wrap;connectable=0;overflow=hidden;fillColor=none;top=0;left=0;bottom=0;right=0;pointerEvents=1;strokeColor=default;" parent="z6mK0IaKQxgmxTh3KaRd-31" vertex="1">
                    <mxGeometry x="102" width="223" height="28" as="geometry">
                        <mxRectangle width="223" height="28" as="alternateBounds"/>
                    </mxGeometry>
                </mxCell>
                <mxCell id="z6mK0IaKQxgmxTh3KaRd-34" value="モニタサイズ" style="shape=partialRectangle;html=1;whiteSpace=wrap;connectable=0;overflow=hidden;fillColor=#b0e3e6;top=0;left=0;bottom=0;right=0;pointerEvents=1;strokeColor=#0e8088;" parent="z6mK0IaKQxgmxTh3KaRd-31" vertex="1">
                    <mxGeometry x="325" width="112" height="28" as="geometry">
                        <mxRectangle width="112" height="28" as="alternateBounds"/>
                    </mxGeometry>
                </mxCell>
                <mxCell id="z6mK0IaKQxgmxTh3KaRd-35" value="" style="shape=partialRectangle;html=1;whiteSpace=wrap;connectable=0;overflow=hidden;fillColor=none;top=0;left=0;bottom=0;right=0;pointerEvents=1;strokeColor=default;" parent="z6mK0IaKQxgmxTh3KaRd-31" vertex="1">
                    <mxGeometry x="437" width="213" height="28" as="geometry">
                        <mxRectangle width="213" height="28" as="alternateBounds"/>
                    </mxGeometry>
                </mxCell>
                <mxCell id="z6mK0IaKQxgmxTh3KaRd-36" value="" style="shape=partialRectangle;collapsible=0;dropTarget=0;pointerEvents=0;fillColor=none;top=0;left=0;bottom=0;right=0;points=[[0,0.5],[1,0.5]];portConstraint=eastwest;strokeColor=default;" parent="z6mK0IaKQxgmxTh3KaRd-30" vertex="1">
                    <mxGeometry y="28" width="650" height="27" as="geometry"/>
                </mxCell>
                <mxCell id="z6mK0IaKQxgmxTh3KaRd-37" value="メーカー" style="shape=partialRectangle;html=1;whiteSpace=wrap;connectable=0;overflow=hidden;fillColor=#b0e3e6;top=0;left=0;bottom=0;right=0;pointerEvents=1;strokeColor=#0e8088;" parent="z6mK0IaKQxgmxTh3KaRd-36" vertex="1">
                    <mxGeometry width="102" height="27" as="geometry">
                        <mxRectangle width="102" height="27" as="alternateBounds"/>
                    </mxGeometry>
                </mxCell>
                <mxCell id="z6mK0IaKQxgmxTh3KaRd-38" value="" style="shape=partialRectangle;html=1;whiteSpace=wrap;connectable=0;overflow=hidden;fillColor=none;top=0;left=0;bottom=0;right=0;pointerEvents=1;strokeColor=default;" parent="z6mK0IaKQxgmxTh3KaRd-36" vertex="1">
                    <mxGeometry x="102" width="223" height="27" as="geometry">
                        <mxRectangle width="223" height="27" as="alternateBounds"/>
                    </mxGeometry>
                </mxCell>
                <mxCell id="z6mK0IaKQxgmxTh3KaRd-39" value="モニタ解像度（縦）" style="shape=partialRectangle;html=1;whiteSpace=wrap;connectable=0;overflow=hidden;fillColor=#b0e3e6;top=0;left=0;bottom=0;right=0;pointerEvents=1;strokeColor=#0e8088;" parent="z6mK0IaKQxgmxTh3KaRd-36" vertex="1">
                    <mxGeometry x="325" width="112" height="27" as="geometry">
                        <mxRectangle width="112" height="27" as="alternateBounds"/>
                    </mxGeometry>
                </mxCell>
                <mxCell id="z6mK0IaKQxgmxTh3KaRd-40" value="" style="shape=partialRectangle;html=1;whiteSpace=wrap;connectable=0;overflow=hidden;fillColor=none;top=0;left=0;bottom=0;right=0;pointerEvents=1;strokeColor=default;" parent="z6mK0IaKQxgmxTh3KaRd-36" vertex="1">
                    <mxGeometry x="437" width="213" height="27" as="geometry">
                        <mxRectangle width="213" height="27" as="alternateBounds"/>
                    </mxGeometry>
                </mxCell>
                <mxCell id="z6mK0IaKQxgmxTh3KaRd-41" style="shape=partialRectangle;collapsible=0;dropTarget=0;pointerEvents=0;fillColor=none;top=0;left=0;bottom=0;right=0;points=[[0,0.5],[1,0.5]];portConstraint=eastwest;strokeColor=default;" parent="z6mK0IaKQxgmxTh3KaRd-30" vertex="1">
                    <mxGeometry y="55" width="650" height="27" as="geometry"/>
                </mxCell>
                <mxCell id="z6mK0IaKQxgmxTh3KaRd-42" value="CPU" style="shape=partialRectangle;html=1;whiteSpace=wrap;connectable=0;overflow=hidden;fillColor=#b0e3e6;top=0;left=0;bottom=0;right=0;pointerEvents=1;strokeColor=#0e8088;" parent="z6mK0IaKQxgmxTh3KaRd-41" vertex="1">
                    <mxGeometry width="102" height="27" as="geometry">
                        <mxRectangle width="102" height="27" as="alternateBounds"/>
                    </mxGeometry>
                </mxCell>
                <mxCell id="z6mK0IaKQxgmxTh3KaRd-43" style="shape=partialRectangle;html=1;whiteSpace=wrap;connectable=0;overflow=hidden;fillColor=none;top=0;left=0;bottom=0;right=0;pointerEvents=1;strokeColor=default;" parent="z6mK0IaKQxgmxTh3KaRd-41" vertex="1">
                    <mxGeometry x="102" width="223" height="27" as="geometry">
                        <mxRectangle width="223" height="27" as="alternateBounds"/>
                    </mxGeometry>
                </mxCell>
                <mxCell id="z6mK0IaKQxgmxTh3KaRd-44" value="モニタ解像度（横）" style="shape=partialRectangle;html=1;whiteSpace=wrap;connectable=0;overflow=hidden;fillColor=#b0e3e6;top=0;left=0;bottom=0;right=0;pointerEvents=1;strokeColor=#0e8088;" parent="z6mK0IaKQxgmxTh3KaRd-41" vertex="1">
                    <mxGeometry x="325" width="112" height="27" as="geometry">
                        <mxRectangle width="112" height="27" as="alternateBounds"/>
                    </mxGeometry>
                </mxCell>
                <mxCell id="z6mK0IaKQxgmxTh3KaRd-45" style="shape=partialRectangle;html=1;whiteSpace=wrap;connectable=0;overflow=hidden;fillColor=none;top=0;left=0;bottom=0;right=0;pointerEvents=1;strokeColor=default;" parent="z6mK0IaKQxgmxTh3KaRd-41" vertex="1">
                    <mxGeometry x="437" width="213" height="27" as="geometry">
                        <mxRectangle width="213" height="27" as="alternateBounds"/>
                    </mxGeometry>
                </mxCell>
                <mxCell id="z6mK0IaKQxgmxTh3KaRd-46" style="shape=partialRectangle;collapsible=0;dropTarget=0;pointerEvents=0;fillColor=none;top=0;left=0;bottom=0;right=0;points=[[0,0.5],[1,0.5]];portConstraint=eastwest;strokeColor=default;" parent="z6mK0IaKQxgmxTh3KaRd-30" vertex="1">
                    <mxGeometry y="82" width="650" height="27" as="geometry"/>
                </mxCell>
                <mxCell id="z6mK0IaKQxgmxTh3KaRd-47" value="HDD" style="shape=partialRectangle;html=1;whiteSpace=wrap;connectable=0;overflow=hidden;fillColor=#b0e3e6;top=0;left=0;bottom=0;right=0;pointerEvents=1;strokeColor=#0e8088;" parent="z6mK0IaKQxgmxTh3KaRd-46" vertex="1">
                    <mxGeometry width="102" height="27" as="geometry">
                        <mxRectangle width="102" height="27" as="alternateBounds"/>
                    </mxGeometry>
                </mxCell>
                <mxCell id="z6mK0IaKQxgmxTh3KaRd-48" style="shape=partialRectangle;html=1;whiteSpace=wrap;connectable=0;overflow=hidden;fillColor=none;top=0;left=0;bottom=0;right=0;pointerEvents=1;strokeColor=default;" parent="z6mK0IaKQxgmxTh3KaRd-46" vertex="1">
                    <mxGeometry x="102" width="223" height="27" as="geometry">
                        <mxRectangle width="223" height="27" as="alternateBounds"/>
                    </mxGeometry>
                </mxCell>
                <mxCell id="z6mK0IaKQxgmxTh3KaRd-49" value="カメラ" style="shape=partialRectangle;html=1;whiteSpace=wrap;connectable=0;overflow=hidden;fillColor=#b0e3e6;top=0;left=0;bottom=0;right=0;pointerEvents=1;strokeColor=#0e8088;" parent="z6mK0IaKQxgmxTh3KaRd-46" vertex="1">
                    <mxGeometry x="325" width="112" height="27" as="geometry">
                        <mxRectangle width="112" height="27" as="alternateBounds"/>
                    </mxGeometry>
                </mxCell>
                <mxCell id="z6mK0IaKQxgmxTh3KaRd-50" style="shape=partialRectangle;html=1;whiteSpace=wrap;connectable=0;overflow=hidden;fillColor=none;top=0;left=0;bottom=0;right=0;pointerEvents=1;strokeColor=default;" parent="z6mK0IaKQxgmxTh3KaRd-46" vertex="1">
                    <mxGeometry x="437" width="213" height="27" as="geometry">
                        <mxRectangle width="213" height="27" as="alternateBounds"/>
                    </mxGeometry>
                </mxCell>
                <mxCell id="z6mK0IaKQxgmxTh3KaRd-51" style="shape=partialRectangle;collapsible=0;dropTarget=0;pointerEvents=0;fillColor=none;top=0;left=0;bottom=0;right=0;points=[[0,0.5],[1,0.5]];portConstraint=eastwest;strokeColor=default;" parent="z6mK0IaKQxgmxTh3KaRd-30" vertex="1">
                    <mxGeometry y="109" width="650" height="27" as="geometry"/>
                </mxCell>
                <mxCell id="z6mK0IaKQxgmxTh3KaRd-52" value="SSD" style="shape=partialRectangle;html=1;whiteSpace=wrap;connectable=0;overflow=hidden;fillColor=#b0e3e6;top=0;left=0;bottom=0;right=0;pointerEvents=1;strokeColor=#0e8088;" parent="z6mK0IaKQxgmxTh3KaRd-51" vertex="1">
                    <mxGeometry width="102" height="27" as="geometry">
                        <mxRectangle width="102" height="27" as="alternateBounds"/>
                    </mxGeometry>
                </mxCell>
                <mxCell id="z6mK0IaKQxgmxTh3KaRd-53" style="shape=partialRectangle;html=1;whiteSpace=wrap;connectable=0;overflow=hidden;fillColor=none;top=0;left=0;bottom=0;right=0;pointerEvents=1;strokeColor=default;" parent="z6mK0IaKQxgmxTh3KaRd-51" vertex="1">
                    <mxGeometry x="102" width="223" height="27" as="geometry">
                        <mxRectangle width="223" height="27" as="alternateBounds"/>
                    </mxGeometry>
                </mxCell>
                <mxCell id="z6mK0IaKQxgmxTh3KaRd-54" value="光学ドライブ" style="shape=partialRectangle;html=1;whiteSpace=wrap;connectable=0;overflow=hidden;fillColor=#b0e3e6;top=0;left=0;bottom=0;right=0;pointerEvents=1;strokeColor=#0e8088;" parent="z6mK0IaKQxgmxTh3KaRd-51" vertex="1">
                    <mxGeometry x="325" width="112" height="27" as="geometry">
                        <mxRectangle width="112" height="27" as="alternateBounds"/>
                    </mxGeometry>
                </mxCell>
                <mxCell id="z6mK0IaKQxgmxTh3KaRd-55" style="shape=partialRectangle;html=1;whiteSpace=wrap;connectable=0;overflow=hidden;fillColor=none;top=0;left=0;bottom=0;right=0;pointerEvents=1;strokeColor=default;" parent="z6mK0IaKQxgmxTh3KaRd-51" vertex="1">
                    <mxGeometry x="437" width="213" height="27" as="geometry">
                        <mxRectangle width="213" height="27" as="alternateBounds"/>
                    </mxGeometry>
                </mxCell>
                <mxCell id="z6mK0IaKQxgmxTh3KaRd-56" style="shape=partialRectangle;collapsible=0;dropTarget=0;pointerEvents=0;fillColor=none;top=0;left=0;bottom=0;right=0;points=[[0,0.5],[1,0.5]];portConstraint=eastwest;strokeColor=default;" parent="z6mK0IaKQxgmxTh3KaRd-30" vertex="1">
                    <mxGeometry y="136" width="650" height="27" as="geometry"/>
                </mxCell>
                <mxCell id="z6mK0IaKQxgmxTh3KaRd-57" value="OS" style="shape=partialRectangle;html=1;whiteSpace=wrap;connectable=0;overflow=hidden;fillColor=#b0e3e6;top=0;left=0;bottom=0;right=0;pointerEvents=1;strokeColor=#0e8088;" parent="z6mK0IaKQxgmxTh3KaRd-56" vertex="1">
                    <mxGeometry width="102" height="27" as="geometry">
                        <mxRectangle width="102" height="27" as="alternateBounds"/>
                    </mxGeometry>
                </mxCell>
                <mxCell id="z6mK0IaKQxgmxTh3KaRd-58" style="shape=partialRectangle;html=1;whiteSpace=wrap;connectable=0;overflow=hidden;fillColor=none;top=0;left=0;bottom=0;right=0;pointerEvents=1;strokeColor=default;" parent="z6mK0IaKQxgmxTh3KaRd-56" vertex="1">
                    <mxGeometry x="102" width="223" height="27" as="geometry">
                        <mxRectangle width="223" height="27" as="alternateBounds"/>
                    </mxGeometry>
                </mxCell>
                <mxCell id="z6mK0IaKQxgmxTh3KaRd-59" value="グラフィック" style="shape=partialRectangle;html=1;whiteSpace=wrap;connectable=0;overflow=hidden;fillColor=#b0e3e6;top=0;left=0;bottom=0;right=0;pointerEvents=1;strokeColor=#0e8088;" parent="z6mK0IaKQxgmxTh3KaRd-56" vertex="1">
                    <mxGeometry x="325" width="112" height="27" as="geometry">
                        <mxRectangle width="112" height="27" as="alternateBounds"/>
                    </mxGeometry>
                </mxCell>
                <mxCell id="z6mK0IaKQxgmxTh3KaRd-60" style="shape=partialRectangle;html=1;whiteSpace=wrap;connectable=0;overflow=hidden;fillColor=none;top=0;left=0;bottom=0;right=0;pointerEvents=1;strokeColor=default;" parent="z6mK0IaKQxgmxTh3KaRd-56" vertex="1">
                    <mxGeometry x="437" width="213" height="27" as="geometry">
                        <mxRectangle width="213" height="27" as="alternateBounds"/>
                    </mxGeometry>
                </mxCell>
                <mxCell id="z6mK0IaKQxgmxTh3KaRd-61" style="shape=partialRectangle;collapsible=0;dropTarget=0;pointerEvents=0;fillColor=none;top=0;left=0;bottom=0;right=0;points=[[0,0.5],[1,0.5]];portConstraint=eastwest;strokeColor=default;" parent="z6mK0IaKQxgmxTh3KaRd-30" vertex="1">
                    <mxGeometry y="163" width="650" height="27" as="geometry"/>
                </mxCell>
                <mxCell id="z6mK0IaKQxgmxTh3KaRd-62" value="&lt;span&gt;Wi-Fi&lt;/span&gt;" style="shape=partialRectangle;html=1;whiteSpace=wrap;connectable=0;overflow=hidden;fillColor=#b0e3e6;top=0;left=0;bottom=0;right=0;pointerEvents=1;strokeColor=#0e8088;" parent="z6mK0IaKQxgmxTh3KaRd-61" vertex="1">
                    <mxGeometry width="102" height="27" as="geometry">
                        <mxRectangle width="102" height="27" as="alternateBounds"/>
                    </mxGeometry>
                </mxCell>
                <mxCell id="z6mK0IaKQxgmxTh3KaRd-63" style="shape=partialRectangle;html=1;whiteSpace=wrap;connectable=0;overflow=hidden;fillColor=none;top=0;left=0;bottom=0;right=0;pointerEvents=1;strokeColor=default;" parent="z6mK0IaKQxgmxTh3KaRd-61" vertex="1">
                    <mxGeometry x="102" width="223" height="27" as="geometry">
                        <mxRectangle width="223" height="27" as="alternateBounds"/>
                    </mxGeometry>
                </mxCell>
                <mxCell id="z6mK0IaKQxgmxTh3KaRd-64" style="shape=partialRectangle;html=1;whiteSpace=wrap;connectable=0;overflow=hidden;fillColor=none;top=0;left=0;bottom=0;right=0;pointerEvents=1;" parent="z6mK0IaKQxgmxTh3KaRd-61" vertex="1">
                    <mxGeometry x="325" width="112" height="27" as="geometry">
                        <mxRectangle width="112" height="27" as="alternateBounds"/>
                    </mxGeometry>
                </mxCell>
                <mxCell id="z6mK0IaKQxgmxTh3KaRd-65" style="shape=partialRectangle;html=1;whiteSpace=wrap;connectable=0;overflow=hidden;fillColor=none;top=0;left=0;bottom=0;right=0;pointerEvents=1;" parent="z6mK0IaKQxgmxTh3KaRd-61" vertex="1">
                    <mxGeometry x="437" width="213" height="27" as="geometry">
                        <mxRectangle width="213" height="27" as="alternateBounds"/>
                    </mxGeometry>
                </mxCell>
                <mxCell id="z6mK0IaKQxgmxTh3KaRd-71" value="検索" style="rounded=1;whiteSpace=wrap;html=1;align=center;labelBackgroundColor=none;fillColor=#d5e8d4;strokeColor=#82b366;" parent="1" vertex="1">
                    <mxGeometry x="975" y="436" width="130" height="34" as="geometry"/>
                </mxCell>
                <mxCell id="z6mK0IaKQxgmxTh3KaRd-75" value="" style="rounded=1;arcSize=9;fillColor=#F7F8F9;align=left;spacingLeft=5;strokeColor=#DEE1E6;html=1;strokeWidth=2;fontSize=12" parent="1" vertex="1">
                    <mxGeometry x="827" y="137" width="213" height="23" as="geometry"/>
                </mxCell>
                <mxCell id="z6mK0IaKQxgmxTh3KaRd-76" value="" style="rounded=1;arcSize=9;fillColor=#F7F8F9;align=left;spacingLeft=5;strokeColor=#DEE1E6;html=1;strokeWidth=2;fontSize=12" parent="1" vertex="1">
                    <mxGeometry x="827" y="244" width="213" height="23" as="geometry"/>
                </mxCell>
                <mxCell id="z6mK0IaKQxgmxTh3KaRd-77" value="" style="rounded=1;arcSize=9;fillColor=#ffffff;strokeColor=#4C9AFF;html=1;strokeWidth=2;spacingLeft=30;fontColor=#000000;align=left" parent="1" vertex="1">
                    <mxGeometry x="827" y="165" width="213" height="20" as="geometry"/>
                </mxCell>
                <mxCell id="z6mK0IaKQxgmxTh3KaRd-78" value="" style="shape=step;whiteSpace=wrap;html=1;rounded=0;strokeColor=none;strokeWidth=2;fillColor=#0A1E43;gradientColor=none;fontFamily=Verdana;fontSize=14;fontColor=#000000;align=left;direction=south;size=0.65;" parent="z6mK0IaKQxgmxTh3KaRd-77" vertex="1">
                    <mxGeometry x="1" y="0.5" width="10" height="7" relative="1" as="geometry">
                        <mxPoint x="-24" y="-3" as="offset"/>
                    </mxGeometry>
                </mxCell>
                <mxCell id="z6mK0IaKQxgmxTh3KaRd-79" value="" style="rounded=1;arcSize=9;fillColor=#ffffff;strokeColor=#4C9AFF;html=1;strokeWidth=2;spacingLeft=30;fontColor=#000000;align=left" parent="1" vertex="1">
                    <mxGeometry x="1160" y="140" width="200" height="20" as="geometry"/>
                </mxCell>
                <mxCell id="z6mK0IaKQxgmxTh3KaRd-80" value="" style="shape=step;whiteSpace=wrap;html=1;rounded=0;strokeColor=none;strokeWidth=2;fillColor=#0A1E43;gradientColor=none;fontFamily=Verdana;fontSize=14;fontColor=#000000;align=left;direction=south;size=0.65;" parent="z6mK0IaKQxgmxTh3KaRd-79" vertex="1">
                    <mxGeometry x="1" y="0.5" width="10" height="7" relative="1" as="geometry">
                        <mxPoint x="-24" y="-3" as="offset"/>
                    </mxGeometry>
                </mxCell>
                <mxCell id="z6mK0IaKQxgmxTh3KaRd-81" value="" style="rounded=1;arcSize=9;fillColor=#F7F8F9;align=left;spacingLeft=5;strokeColor=#DEE1E6;html=1;strokeWidth=2;fontSize=12" parent="1" vertex="1">
                    <mxGeometry x="827" y="272" width="213" height="23" as="geometry"/>
                </mxCell>
                <mxCell id="z6mK0IaKQxgmxTh3KaRd-82" value="" style="rounded=1;arcSize=9;fillColor=#F7F8F9;align=left;spacingLeft=5;strokeColor=#DEE1E6;html=1;strokeWidth=2;fontSize=12" parent="1" vertex="1">
                    <mxGeometry x="827" y="297" width="213" height="23" as="geometry"/>
                </mxCell>
                <mxCell id="z6mK0IaKQxgmxTh3KaRd-83" value="" style="rounded=1;arcSize=9;fillColor=#F7F8F9;align=left;spacingLeft=5;strokeColor=#DEE1E6;html=1;strokeWidth=2;fontSize=12" parent="1" vertex="1">
                    <mxGeometry x="827" y="325" width="213" height="23" as="geometry"/>
                </mxCell>
                <mxCell id="z6mK0IaKQxgmxTh3KaRd-84" value="" style="rounded=1;arcSize=9;fillColor=#F7F8F9;align=left;spacingLeft=5;strokeColor=#DEE1E6;html=1;strokeWidth=2;fontSize=12" parent="1" vertex="1">
                    <mxGeometry x="827" y="350" width="213" height="23" as="geometry"/>
                </mxCell>
                <mxCell id="z6mK0IaKQxgmxTh3KaRd-85" value="" style="rounded=1;arcSize=9;fillColor=#F7F8F9;align=left;spacingLeft=5;strokeColor=#DEE1E6;html=1;strokeWidth=2;fontSize=12" parent="1" vertex="1">
                    <mxGeometry x="827" y="380" width="213" height="23" as="geometry"/>
                </mxCell>
                <mxCell id="z6mK0IaKQxgmxTh3KaRd-86" value="" style="rounded=1;arcSize=9;fillColor=#ffffff;strokeColor=#4C9AFF;html=1;strokeWidth=2;spacingLeft=30;fontColor=#000000;align=left" parent="1" vertex="1">
                    <mxGeometry x="827" y="405" width="213" height="20" as="geometry"/>
                </mxCell>
                <mxCell id="z6mK0IaKQxgmxTh3KaRd-87" value="" style="shape=step;whiteSpace=wrap;html=1;rounded=0;strokeColor=none;strokeWidth=2;fillColor=#0A1E43;gradientColor=none;fontFamily=Verdana;fontSize=14;fontColor=#000000;align=left;direction=south;size=0.65;" parent="z6mK0IaKQxgmxTh3KaRd-86" vertex="1">
                    <mxGeometry x="1" y="0.5" width="10" height="7" relative="1" as="geometry">
                        <mxPoint x="-24" y="-3" as="offset"/>
                    </mxGeometry>
                </mxCell>
                <mxCell id="z6mK0IaKQxgmxTh3KaRd-99" value="" style="rounded=1;arcSize=9;fillColor=#ffffff;strokeColor=#4C9AFF;html=1;strokeWidth=2;spacingLeft=30;fontColor=#000000;align=left" parent="1" vertex="1">
                    <mxGeometry x="827" y="190" width="213" height="20" as="geometry"/>
                </mxCell>
                <mxCell id="z6mK0IaKQxgmxTh3KaRd-100" value="" style="shape=step;whiteSpace=wrap;html=1;rounded=0;strokeColor=none;strokeWidth=2;fillColor=#0A1E43;gradientColor=none;fontFamily=Verdana;fontSize=14;fontColor=#000000;align=left;direction=south;size=0.65;" parent="z6mK0IaKQxgmxTh3KaRd-99" vertex="1">
                    <mxGeometry x="1" y="0.5" width="10" height="7" relative="1" as="geometry">
                        <mxPoint x="-24" y="-3" as="offset"/>
                    </mxGeometry>
                </mxCell>
                <mxCell id="z6mK0IaKQxgmxTh3KaRd-101" value="" style="rounded=1;arcSize=9;fillColor=#F7F8F9;align=left;spacingLeft=5;strokeColor=#DEE1E6;html=1;strokeWidth=2;fontSize=12" parent="1" vertex="1">
                    <mxGeometry x="1160" y="243" width="200" height="23" as="geometry"/>
                </mxCell>
                <mxCell id="z6mK0IaKQxgmxTh3KaRd-102" value="" style="rounded=1;arcSize=9;fillColor=#F7F8F9;align=left;spacingLeft=5;strokeColor=#DEE1E6;html=1;strokeWidth=2;fontSize=12" parent="1" vertex="1">
                    <mxGeometry x="1160" y="268.5" width="200" height="23" as="geometry"/>
                </mxCell>
                <mxCell id="z6mK0IaKQxgmxTh3KaRd-103" value="" style="rounded=1;arcSize=9;fillColor=#F7F8F9;align=left;spacingLeft=5;strokeColor=#DEE1E6;html=1;strokeWidth=2;fontSize=12" parent="1" vertex="1">
                    <mxGeometry x="1160" y="297" width="200" height="23" as="geometry"/>
                </mxCell>
                <mxCell id="z6mK0IaKQxgmxTh3KaRd-104" value="" style="rounded=1;arcSize=9;fillColor=#ffffff;strokeColor=#4C9AFF;html=1;strokeWidth=2;spacingLeft=30;fontColor=#000000;align=left" parent="1" vertex="1">
                    <mxGeometry x="1160" y="325" width="200" height="20" as="geometry"/>
                </mxCell>
                <mxCell id="z6mK0IaKQxgmxTh3KaRd-105" value="" style="shape=step;whiteSpace=wrap;html=1;rounded=0;strokeColor=none;strokeWidth=2;fillColor=#0A1E43;gradientColor=none;fontFamily=Verdana;fontSize=14;fontColor=#000000;align=left;direction=south;size=0.65;" parent="z6mK0IaKQxgmxTh3KaRd-104" vertex="1">
                    <mxGeometry x="1" y="0.5" width="10" height="7" relative="1" as="geometry">
                        <mxPoint x="-24" y="-3" as="offset"/>
                    </mxGeometry>
                </mxCell>
                <mxCell id="z6mK0IaKQxgmxTh3KaRd-106" value="" style="rounded=1;arcSize=9;fillColor=#ffffff;strokeColor=#4C9AFF;html=1;strokeWidth=2;spacingLeft=30;fontColor=#000000;align=left" parent="1" vertex="1">
                    <mxGeometry x="1160" y="353" width="200" height="20" as="geometry"/>
                </mxCell>
                <mxCell id="z6mK0IaKQxgmxTh3KaRd-107" value="" style="shape=step;whiteSpace=wrap;html=1;rounded=0;strokeColor=none;strokeWidth=2;fillColor=#0A1E43;gradientColor=none;fontFamily=Verdana;fontSize=14;fontColor=#000000;align=left;direction=south;size=0.65;" parent="z6mK0IaKQxgmxTh3KaRd-106" vertex="1">
                    <mxGeometry x="1" y="0.5" width="10" height="7" relative="1" as="geometry">
                        <mxPoint x="-24" y="-3" as="offset"/>
                    </mxGeometry>
                </mxCell>
                <mxCell id="z6mK0IaKQxgmxTh3KaRd-108" value="" style="rounded=1;arcSize=9;fillColor=#F7F8F9;align=left;spacingLeft=5;strokeColor=#DEE1E6;html=1;strokeWidth=2;fontSize=12" parent="1" vertex="1">
                    <mxGeometry x="1160" y="377" width="200" height="23" as="geometry"/>
                </mxCell>
                <mxCell id="4" value="" style="shape=image;html=1;verticalAlign=top;verticalLabelPosition=bottom;labelBackgroundColor=#ffffff;imageAspect=0;aspect=fixed;image=https://cdn1.iconfinder.com/data/icons/ui-essentials-14/32/UI_Essentials_button_circle_round_arrow_previous-128.png" parent="1" vertex="1">
                    <mxGeometry x="680" y="80" width="40" height="40" as="geometry"/>
                </mxCell>
                <mxCell id="elqUJP_zJi6E47OMO-D8-1" value="名称未設定レイヤ" parent="0"/>
                <mxCell id="elqUJP_zJi6E47OMO-D8-2" value="名称未設定レイヤ" parent="0"/>
            </root>
        </mxGraphModel>
    </diagram>
    <diagram id="xUxYUeE3ronR0FQCtkyY" name="S08-02 ボトルネック検索">
        <mxGraphModel dx="913" dy="506" grid="1" gridSize="10" guides="1" tooltips="1" connect="1" arrows="1" fold="1" page="1" pageScale="1" pageWidth="827" pageHeight="1169" math="0" shadow="0">
            <root>
                <mxCell id="Ew2Icu9jrgo6xF9pl-kO-0"/>
                <mxCell id="Ew2Icu9jrgo6xF9pl-kO-1" style="locked=1;" parent="Ew2Icu9jrgo6xF9pl-kO-0"/>
                <mxCell id="7On1TKgl6tuQwjvSteoj-12" value="" style="rounded=0;whiteSpace=wrap;html=1;shadow=1;" parent="Ew2Icu9jrgo6xF9pl-kO-1" vertex="1">
                    <mxGeometry x="80" y="50" width="300" height="210" as="geometry"/>
                </mxCell>
                <mxCell id="7On1TKgl6tuQwjvSteoj-2" value="ボトルネック検索" style="text;html=1;strokeColor=none;fillColor=none;align=center;verticalAlign=middle;whiteSpace=wrap;rounded=0;" parent="Ew2Icu9jrgo6xF9pl-kO-1" vertex="1">
                    <mxGeometry x="160" y="60" width="110" height="30" as="geometry"/>
                </mxCell>
                <mxCell id="7On1TKgl6tuQwjvSteoj-3" value="" style="rounded=0;whiteSpace=wrap;html=1;" parent="Ew2Icu9jrgo6xF9pl-kO-1" vertex="1">
                    <mxGeometry x="170" y="210" width="120" height="30" as="geometry"/>
                </mxCell>
                <mxCell id="7On1TKgl6tuQwjvSteoj-4" value="" style="rounded=0;whiteSpace=wrap;html=1;" parent="Ew2Icu9jrgo6xF9pl-kO-1" vertex="1">
                    <mxGeometry x="170" y="100" width="140" height="30" as="geometry"/>
                </mxCell>
                <mxCell id="7On1TKgl6tuQwjvSteoj-5" value="CPU" style="text;html=1;strokeColor=none;fillColor=none;align=center;verticalAlign=middle;whiteSpace=wrap;rounded=0;" parent="Ew2Icu9jrgo6xF9pl-kO-1" vertex="1">
                    <mxGeometry x="120" y="100" width="30" height="30" as="geometry"/>
                </mxCell>
                <mxCell id="7On1TKgl6tuQwjvSteoj-6" value="GPU" style="text;html=1;strokeColor=none;fillColor=none;align=center;verticalAlign=middle;whiteSpace=wrap;rounded=0;" parent="Ew2Icu9jrgo6xF9pl-kO-1" vertex="1">
                    <mxGeometry x="120" y="150" width="30" height="30" as="geometry"/>
                </mxCell>
                <mxCell id="7On1TKgl6tuQwjvSteoj-7" value="" style="rounded=0;whiteSpace=wrap;html=1;" parent="Ew2Icu9jrgo6xF9pl-kO-1" vertex="1">
                    <mxGeometry x="170" y="150" width="140" height="30" as="geometry"/>
                </mxCell>
                <mxCell id="7On1TKgl6tuQwjvSteoj-8" value="▼" style="rounded=0;whiteSpace=wrap;html=1;" parent="Ew2Icu9jrgo6xF9pl-kO-1" vertex="1">
                    <mxGeometry x="290" y="100" width="20" height="30" as="geometry"/>
                </mxCell>
                <mxCell id="7On1TKgl6tuQwjvSteoj-9" value="▼" style="rounded=0;whiteSpace=wrap;html=1;" parent="Ew2Icu9jrgo6xF9pl-kO-1" vertex="1">
                    <mxGeometry x="290" y="150" width="20" height="30" as="geometry"/>
                </mxCell>
                <mxCell id="7On1TKgl6tuQwjvSteoj-10" value="結果" style="text;html=1;strokeColor=none;fillColor=none;align=center;verticalAlign=middle;whiteSpace=wrap;rounded=0;" parent="Ew2Icu9jrgo6xF9pl-kO-1" vertex="1">
                    <mxGeometry x="120" y="210" width="30" height="30" as="geometry"/>
                </mxCell>
                <mxCell id="7On1TKgl6tuQwjvSteoj-11" value="%" style="text;html=1;strokeColor=none;fillColor=none;align=center;verticalAlign=middle;whiteSpace=wrap;rounded=0;" parent="Ew2Icu9jrgo6xF9pl-kO-1" vertex="1">
                    <mxGeometry x="290" y="210" width="20" height="30" as="geometry"/>
                </mxCell>
                <mxCell id="7On1TKgl6tuQwjvSteoj-0" value="名称未設定レイヤ" parent="Ew2Icu9jrgo6xF9pl-kO-0"/>
                <mxCell id="ezA5xPaDT3Ney82vRjZ4-0" value="" style="rounded=0;whiteSpace=wrap;html=1;fillColor=default;strokeColor=default;fontColor=default;" parent="7On1TKgl6tuQwjvSteoj-0" vertex="1">
                    <mxGeometry x="1100" y="353" width="720" height="427" as="geometry"/>
                </mxCell>
                <mxCell id="ezA5xPaDT3Ney82vRjZ4-1" value="ボトルネック検索" style="text;html=1;strokeColor=none;fillColor=none;align=center;verticalAlign=middle;whiteSpace=wrap;rounded=0;fontColor=default;fontStyle=1;fontSize=20;" parent="7On1TKgl6tuQwjvSteoj-0" vertex="1">
                    <mxGeometry x="1347.5" y="363" width="225" height="40" as="geometry"/>
                </mxCell>
                <mxCell id="ezA5xPaDT3Ney82vRjZ4-2" value="CPU" style="rounded=1;arcSize=9;fillColor=#ffffff;strokeColor=#4C9AFF;html=1;strokeWidth=2;spacingLeft=30;fontColor=#808080;align=left" parent="7On1TKgl6tuQwjvSteoj-0" vertex="1">
                    <mxGeometry x="1130" y="403" width="160" height="33" as="geometry"/>
                </mxCell>
                <mxCell id="ezA5xPaDT3Ney82vRjZ4-3" value="" style="shape=step;whiteSpace=wrap;html=1;rounded=0;strokeColor=none;strokeWidth=2;fillColor=#0A1E43;gradientColor=none;fontFamily=Verdana;fontSize=14;fontColor=#000000;align=left;direction=south;size=0.65;" parent="ezA5xPaDT3Ney82vRjZ4-2" vertex="1">
                    <mxGeometry x="1" y="0.5" width="10" height="7" relative="1" as="geometry">
                        <mxPoint x="-24" y="-3" as="offset"/>
                    </mxGeometry>
                </mxCell>
                <mxCell id="ezA5xPaDT3Ney82vRjZ4-4" value="GPU" style="rounded=1;arcSize=9;fillColor=#ffffff;strokeColor=#4C9AFF;html=1;strokeWidth=2;spacingLeft=30;fontColor=#808080;align=left" parent="7On1TKgl6tuQwjvSteoj-0" vertex="1">
                    <mxGeometry x="1320" y="403" width="160" height="33" as="geometry"/>
                </mxCell>
                <mxCell id="ezA5xPaDT3Ney82vRjZ4-5" value="" style="shape=step;whiteSpace=wrap;html=1;rounded=0;strokeColor=none;strokeWidth=2;fillColor=#0A1E43;gradientColor=none;fontFamily=Verdana;fontSize=14;fontColor=#000000;align=left;direction=south;size=0.65;" parent="ezA5xPaDT3Ney82vRjZ4-4" vertex="1">
                    <mxGeometry x="1" y="0.5" width="10" height="7" relative="1" as="geometry">
                        <mxPoint x="-24" y="-3" as="offset"/>
                    </mxGeometry>
                </mxCell>
                <mxCell id="ezA5xPaDT3Ney82vRjZ4-6" value="" style="shape=table;startSize=0;container=1;collapsible=0;childLayout=tableLayout;fontSize=18;labelBorderColor=#000000;" parent="7On1TKgl6tuQwjvSteoj-0" vertex="1">
                    <mxGeometry x="1110" y="453" width="700" height="270" as="geometry"/>
                </mxCell>
                <mxCell id="ezA5xPaDT3Ney82vRjZ4-7" value="" style="shape=partialRectangle;collapsible=0;dropTarget=0;pointerEvents=0;fillColor=none;top=0;left=0;bottom=0;right=0;points=[[0,0.5],[1,0.5]];portConstraint=eastwest;fontSize=18;" parent="ezA5xPaDT3Ney82vRjZ4-6" vertex="1">
                    <mxGeometry width="700" height="30" as="geometry"/>
                </mxCell>
                <mxCell id="ezA5xPaDT3Ney82vRjZ4-8" value="CPU" style="shape=partialRectangle;html=1;whiteSpace=wrap;connectable=0;overflow=hidden;fillColor=#b0e3e6;top=0;left=0;bottom=0;right=0;pointerEvents=1;fontSize=11;strokeColor=#0e8088;" parent="ezA5xPaDT3Ney82vRjZ4-7" vertex="1">
                    <mxGeometry width="140" height="30" as="geometry">
                        <mxRectangle width="140" height="30" as="alternateBounds"/>
                    </mxGeometry>
                </mxCell>
                <mxCell id="ezA5xPaDT3Ney82vRjZ4-9" value="GPU" style="shape=partialRectangle;html=1;whiteSpace=wrap;connectable=0;overflow=hidden;fillColor=#b0e3e6;top=0;left=0;bottom=0;right=0;pointerEvents=1;fontSize=11;strokeColor=#0e8088;" parent="ezA5xPaDT3Ney82vRjZ4-7" vertex="1">
                    <mxGeometry x="140" width="140" height="30" as="geometry">
                        <mxRectangle width="140" height="30" as="alternateBounds"/>
                    </mxGeometry>
                </mxCell>
                <mxCell id="ezA5xPaDT3Ney82vRjZ4-10" value="バランス" style="shape=partialRectangle;html=1;whiteSpace=wrap;connectable=0;overflow=hidden;fillColor=#b0e3e6;top=0;left=0;bottom=0;right=0;pointerEvents=1;fontSize=11;strokeColor=#0e8088;" parent="ezA5xPaDT3Ney82vRjZ4-7" vertex="1">
                    <mxGeometry x="280" width="60" height="30" as="geometry">
                        <mxRectangle width="60" height="30" as="alternateBounds"/>
                    </mxGeometry>
                </mxCell>
                <mxCell id="ezA5xPaDT3Ney82vRjZ4-11" value="WQHD" style="shape=partialRectangle;html=1;whiteSpace=wrap;connectable=0;overflow=hidden;fillColor=#b0e3e6;top=0;left=0;bottom=0;right=0;pointerEvents=1;fontSize=11;strokeColor=#0e8088;" parent="ezA5xPaDT3Ney82vRjZ4-7" vertex="1">
                    <mxGeometry x="340" width="60" height="30" as="geometry">
                        <mxRectangle width="60" height="30" as="alternateBounds"/>
                    </mxGeometry>
                </mxCell>
                <mxCell id="ezA5xPaDT3Ney82vRjZ4-12" value="4K解像度" style="shape=partialRectangle;html=1;whiteSpace=wrap;connectable=0;overflow=hidden;fillColor=#b0e3e6;top=0;left=0;bottom=0;right=0;pointerEvents=1;fontSize=11;strokeColor=#0e8088;" parent="ezA5xPaDT3Ney82vRjZ4-7" vertex="1">
                    <mxGeometry x="400" width="60" height="30" as="geometry">
                        <mxRectangle width="60" height="30" as="alternateBounds"/>
                    </mxGeometry>
                </mxCell>
                <mxCell id="ezA5xPaDT3Ney82vRjZ4-13" value="ゲーム適正" style="shape=partialRectangle;html=1;whiteSpace=wrap;connectable=0;overflow=hidden;fillColor=#b0e3e6;top=0;left=0;bottom=0;right=0;pointerEvents=1;fontSize=11;strokeColor=#0e8088;" parent="ezA5xPaDT3Ney82vRjZ4-7" vertex="1">
                    <mxGeometry x="460" width="60" height="30" as="geometry">
                        <mxRectangle width="60" height="30" as="alternateBounds"/>
                    </mxGeometry>
                </mxCell>
                <mxCell id="ezA5xPaDT3Ney82vRjZ4-14" value="ゲーム配信" style="shape=partialRectangle;html=1;whiteSpace=wrap;connectable=0;overflow=hidden;fillColor=#b0e3e6;top=0;left=0;bottom=0;right=0;pointerEvents=1;fontSize=11;strokeColor=#0e8088;" parent="ezA5xPaDT3Ney82vRjZ4-7" vertex="1">
                    <mxGeometry x="520" width="60" height="30" as="geometry">
                        <mxRectangle width="60" height="30" as="alternateBounds"/>
                    </mxGeometry>
                </mxCell>
                <mxCell id="ezA5xPaDT3Ney82vRjZ4-15" value="動画編集" style="shape=partialRectangle;html=1;whiteSpace=wrap;connectable=0;overflow=hidden;fillColor=#b0e3e6;top=0;left=0;bottom=0;right=0;pointerEvents=1;fontSize=11;strokeColor=#0e8088;" parent="ezA5xPaDT3Ney82vRjZ4-7" vertex="1">
                    <mxGeometry x="580" width="60" height="30" as="geometry">
                        <mxRectangle width="60" height="30" as="alternateBounds"/>
                    </mxGeometry>
                </mxCell>
                <mxCell id="ezA5xPaDT3Ney82vRjZ4-16" value="エンコード" style="shape=partialRectangle;html=1;whiteSpace=wrap;connectable=0;overflow=hidden;fillColor=#b0e3e6;top=0;left=0;bottom=0;right=0;pointerEvents=1;fontSize=11;strokeColor=#0e8088;" parent="ezA5xPaDT3Ney82vRjZ4-7" vertex="1">
                    <mxGeometry x="640" width="60" height="30" as="geometry">
                        <mxRectangle width="60" height="30" as="alternateBounds"/>
                    </mxGeometry>
                </mxCell>
                <mxCell id="ezA5xPaDT3Ney82vRjZ4-17" style="shape=partialRectangle;collapsible=0;dropTarget=0;pointerEvents=0;fillColor=none;top=0;left=0;bottom=0;right=0;points=[[0,0.5],[1,0.5]];portConstraint=eastwest;fontSize=18;" parent="ezA5xPaDT3Ney82vRjZ4-6" vertex="1">
                    <mxGeometry y="30" width="700" height="30" as="geometry"/>
                </mxCell>
                <mxCell id="ezA5xPaDT3Ney82vRjZ4-18" style="shape=partialRectangle;html=1;whiteSpace=wrap;connectable=0;overflow=hidden;top=0;left=0;bottom=0;right=0;pointerEvents=1;fontSize=11;" parent="ezA5xPaDT3Ney82vRjZ4-17" vertex="1">
                    <mxGeometry width="140" height="30" as="geometry">
                        <mxRectangle width="140" height="30" as="alternateBounds"/>
                    </mxGeometry>
                </mxCell>
                <mxCell id="ezA5xPaDT3Ney82vRjZ4-19" style="shape=partialRectangle;html=1;whiteSpace=wrap;connectable=0;overflow=hidden;top=0;left=0;bottom=0;right=0;pointerEvents=1;fontSize=11;" parent="ezA5xPaDT3Ney82vRjZ4-17" vertex="1">
                    <mxGeometry x="140" width="140" height="30" as="geometry">
                        <mxRectangle width="140" height="30" as="alternateBounds"/>
                    </mxGeometry>
                </mxCell>
                <mxCell id="ezA5xPaDT3Ney82vRjZ4-20" style="shape=partialRectangle;html=1;whiteSpace=wrap;connectable=0;overflow=hidden;top=0;left=0;bottom=0;right=0;pointerEvents=1;fontSize=11;" parent="ezA5xPaDT3Ney82vRjZ4-17" vertex="1">
                    <mxGeometry x="280" width="60" height="30" as="geometry">
                        <mxRectangle width="60" height="30" as="alternateBounds"/>
                    </mxGeometry>
                </mxCell>
                <mxCell id="ezA5xPaDT3Ney82vRjZ4-21" style="shape=partialRectangle;html=1;whiteSpace=wrap;connectable=0;overflow=hidden;top=0;left=0;bottom=0;right=0;pointerEvents=1;fontSize=11;" parent="ezA5xPaDT3Ney82vRjZ4-17" vertex="1">
                    <mxGeometry x="340" width="60" height="30" as="geometry">
                        <mxRectangle width="60" height="30" as="alternateBounds"/>
                    </mxGeometry>
                </mxCell>
                <mxCell id="ezA5xPaDT3Ney82vRjZ4-22" style="shape=partialRectangle;html=1;whiteSpace=wrap;connectable=0;overflow=hidden;top=0;left=0;bottom=0;right=0;pointerEvents=1;fontSize=11;" parent="ezA5xPaDT3Ney82vRjZ4-17" vertex="1">
                    <mxGeometry x="400" width="60" height="30" as="geometry">
                        <mxRectangle width="60" height="30" as="alternateBounds"/>
                    </mxGeometry>
                </mxCell>
                <mxCell id="ezA5xPaDT3Ney82vRjZ4-23" style="shape=partialRectangle;html=1;whiteSpace=wrap;connectable=0;overflow=hidden;top=0;left=0;bottom=0;right=0;pointerEvents=1;fontSize=11;" parent="ezA5xPaDT3Ney82vRjZ4-17" vertex="1">
                    <mxGeometry x="460" width="60" height="30" as="geometry">
                        <mxRectangle width="60" height="30" as="alternateBounds"/>
                    </mxGeometry>
                </mxCell>
                <mxCell id="ezA5xPaDT3Ney82vRjZ4-24" style="shape=partialRectangle;html=1;whiteSpace=wrap;connectable=0;overflow=hidden;top=0;left=0;bottom=0;right=0;pointerEvents=1;fontSize=11;" parent="ezA5xPaDT3Ney82vRjZ4-17" vertex="1">
                    <mxGeometry x="520" width="60" height="30" as="geometry">
                        <mxRectangle width="60" height="30" as="alternateBounds"/>
                    </mxGeometry>
                </mxCell>
                <mxCell id="ezA5xPaDT3Ney82vRjZ4-25" style="shape=partialRectangle;html=1;whiteSpace=wrap;connectable=0;overflow=hidden;top=0;left=0;bottom=0;right=0;pointerEvents=1;fontSize=11;" parent="ezA5xPaDT3Ney82vRjZ4-17" vertex="1">
                    <mxGeometry x="580" width="60" height="30" as="geometry">
                        <mxRectangle width="60" height="30" as="alternateBounds"/>
                    </mxGeometry>
                </mxCell>
                <mxCell id="ezA5xPaDT3Ney82vRjZ4-26" style="shape=partialRectangle;html=1;whiteSpace=wrap;connectable=0;overflow=hidden;top=0;left=0;bottom=0;right=0;pointerEvents=1;fontSize=11;" parent="ezA5xPaDT3Ney82vRjZ4-17" vertex="1">
                    <mxGeometry x="640" width="60" height="30" as="geometry">
                        <mxRectangle width="60" height="30" as="alternateBounds"/>
                    </mxGeometry>
                </mxCell>
                <mxCell id="ezA5xPaDT3Ney82vRjZ4-27" style="shape=partialRectangle;collapsible=0;dropTarget=0;pointerEvents=0;fillColor=none;top=0;left=0;bottom=0;right=0;points=[[0,0.5],[1,0.5]];portConstraint=eastwest;fontSize=18;" parent="ezA5xPaDT3Ney82vRjZ4-6" vertex="1">
                    <mxGeometry y="60" width="700" height="30" as="geometry"/>
                </mxCell>
                <mxCell id="ezA5xPaDT3Ney82vRjZ4-28" style="shape=partialRectangle;html=1;whiteSpace=wrap;connectable=0;overflow=hidden;top=0;left=0;bottom=0;right=0;pointerEvents=1;fontSize=11;" parent="ezA5xPaDT3Ney82vRjZ4-27" vertex="1">
                    <mxGeometry width="140" height="30" as="geometry">
                        <mxRectangle width="140" height="30" as="alternateBounds"/>
                    </mxGeometry>
                </mxCell>
                <mxCell id="ezA5xPaDT3Ney82vRjZ4-29" style="shape=partialRectangle;html=1;whiteSpace=wrap;connectable=0;overflow=hidden;top=0;left=0;bottom=0;right=0;pointerEvents=1;fontSize=11;" parent="ezA5xPaDT3Ney82vRjZ4-27" vertex="1">
                    <mxGeometry x="140" width="140" height="30" as="geometry">
                        <mxRectangle width="140" height="30" as="alternateBounds"/>
                    </mxGeometry>
                </mxCell>
                <mxCell id="ezA5xPaDT3Ney82vRjZ4-30" style="shape=partialRectangle;html=1;whiteSpace=wrap;connectable=0;overflow=hidden;top=0;left=0;bottom=0;right=0;pointerEvents=1;fontSize=11;" parent="ezA5xPaDT3Ney82vRjZ4-27" vertex="1">
                    <mxGeometry x="280" width="60" height="30" as="geometry">
                        <mxRectangle width="60" height="30" as="alternateBounds"/>
                    </mxGeometry>
                </mxCell>
                <mxCell id="ezA5xPaDT3Ney82vRjZ4-31" style="shape=partialRectangle;html=1;whiteSpace=wrap;connectable=0;overflow=hidden;top=0;left=0;bottom=0;right=0;pointerEvents=1;fontSize=11;" parent="ezA5xPaDT3Ney82vRjZ4-27" vertex="1">
                    <mxGeometry x="340" width="60" height="30" as="geometry">
                        <mxRectangle width="60" height="30" as="alternateBounds"/>
                    </mxGeometry>
                </mxCell>
                <mxCell id="ezA5xPaDT3Ney82vRjZ4-32" style="shape=partialRectangle;html=1;whiteSpace=wrap;connectable=0;overflow=hidden;top=0;left=0;bottom=0;right=0;pointerEvents=1;fontSize=11;" parent="ezA5xPaDT3Ney82vRjZ4-27" vertex="1">
                    <mxGeometry x="400" width="60" height="30" as="geometry">
                        <mxRectangle width="60" height="30" as="alternateBounds"/>
                    </mxGeometry>
                </mxCell>
                <mxCell id="ezA5xPaDT3Ney82vRjZ4-33" style="shape=partialRectangle;html=1;whiteSpace=wrap;connectable=0;overflow=hidden;top=0;left=0;bottom=0;right=0;pointerEvents=1;fontSize=11;" parent="ezA5xPaDT3Ney82vRjZ4-27" vertex="1">
                    <mxGeometry x="460" width="60" height="30" as="geometry">
                        <mxRectangle width="60" height="30" as="alternateBounds"/>
                    </mxGeometry>
                </mxCell>
                <mxCell id="ezA5xPaDT3Ney82vRjZ4-34" style="shape=partialRectangle;html=1;whiteSpace=wrap;connectable=0;overflow=hidden;top=0;left=0;bottom=0;right=0;pointerEvents=1;fontSize=11;" parent="ezA5xPaDT3Ney82vRjZ4-27" vertex="1">
                    <mxGeometry x="520" width="60" height="30" as="geometry">
                        <mxRectangle width="60" height="30" as="alternateBounds"/>
                    </mxGeometry>
                </mxCell>
                <mxCell id="ezA5xPaDT3Ney82vRjZ4-35" style="shape=partialRectangle;html=1;whiteSpace=wrap;connectable=0;overflow=hidden;top=0;left=0;bottom=0;right=0;pointerEvents=1;fontSize=11;" parent="ezA5xPaDT3Ney82vRjZ4-27" vertex="1">
                    <mxGeometry x="580" width="60" height="30" as="geometry">
                        <mxRectangle width="60" height="30" as="alternateBounds"/>
                    </mxGeometry>
                </mxCell>
                <mxCell id="ezA5xPaDT3Ney82vRjZ4-36" style="shape=partialRectangle;html=1;whiteSpace=wrap;connectable=0;overflow=hidden;top=0;left=0;bottom=0;right=0;pointerEvents=1;fontSize=11;" parent="ezA5xPaDT3Ney82vRjZ4-27" vertex="1">
                    <mxGeometry x="640" width="60" height="30" as="geometry">
                        <mxRectangle width="60" height="30" as="alternateBounds"/>
                    </mxGeometry>
                </mxCell>
                <mxCell id="ezA5xPaDT3Ney82vRjZ4-37" style="shape=partialRectangle;collapsible=0;dropTarget=0;pointerEvents=0;fillColor=none;top=0;left=0;bottom=0;right=0;points=[[0,0.5],[1,0.5]];portConstraint=eastwest;fontSize=18;" parent="ezA5xPaDT3Ney82vRjZ4-6" vertex="1">
                    <mxGeometry y="90" width="700" height="30" as="geometry"/>
                </mxCell>
                <mxCell id="ezA5xPaDT3Ney82vRjZ4-38" style="shape=partialRectangle;html=1;whiteSpace=wrap;connectable=0;overflow=hidden;top=0;left=0;bottom=0;right=0;pointerEvents=1;fontSize=11;" parent="ezA5xPaDT3Ney82vRjZ4-37" vertex="1">
                    <mxGeometry width="140" height="30" as="geometry">
                        <mxRectangle width="140" height="30" as="alternateBounds"/>
                    </mxGeometry>
                </mxCell>
                <mxCell id="ezA5xPaDT3Ney82vRjZ4-39" style="shape=partialRectangle;html=1;whiteSpace=wrap;connectable=0;overflow=hidden;top=0;left=0;bottom=0;right=0;pointerEvents=1;fontSize=11;" parent="ezA5xPaDT3Ney82vRjZ4-37" vertex="1">
                    <mxGeometry x="140" width="140" height="30" as="geometry">
                        <mxRectangle width="140" height="30" as="alternateBounds"/>
                    </mxGeometry>
                </mxCell>
                <mxCell id="ezA5xPaDT3Ney82vRjZ4-40" style="shape=partialRectangle;html=1;whiteSpace=wrap;connectable=0;overflow=hidden;top=0;left=0;bottom=0;right=0;pointerEvents=1;fontSize=11;" parent="ezA5xPaDT3Ney82vRjZ4-37" vertex="1">
                    <mxGeometry x="280" width="60" height="30" as="geometry">
                        <mxRectangle width="60" height="30" as="alternateBounds"/>
                    </mxGeometry>
                </mxCell>
                <mxCell id="ezA5xPaDT3Ney82vRjZ4-41" style="shape=partialRectangle;html=1;whiteSpace=wrap;connectable=0;overflow=hidden;top=0;left=0;bottom=0;right=0;pointerEvents=1;fontSize=11;" parent="ezA5xPaDT3Ney82vRjZ4-37" vertex="1">
                    <mxGeometry x="340" width="60" height="30" as="geometry">
                        <mxRectangle width="60" height="30" as="alternateBounds"/>
                    </mxGeometry>
                </mxCell>
                <mxCell id="ezA5xPaDT3Ney82vRjZ4-42" style="shape=partialRectangle;html=1;whiteSpace=wrap;connectable=0;overflow=hidden;top=0;left=0;bottom=0;right=0;pointerEvents=1;fontSize=11;" parent="ezA5xPaDT3Ney82vRjZ4-37" vertex="1">
                    <mxGeometry x="400" width="60" height="30" as="geometry">
                        <mxRectangle width="60" height="30" as="alternateBounds"/>
                    </mxGeometry>
                </mxCell>
                <mxCell id="ezA5xPaDT3Ney82vRjZ4-43" style="shape=partialRectangle;html=1;whiteSpace=wrap;connectable=0;overflow=hidden;top=0;left=0;bottom=0;right=0;pointerEvents=1;fontSize=11;" parent="ezA5xPaDT3Ney82vRjZ4-37" vertex="1">
                    <mxGeometry x="460" width="60" height="30" as="geometry">
                        <mxRectangle width="60" height="30" as="alternateBounds"/>
                    </mxGeometry>
                </mxCell>
                <mxCell id="ezA5xPaDT3Ney82vRjZ4-44" style="shape=partialRectangle;html=1;whiteSpace=wrap;connectable=0;overflow=hidden;top=0;left=0;bottom=0;right=0;pointerEvents=1;fontSize=11;" parent="ezA5xPaDT3Ney82vRjZ4-37" vertex="1">
                    <mxGeometry x="520" width="60" height="30" as="geometry">
                        <mxRectangle width="60" height="30" as="alternateBounds"/>
                    </mxGeometry>
                </mxCell>
                <mxCell id="ezA5xPaDT3Ney82vRjZ4-45" style="shape=partialRectangle;html=1;whiteSpace=wrap;connectable=0;overflow=hidden;top=0;left=0;bottom=0;right=0;pointerEvents=1;fontSize=11;" parent="ezA5xPaDT3Ney82vRjZ4-37" vertex="1">
                    <mxGeometry x="580" width="60" height="30" as="geometry">
                        <mxRectangle width="60" height="30" as="alternateBounds"/>
                    </mxGeometry>
                </mxCell>
                <mxCell id="ezA5xPaDT3Ney82vRjZ4-46" style="shape=partialRectangle;html=1;whiteSpace=wrap;connectable=0;overflow=hidden;top=0;left=0;bottom=0;right=0;pointerEvents=1;fontSize=11;" parent="ezA5xPaDT3Ney82vRjZ4-37" vertex="1">
                    <mxGeometry x="640" width="60" height="30" as="geometry">
                        <mxRectangle width="60" height="30" as="alternateBounds"/>
                    </mxGeometry>
                </mxCell>
                <mxCell id="ezA5xPaDT3Ney82vRjZ4-47" style="shape=partialRectangle;collapsible=0;dropTarget=0;pointerEvents=0;fillColor=none;top=0;left=0;bottom=0;right=0;points=[[0,0.5],[1,0.5]];portConstraint=eastwest;fontSize=18;" parent="ezA5xPaDT3Ney82vRjZ4-6" vertex="1">
                    <mxGeometry y="120" width="700" height="30" as="geometry"/>
                </mxCell>
                <mxCell id="ezA5xPaDT3Ney82vRjZ4-48" style="shape=partialRectangle;html=1;whiteSpace=wrap;connectable=0;overflow=hidden;top=0;left=0;bottom=0;right=0;pointerEvents=1;fontSize=11;" parent="ezA5xPaDT3Ney82vRjZ4-47" vertex="1">
                    <mxGeometry width="140" height="30" as="geometry">
                        <mxRectangle width="140" height="30" as="alternateBounds"/>
                    </mxGeometry>
                </mxCell>
                <mxCell id="ezA5xPaDT3Ney82vRjZ4-49" style="shape=partialRectangle;html=1;whiteSpace=wrap;connectable=0;overflow=hidden;top=0;left=0;bottom=0;right=0;pointerEvents=1;fontSize=11;" parent="ezA5xPaDT3Ney82vRjZ4-47" vertex="1">
                    <mxGeometry x="140" width="140" height="30" as="geometry">
                        <mxRectangle width="140" height="30" as="alternateBounds"/>
                    </mxGeometry>
                </mxCell>
                <mxCell id="ezA5xPaDT3Ney82vRjZ4-50" style="shape=partialRectangle;html=1;whiteSpace=wrap;connectable=0;overflow=hidden;top=0;left=0;bottom=0;right=0;pointerEvents=1;fontSize=11;" parent="ezA5xPaDT3Ney82vRjZ4-47" vertex="1">
                    <mxGeometry x="280" width="60" height="30" as="geometry">
                        <mxRectangle width="60" height="30" as="alternateBounds"/>
                    </mxGeometry>
                </mxCell>
                <mxCell id="ezA5xPaDT3Ney82vRjZ4-51" style="shape=partialRectangle;html=1;whiteSpace=wrap;connectable=0;overflow=hidden;top=0;left=0;bottom=0;right=0;pointerEvents=1;fontSize=11;" parent="ezA5xPaDT3Ney82vRjZ4-47" vertex="1">
                    <mxGeometry x="340" width="60" height="30" as="geometry">
                        <mxRectangle width="60" height="30" as="alternateBounds"/>
                    </mxGeometry>
                </mxCell>
                <mxCell id="ezA5xPaDT3Ney82vRjZ4-52" style="shape=partialRectangle;html=1;whiteSpace=wrap;connectable=0;overflow=hidden;top=0;left=0;bottom=0;right=0;pointerEvents=1;fontSize=11;" parent="ezA5xPaDT3Ney82vRjZ4-47" vertex="1">
                    <mxGeometry x="400" width="60" height="30" as="geometry">
                        <mxRectangle width="60" height="30" as="alternateBounds"/>
                    </mxGeometry>
                </mxCell>
                <mxCell id="ezA5xPaDT3Ney82vRjZ4-53" style="shape=partialRectangle;html=1;whiteSpace=wrap;connectable=0;overflow=hidden;top=0;left=0;bottom=0;right=0;pointerEvents=1;fontSize=11;" parent="ezA5xPaDT3Ney82vRjZ4-47" vertex="1">
                    <mxGeometry x="460" width="60" height="30" as="geometry">
                        <mxRectangle width="60" height="30" as="alternateBounds"/>
                    </mxGeometry>
                </mxCell>
                <mxCell id="ezA5xPaDT3Ney82vRjZ4-54" style="shape=partialRectangle;html=1;whiteSpace=wrap;connectable=0;overflow=hidden;top=0;left=0;bottom=0;right=0;pointerEvents=1;fontSize=11;" parent="ezA5xPaDT3Ney82vRjZ4-47" vertex="1">
                    <mxGeometry x="520" width="60" height="30" as="geometry">
                        <mxRectangle width="60" height="30" as="alternateBounds"/>
                    </mxGeometry>
                </mxCell>
                <mxCell id="ezA5xPaDT3Ney82vRjZ4-55" style="shape=partialRectangle;html=1;whiteSpace=wrap;connectable=0;overflow=hidden;top=0;left=0;bottom=0;right=0;pointerEvents=1;fontSize=11;" parent="ezA5xPaDT3Ney82vRjZ4-47" vertex="1">
                    <mxGeometry x="580" width="60" height="30" as="geometry">
                        <mxRectangle width="60" height="30" as="alternateBounds"/>
                    </mxGeometry>
                </mxCell>
                <mxCell id="ezA5xPaDT3Ney82vRjZ4-56" style="shape=partialRectangle;html=1;whiteSpace=wrap;connectable=0;overflow=hidden;top=0;left=0;bottom=0;right=0;pointerEvents=1;fontSize=11;" parent="ezA5xPaDT3Ney82vRjZ4-47" vertex="1">
                    <mxGeometry x="640" width="60" height="30" as="geometry">
                        <mxRectangle width="60" height="30" as="alternateBounds"/>
                    </mxGeometry>
                </mxCell>
                <mxCell id="ezA5xPaDT3Ney82vRjZ4-57" style="shape=partialRectangle;collapsible=0;dropTarget=0;pointerEvents=0;fillColor=none;top=0;left=0;bottom=0;right=0;points=[[0,0.5],[1,0.5]];portConstraint=eastwest;fontSize=18;" parent="ezA5xPaDT3Ney82vRjZ4-6" vertex="1">
                    <mxGeometry y="150" width="700" height="30" as="geometry"/>
                </mxCell>
                <mxCell id="ezA5xPaDT3Ney82vRjZ4-58" style="shape=partialRectangle;html=1;whiteSpace=wrap;connectable=0;overflow=hidden;top=0;left=0;bottom=0;right=0;pointerEvents=1;fontSize=11;" parent="ezA5xPaDT3Ney82vRjZ4-57" vertex="1">
                    <mxGeometry width="140" height="30" as="geometry">
                        <mxRectangle width="140" height="30" as="alternateBounds"/>
                    </mxGeometry>
                </mxCell>
                <mxCell id="ezA5xPaDT3Ney82vRjZ4-59" style="shape=partialRectangle;html=1;whiteSpace=wrap;connectable=0;overflow=hidden;top=0;left=0;bottom=0;right=0;pointerEvents=1;fontSize=11;" parent="ezA5xPaDT3Ney82vRjZ4-57" vertex="1">
                    <mxGeometry x="140" width="140" height="30" as="geometry">
                        <mxRectangle width="140" height="30" as="alternateBounds"/>
                    </mxGeometry>
                </mxCell>
                <mxCell id="ezA5xPaDT3Ney82vRjZ4-60" style="shape=partialRectangle;html=1;whiteSpace=wrap;connectable=0;overflow=hidden;top=0;left=0;bottom=0;right=0;pointerEvents=1;fontSize=11;" parent="ezA5xPaDT3Ney82vRjZ4-57" vertex="1">
                    <mxGeometry x="280" width="60" height="30" as="geometry">
                        <mxRectangle width="60" height="30" as="alternateBounds"/>
                    </mxGeometry>
                </mxCell>
                <mxCell id="ezA5xPaDT3Ney82vRjZ4-61" style="shape=partialRectangle;html=1;whiteSpace=wrap;connectable=0;overflow=hidden;top=0;left=0;bottom=0;right=0;pointerEvents=1;fontSize=11;" parent="ezA5xPaDT3Ney82vRjZ4-57" vertex="1">
                    <mxGeometry x="340" width="60" height="30" as="geometry">
                        <mxRectangle width="60" height="30" as="alternateBounds"/>
                    </mxGeometry>
                </mxCell>
                <mxCell id="ezA5xPaDT3Ney82vRjZ4-62" style="shape=partialRectangle;html=1;whiteSpace=wrap;connectable=0;overflow=hidden;top=0;left=0;bottom=0;right=0;pointerEvents=1;fontSize=11;" parent="ezA5xPaDT3Ney82vRjZ4-57" vertex="1">
                    <mxGeometry x="400" width="60" height="30" as="geometry">
                        <mxRectangle width="60" height="30" as="alternateBounds"/>
                    </mxGeometry>
                </mxCell>
                <mxCell id="ezA5xPaDT3Ney82vRjZ4-63" style="shape=partialRectangle;html=1;whiteSpace=wrap;connectable=0;overflow=hidden;top=0;left=0;bottom=0;right=0;pointerEvents=1;fontSize=11;" parent="ezA5xPaDT3Ney82vRjZ4-57" vertex="1">
                    <mxGeometry x="460" width="60" height="30" as="geometry">
                        <mxRectangle width="60" height="30" as="alternateBounds"/>
                    </mxGeometry>
                </mxCell>
                <mxCell id="ezA5xPaDT3Ney82vRjZ4-64" style="shape=partialRectangle;html=1;whiteSpace=wrap;connectable=0;overflow=hidden;top=0;left=0;bottom=0;right=0;pointerEvents=1;fontSize=11;" parent="ezA5xPaDT3Ney82vRjZ4-57" vertex="1">
                    <mxGeometry x="520" width="60" height="30" as="geometry">
                        <mxRectangle width="60" height="30" as="alternateBounds"/>
                    </mxGeometry>
                </mxCell>
                <mxCell id="ezA5xPaDT3Ney82vRjZ4-65" style="shape=partialRectangle;html=1;whiteSpace=wrap;connectable=0;overflow=hidden;top=0;left=0;bottom=0;right=0;pointerEvents=1;fontSize=11;" parent="ezA5xPaDT3Ney82vRjZ4-57" vertex="1">
                    <mxGeometry x="580" width="60" height="30" as="geometry">
                        <mxRectangle width="60" height="30" as="alternateBounds"/>
                    </mxGeometry>
                </mxCell>
                <mxCell id="ezA5xPaDT3Ney82vRjZ4-66" style="shape=partialRectangle;html=1;whiteSpace=wrap;connectable=0;overflow=hidden;top=0;left=0;bottom=0;right=0;pointerEvents=1;fontSize=11;" parent="ezA5xPaDT3Ney82vRjZ4-57" vertex="1">
                    <mxGeometry x="640" width="60" height="30" as="geometry">
                        <mxRectangle width="60" height="30" as="alternateBounds"/>
                    </mxGeometry>
                </mxCell>
                <mxCell id="ezA5xPaDT3Ney82vRjZ4-67" style="shape=partialRectangle;collapsible=0;dropTarget=0;pointerEvents=0;fillColor=none;top=0;left=0;bottom=0;right=0;points=[[0,0.5],[1,0.5]];portConstraint=eastwest;fontSize=18;" parent="ezA5xPaDT3Ney82vRjZ4-6" vertex="1">
                    <mxGeometry y="180" width="700" height="30" as="geometry"/>
                </mxCell>
                <mxCell id="ezA5xPaDT3Ney82vRjZ4-68" style="shape=partialRectangle;html=1;whiteSpace=wrap;connectable=0;overflow=hidden;top=0;left=0;bottom=0;right=0;pointerEvents=1;fontSize=11;" parent="ezA5xPaDT3Ney82vRjZ4-67" vertex="1">
                    <mxGeometry width="140" height="30" as="geometry">
                        <mxRectangle width="140" height="30" as="alternateBounds"/>
                    </mxGeometry>
                </mxCell>
                <mxCell id="ezA5xPaDT3Ney82vRjZ4-69" style="shape=partialRectangle;html=1;whiteSpace=wrap;connectable=0;overflow=hidden;top=0;left=0;bottom=0;right=0;pointerEvents=1;fontSize=11;" parent="ezA5xPaDT3Ney82vRjZ4-67" vertex="1">
                    <mxGeometry x="140" width="140" height="30" as="geometry">
                        <mxRectangle width="140" height="30" as="alternateBounds"/>
                    </mxGeometry>
                </mxCell>
                <mxCell id="ezA5xPaDT3Ney82vRjZ4-70" style="shape=partialRectangle;html=1;whiteSpace=wrap;connectable=0;overflow=hidden;top=0;left=0;bottom=0;right=0;pointerEvents=1;fontSize=11;" parent="ezA5xPaDT3Ney82vRjZ4-67" vertex="1">
                    <mxGeometry x="280" width="60" height="30" as="geometry">
                        <mxRectangle width="60" height="30" as="alternateBounds"/>
                    </mxGeometry>
                </mxCell>
                <mxCell id="ezA5xPaDT3Ney82vRjZ4-71" style="shape=partialRectangle;html=1;whiteSpace=wrap;connectable=0;overflow=hidden;top=0;left=0;bottom=0;right=0;pointerEvents=1;fontSize=11;" parent="ezA5xPaDT3Ney82vRjZ4-67" vertex="1">
                    <mxGeometry x="340" width="60" height="30" as="geometry">
                        <mxRectangle width="60" height="30" as="alternateBounds"/>
                    </mxGeometry>
                </mxCell>
                <mxCell id="ezA5xPaDT3Ney82vRjZ4-72" style="shape=partialRectangle;html=1;whiteSpace=wrap;connectable=0;overflow=hidden;top=0;left=0;bottom=0;right=0;pointerEvents=1;fontSize=11;" parent="ezA5xPaDT3Ney82vRjZ4-67" vertex="1">
                    <mxGeometry x="400" width="60" height="30" as="geometry">
                        <mxRectangle width="60" height="30" as="alternateBounds"/>
                    </mxGeometry>
                </mxCell>
                <mxCell id="ezA5xPaDT3Ney82vRjZ4-73" style="shape=partialRectangle;html=1;whiteSpace=wrap;connectable=0;overflow=hidden;top=0;left=0;bottom=0;right=0;pointerEvents=1;fontSize=11;" parent="ezA5xPaDT3Ney82vRjZ4-67" vertex="1">
                    <mxGeometry x="460" width="60" height="30" as="geometry">
                        <mxRectangle width="60" height="30" as="alternateBounds"/>
                    </mxGeometry>
                </mxCell>
                <mxCell id="ezA5xPaDT3Ney82vRjZ4-74" style="shape=partialRectangle;html=1;whiteSpace=wrap;connectable=0;overflow=hidden;top=0;left=0;bottom=0;right=0;pointerEvents=1;fontSize=11;" parent="ezA5xPaDT3Ney82vRjZ4-67" vertex="1">
                    <mxGeometry x="520" width="60" height="30" as="geometry">
                        <mxRectangle width="60" height="30" as="alternateBounds"/>
                    </mxGeometry>
                </mxCell>
                <mxCell id="ezA5xPaDT3Ney82vRjZ4-75" style="shape=partialRectangle;html=1;whiteSpace=wrap;connectable=0;overflow=hidden;top=0;left=0;bottom=0;right=0;pointerEvents=1;fontSize=11;" parent="ezA5xPaDT3Ney82vRjZ4-67" vertex="1">
                    <mxGeometry x="580" width="60" height="30" as="geometry">
                        <mxRectangle width="60" height="30" as="alternateBounds"/>
                    </mxGeometry>
                </mxCell>
                <mxCell id="ezA5xPaDT3Ney82vRjZ4-76" style="shape=partialRectangle;html=1;whiteSpace=wrap;connectable=0;overflow=hidden;top=0;left=0;bottom=0;right=0;pointerEvents=1;fontSize=11;" parent="ezA5xPaDT3Ney82vRjZ4-67" vertex="1">
                    <mxGeometry x="640" width="60" height="30" as="geometry">
                        <mxRectangle width="60" height="30" as="alternateBounds"/>
                    </mxGeometry>
                </mxCell>
                <mxCell id="ezA5xPaDT3Ney82vRjZ4-77" style="shape=partialRectangle;collapsible=0;dropTarget=0;pointerEvents=0;fillColor=none;top=0;left=0;bottom=0;right=0;points=[[0,0.5],[1,0.5]];portConstraint=eastwest;fontSize=18;" parent="ezA5xPaDT3Ney82vRjZ4-6" vertex="1">
                    <mxGeometry y="210" width="700" height="30" as="geometry"/>
                </mxCell>
                <mxCell id="ezA5xPaDT3Ney82vRjZ4-78" style="shape=partialRectangle;html=1;whiteSpace=wrap;connectable=0;overflow=hidden;top=0;left=0;bottom=0;right=0;pointerEvents=1;fontSize=11;" parent="ezA5xPaDT3Ney82vRjZ4-77" vertex="1">
                    <mxGeometry width="140" height="30" as="geometry">
                        <mxRectangle width="140" height="30" as="alternateBounds"/>
                    </mxGeometry>
                </mxCell>
                <mxCell id="ezA5xPaDT3Ney82vRjZ4-79" style="shape=partialRectangle;html=1;whiteSpace=wrap;connectable=0;overflow=hidden;top=0;left=0;bottom=0;right=0;pointerEvents=1;fontSize=11;" parent="ezA5xPaDT3Ney82vRjZ4-77" vertex="1">
                    <mxGeometry x="140" width="140" height="30" as="geometry">
                        <mxRectangle width="140" height="30" as="alternateBounds"/>
                    </mxGeometry>
                </mxCell>
                <mxCell id="ezA5xPaDT3Ney82vRjZ4-80" style="shape=partialRectangle;html=1;whiteSpace=wrap;connectable=0;overflow=hidden;top=0;left=0;bottom=0;right=0;pointerEvents=1;fontSize=11;" parent="ezA5xPaDT3Ney82vRjZ4-77" vertex="1">
                    <mxGeometry x="280" width="60" height="30" as="geometry">
                        <mxRectangle width="60" height="30" as="alternateBounds"/>
                    </mxGeometry>
                </mxCell>
                <mxCell id="ezA5xPaDT3Ney82vRjZ4-81" style="shape=partialRectangle;html=1;whiteSpace=wrap;connectable=0;overflow=hidden;top=0;left=0;bottom=0;right=0;pointerEvents=1;fontSize=11;" parent="ezA5xPaDT3Ney82vRjZ4-77" vertex="1">
                    <mxGeometry x="340" width="60" height="30" as="geometry">
                        <mxRectangle width="60" height="30" as="alternateBounds"/>
                    </mxGeometry>
                </mxCell>
                <mxCell id="ezA5xPaDT3Ney82vRjZ4-82" style="shape=partialRectangle;html=1;whiteSpace=wrap;connectable=0;overflow=hidden;top=0;left=0;bottom=0;right=0;pointerEvents=1;fontSize=11;" parent="ezA5xPaDT3Ney82vRjZ4-77" vertex="1">
                    <mxGeometry x="400" width="60" height="30" as="geometry">
                        <mxRectangle width="60" height="30" as="alternateBounds"/>
                    </mxGeometry>
                </mxCell>
                <mxCell id="ezA5xPaDT3Ney82vRjZ4-83" style="shape=partialRectangle;html=1;whiteSpace=wrap;connectable=0;overflow=hidden;top=0;left=0;bottom=0;right=0;pointerEvents=1;fontSize=11;" parent="ezA5xPaDT3Ney82vRjZ4-77" vertex="1">
                    <mxGeometry x="460" width="60" height="30" as="geometry">
                        <mxRectangle width="60" height="30" as="alternateBounds"/>
                    </mxGeometry>
                </mxCell>
                <mxCell id="ezA5xPaDT3Ney82vRjZ4-84" style="shape=partialRectangle;html=1;whiteSpace=wrap;connectable=0;overflow=hidden;top=0;left=0;bottom=0;right=0;pointerEvents=1;fontSize=11;" parent="ezA5xPaDT3Ney82vRjZ4-77" vertex="1">
                    <mxGeometry x="520" width="60" height="30" as="geometry">
                        <mxRectangle width="60" height="30" as="alternateBounds"/>
                    </mxGeometry>
                </mxCell>
                <mxCell id="ezA5xPaDT3Ney82vRjZ4-85" style="shape=partialRectangle;html=1;whiteSpace=wrap;connectable=0;overflow=hidden;top=0;left=0;bottom=0;right=0;pointerEvents=1;fontSize=11;" parent="ezA5xPaDT3Ney82vRjZ4-77" vertex="1">
                    <mxGeometry x="580" width="60" height="30" as="geometry">
                        <mxRectangle width="60" height="30" as="alternateBounds"/>
                    </mxGeometry>
                </mxCell>
                <mxCell id="ezA5xPaDT3Ney82vRjZ4-86" style="shape=partialRectangle;html=1;whiteSpace=wrap;connectable=0;overflow=hidden;top=0;left=0;bottom=0;right=0;pointerEvents=1;fontSize=11;" parent="ezA5xPaDT3Ney82vRjZ4-77" vertex="1">
                    <mxGeometry x="640" width="60" height="30" as="geometry">
                        <mxRectangle width="60" height="30" as="alternateBounds"/>
                    </mxGeometry>
                </mxCell>
                <mxCell id="ezA5xPaDT3Ney82vRjZ4-87" style="shape=partialRectangle;collapsible=0;dropTarget=0;pointerEvents=0;fillColor=none;top=0;left=0;bottom=0;right=0;points=[[0,0.5],[1,0.5]];portConstraint=eastwest;fontSize=18;" parent="ezA5xPaDT3Ney82vRjZ4-6" vertex="1">
                    <mxGeometry y="240" width="700" height="30" as="geometry"/>
                </mxCell>
                <mxCell id="ezA5xPaDT3Ney82vRjZ4-88" style="shape=partialRectangle;html=1;whiteSpace=wrap;connectable=0;overflow=hidden;top=0;left=0;bottom=0;right=0;pointerEvents=1;fontSize=11;" parent="ezA5xPaDT3Ney82vRjZ4-87" vertex="1">
                    <mxGeometry width="140" height="30" as="geometry">
                        <mxRectangle width="140" height="30" as="alternateBounds"/>
                    </mxGeometry>
                </mxCell>
                <mxCell id="ezA5xPaDT3Ney82vRjZ4-89" style="shape=partialRectangle;html=1;whiteSpace=wrap;connectable=0;overflow=hidden;top=0;left=0;bottom=0;right=0;pointerEvents=1;fontSize=11;" parent="ezA5xPaDT3Ney82vRjZ4-87" vertex="1">
                    <mxGeometry x="140" width="140" height="30" as="geometry">
                        <mxRectangle width="140" height="30" as="alternateBounds"/>
                    </mxGeometry>
                </mxCell>
                <mxCell id="ezA5xPaDT3Ney82vRjZ4-90" style="shape=partialRectangle;html=1;whiteSpace=wrap;connectable=0;overflow=hidden;top=0;left=0;bottom=0;right=0;pointerEvents=1;fontSize=11;" parent="ezA5xPaDT3Ney82vRjZ4-87" vertex="1">
                    <mxGeometry x="280" width="60" height="30" as="geometry">
                        <mxRectangle width="60" height="30" as="alternateBounds"/>
                    </mxGeometry>
                </mxCell>
                <mxCell id="ezA5xPaDT3Ney82vRjZ4-91" style="shape=partialRectangle;html=1;whiteSpace=wrap;connectable=0;overflow=hidden;top=0;left=0;bottom=0;right=0;pointerEvents=1;fontSize=11;" parent="ezA5xPaDT3Ney82vRjZ4-87" vertex="1">
                    <mxGeometry x="340" width="60" height="30" as="geometry">
                        <mxRectangle width="60" height="30" as="alternateBounds"/>
                    </mxGeometry>
                </mxCell>
                <mxCell id="ezA5xPaDT3Ney82vRjZ4-92" style="shape=partialRectangle;html=1;whiteSpace=wrap;connectable=0;overflow=hidden;top=0;left=0;bottom=0;right=0;pointerEvents=1;fontSize=11;" parent="ezA5xPaDT3Ney82vRjZ4-87" vertex="1">
                    <mxGeometry x="400" width="60" height="30" as="geometry">
                        <mxRectangle width="60" height="30" as="alternateBounds"/>
                    </mxGeometry>
                </mxCell>
                <mxCell id="ezA5xPaDT3Ney82vRjZ4-93" style="shape=partialRectangle;html=1;whiteSpace=wrap;connectable=0;overflow=hidden;top=0;left=0;bottom=0;right=0;pointerEvents=1;fontSize=11;" parent="ezA5xPaDT3Ney82vRjZ4-87" vertex="1">
                    <mxGeometry x="460" width="60" height="30" as="geometry">
                        <mxRectangle width="60" height="30" as="alternateBounds"/>
                    </mxGeometry>
                </mxCell>
                <mxCell id="ezA5xPaDT3Ney82vRjZ4-94" style="shape=partialRectangle;html=1;whiteSpace=wrap;connectable=0;overflow=hidden;top=0;left=0;bottom=0;right=0;pointerEvents=1;fontSize=11;" parent="ezA5xPaDT3Ney82vRjZ4-87" vertex="1">
                    <mxGeometry x="520" width="60" height="30" as="geometry">
                        <mxRectangle width="60" height="30" as="alternateBounds"/>
                    </mxGeometry>
                </mxCell>
                <mxCell id="ezA5xPaDT3Ney82vRjZ4-95" style="shape=partialRectangle;html=1;whiteSpace=wrap;connectable=0;overflow=hidden;top=0;left=0;bottom=0;right=0;pointerEvents=1;fontSize=11;" parent="ezA5xPaDT3Ney82vRjZ4-87" vertex="1">
                    <mxGeometry x="580" width="60" height="30" as="geometry">
                        <mxRectangle width="60" height="30" as="alternateBounds"/>
                    </mxGeometry>
                </mxCell>
                <mxCell id="ezA5xPaDT3Ney82vRjZ4-96" style="shape=partialRectangle;html=1;whiteSpace=wrap;connectable=0;overflow=hidden;top=0;left=0;bottom=0;right=0;pointerEvents=1;fontSize=11;" parent="ezA5xPaDT3Ney82vRjZ4-87" vertex="1">
                    <mxGeometry x="640" width="60" height="30" as="geometry">
                        <mxRectangle width="60" height="30" as="alternateBounds"/>
                    </mxGeometry>
                </mxCell>
                <mxCell id="ezA5xPaDT3Ney82vRjZ4-97" value="検索" style="rounded=1;whiteSpace=wrap;html=1;align=center;labelBackgroundColor=none;fillColor=#d5e8d4;strokeColor=#82b366;" parent="7On1TKgl6tuQwjvSteoj-0" vertex="1">
                    <mxGeometry x="1490" y="403" width="50" height="34" as="geometry"/>
                </mxCell>
                <mxCell id="ezA5xPaDT3Ney82vRjZ4-98" value="×" style="text;html=1;strokeColor=none;fillColor=none;align=center;verticalAlign=middle;whiteSpace=wrap;rounded=0;fontSize=11;" parent="7On1TKgl6tuQwjvSteoj-0" vertex="1">
                    <mxGeometry x="1290" y="405" width="30" height="30" as="geometry"/>
                </mxCell>
                <mxCell id="ezA5xPaDT3Ney82vRjZ4-99" value="在庫に限定する" style="html=1;shadow=0;dashed=0;shape=mxgraph.bootstrap.radioButton2;labelPosition=right;verticalLabelPosition=middle;align=left;verticalAlign=middle;gradientColor=#DEDEDE;fillColor=#EDEDED;checked=0;spacing=5;checkedFill=#0085FC;checkedStroke=#ffffff;fontSize=11;" parent="7On1TKgl6tuQwjvSteoj-0" vertex="1">
                    <mxGeometry x="1560" y="415" width="10" height="10" as="geometry"/>
                </mxCell>
                <mxCell id="ezA5xPaDT3Ney82vRjZ4-100" value="" style="shape=image;verticalLabelPosition=bottom;labelBackgroundColor=#ffffff;verticalAlign=top;aspect=fixed;imageAspect=0;image=data:image/png,iVBORw0KGgoAAAANSUhEUgAAAIIAAAAlCAYAAACOGjGrAAAJR0lEQVR4Ae2bZagVbRDHrwFioBgfxAAFFQNEPwiKBdYXERMDRVFEsUFFxW7EQOxWFAxUsDExsQu7u7s75uU3MNd9lz1nd48Xz7nnnoV1z90npv7PzDzzrGlfvnyR1J3SQVoKBCkQgIEUEFIeUSNCCggpIKSAkAqLf8JiKI/w7ds3sev79+9/lWR+/frVppIgc9H/x48f6WOcP37//h2IF+b4+fOnDv3161egMf8KLPCGHFxB9UFf5GDs3/IZCgjv37+XCxcuyN69e+X58+cxE4fxd+/eydGjR+XEiRPy+PFj+fTpU0SBACDKefLkiaxfv15mzZolU6ZMkWnTpunfly9fVgPTL5JCaIPmnTt35ODBg8KYSH3j8f7t27dy8eJF2b17t8oZjQfT35kzZ+TevXvpwI4mf7T5aAsEBEPorVu3ZNKkSdKmTRsFBBOERSP9me/p06cyYMAAGTZsmBw7dkwAmdFxM42A9N+0aZPUrl1b8ufPL2lpaZIzZ06pWbOmAgNgfv78OSI/eBMAt23bNunatassWrQoIYBg+nvw4IHMnTtXWrZsKcePH1ferM2pD96hj0ePHsm4ceNk6dKlcvfuXXnz5k1U+Z1zeP32BYK5UmC3YcMG6dSpkzRv3lyBAFNezHoRsnf0NyAMGjRIRo4cqYJ7AYG+GBcjs/obNWqkytq3b5+cP39eTp8+LVOnTpWePXvKmDFj5ObNm+oZjJbzCRDwKNu3b5fu3bvLkiVLEgoIDx8+lPnz50vr1q3l5MmTUYGA/gACuqtWrZpUqVJF9cMcsYaLiEAAdRgC98Pq6dWrl9SoUUMqVaqkzOLGaOd2KtzvN/0NCEOGDJHRo0drePACAv0IGUeOHJEePXpIvXr15NSpUyqs/YPShg8fLk2bNpUDBw7Ix48fPXkyIOzYsUPnWrZsWSi+/eSKtd30hxEXLFgg7dq1CwWEEiVKqHesWrWqdO7cWcFE2LN8Kmi4iAgEjMAkW7Zskfbt20uhQoXUJZcqVUqZ/VdAwLC7du3SkERYYlUjpCnwxYsXsnjxYqlfv75s3LhR+NtL+GQEwqhRo6RixYoKBEIld+HChTVkkH+hCzyqLepoYI0IBBtEgvXy5Uu5f/++rriBAwdKs2bNMiQ0+HkE4wFv8fr1a70RjPcGhGfPnsnChQulYcOGmkNkNSBUqFDhf0AADHnz5pVy5cpp6CAvYhEQ4k2fXk9fIJiLwRWTLBKLccPEaIxhBvGa3Osd/YOGBhtPf7ZJbK+MHu8Q7vr16zJx4kSpW7euZtwfPnzIUh7BCYRs2bL9DxSlS5dW7z179mzVEzZEh14e0xcIGIOBxGqMb/H4XwLBAGFP+AEIeCsy7Q4dOki3bt3k3Llz+t7AYv15JmtocALBwoP7WblyZRkxYoQcOnRIPTvh1g2GTAkEjMq+G8HKly+vWfPhw4f1HW1OANjvrAwE8xTFihUTvAO1FHcRLlMBgZVOOCBPYCvLamjQoIFmygCDdi9vkFU9ggHA6SHYXSxfvlzzPvRi+so0QMCVcZMDrFq1SmsZZcuW1WISOwlyCLe7M2+QVYFgAChSpIhu/dmaUkPZvHmz7igyJRDICdg5UCuoVauW4OZWrlypFUeSIKfRvX5ntdBg3qBgwYLStm1b2blzp5ZeCAnowjyB6SpTeATCAVtIqoIlS5bU7SvlZraOCBTNE5igWQEIZnw8AeV3tvnUga5evar5E3pED1768gUCA+26ffu2FitatWqlCYe9Z7Wawv2eGI7+nB341REMtWS5gKBPnz7SokULLRwZbefT6yQOWqwC2gghYSuLjONyryKUybxcbvlNZ7TTz2ofXroxGWOpLFJQcu8aAACleHSLF4A2F3J40bd3vkB49eqVbjk4ddy6dWt6qZfDG5DG6RfbuGjCGjGeYYCAEtm2QofzhDJlyughy9mzZ+XGjRty6dIlvalyUlblTIL+Tnp4EjwH7wBfGCAgE2PJstEDc5vhyFWYjzYSVaNJO305C6CYA30bY32cT2uLFQgUjvAA+fLlkwIFCmhhDTuxeLi8Vr+Tvv2OCARQzk3ZFg+QK1cudTeWgIC8okWLasGC8wgEdq8MI+J8Ijj9gngEXBkK54StevXqKnCOHDkkd+7ckidPnvQ7e/bsQiyk1IzymR86KAPepk+frgUVTuiCAMGMA222W3ghlGtJKfIATo7Ccb+cFppc8IzOBg8eLGPHjtV+GMSpA+dvoxULEDh0Kl68uOqFcwaOsMmjWJjQCAoC+kYEAgxys+rWrFmjIWHChAnp3wHY77Vr1wpHqCjdhHIK6v5Nn6BAMI+AMVevXq20OW+A9vjx49NvDq54zwEUxmYcN4aD9yZNmujBFYYNAgTjGQ9AzR7aV65c0bkN7ACZOgY7GLwiY0w2dIZb5rsN+hEqbE7303QWFgj0p7jXu3dvmTFjhlBHQT4uwGjzuulF+jsiEGwAk/pdphwbE+1pygriEWwei9N+fBCTmd9oYJDJkyfrNwt8jIJhwwAB+pYHuJUL0Oxyy+/UGf2ihU0zWBggMIYwSD0AANgF4KLRMn16PX2B4DXob96ZkcIAISw9aGCM/fv366rp2LGjhgjCV1gghKUdtn9YIDjnB9ixGt45D7/jBgTcdr9+/TSW4n6D5hhuAbz+ZhXiRdatW6euc+jQoRqrCRtsp/i4ho9AzAhec/yrd8YD4XXmzJkaxvhiC/rW5sULbXgAtzfy6hvk3T8HAkxhKDLrFStWaPy9du2a5hi8D8K0Xx/m4Zo3b55+S8HBFHGcGMqHLYBgz549GULLjxe/djM2rh5vxZdYnKgyztr85siI9rgAwRgHzdwZLbABgay9cePGWlIlFBEuaGMlZRToTJaMeBpvGa2PILwlJRAAFxcZNZ/XUXew0IOSaU8B4c//aQAocQVCEKTG0gcjs/r5ToHTNvIRvEA8Vlos/MdjTNIBwYzNJ2sUwvAIZNZc8VBwZqGZdEDA7RMGKELx0S1gYJtFPSCzGCUefCYdEAgJlFk5nezSpYv07dtXgeB36BIP5ScSzaQDAgZnKzZnzhz9CIPSMx4BgCSS4hONl6QDArkAJ38cw3JsTa2CHIFkMdGUn0j8JCUQKB6RH/Tv319P5AACuUMiKT7ReElKIPD/L+rUqaNegYMngJCIdYNEAsN/qpyiMTVscqAAAAAASUVORK5CYII=;" parent="7On1TKgl6tuQwjvSteoj-0" vertex="1">
                    <mxGeometry x="1417.7" y="740.0000000000001" width="84.6" height="24.08" as="geometry"/>
                </mxCell>
                <mxCell id="ezA5xPaDT3Ney82vRjZ4-101" value="" style="shape=image;verticalLabelPosition=bottom;labelBackgroundColor=#ffffff;verticalAlign=top;aspect=fixed;imageAspect=0;image=data:image/png,iVBORw0KGgoAAAANSUhEUgAAABIAAAARCAYAAADQWvz5AAAAyElEQVQ4EWP4//vLf2pgBmoYAjIDr0F/fnz8n11YAMYgNj5LcRp06+bl/9NnTf/vFRgExiA2SAyXYRgG/fv1+f/7N0//L1y84L+yrgEKBomB5EBq0A3EMOj7l7f/u/t6/7v5+aMYAjIUJAaSA6nBa9Dd29f+L1qy8L93UDCGITDXgeRAakBqkQ1DcdGatav+a5uYE4VBanEa9Pjh7f87d24lCoPU0t4gqnmNaoEN8jNVoh9kENUSJCwmKM4iMINANFUyLbKBxLABH7f1EH+D5ocAAAAASUVORK5CYII=;" parent="7On1TKgl6tuQwjvSteoj-0" vertex="1">
                    <mxGeometry x="1440" y="470" width="10.59" height="10" as="geometry"/>
                </mxCell>
                <mxCell id="ezA5xPaDT3Ney82vRjZ4-102" value="" style="shape=image;verticalLabelPosition=bottom;labelBackgroundColor=#ffffff;verticalAlign=top;aspect=fixed;imageAspect=0;image=data:image/png,iVBORw0KGgoAAAANSUhEUgAAABIAAAARCAYAAADQWvz5AAAAyElEQVQ4EWP4//vLf2pgBmoYAjIDr0F/fnz8n11YAMYgNj5LcRp06+bl/9NnTf/vFRgExiA2SAyXYRgG/fv1+f/7N0//L1y84L+yrgEKBomB5EBq0A3EMOj7l7f/u/t6/7v5+aMYAjIUJAaSA6nBa9Dd29f+L1qy8L93UDCGITDXgeRAakBqkQ1DcdGatav+a5uYE4VBanEa9Pjh7f87d24lCoPU0t4gqnmNaoEN8jNVoh9kENUSJCwmKM4iMINANFUyLbKBxLABH7f1EH+D5ocAAAAASUVORK5CYII=;" parent="7On1TKgl6tuQwjvSteoj-0" vertex="1">
                    <mxGeometry x="1502.3" y="470" width="10.59" height="10" as="geometry"/>
                </mxCell>
                <mxCell id="ezA5xPaDT3Ney82vRjZ4-103" value="" style="shape=image;verticalLabelPosition=bottom;labelBackgroundColor=#ffffff;verticalAlign=top;aspect=fixed;imageAspect=0;image=data:image/png,iVBORw0KGgoAAAANSUhEUgAAABIAAAARCAYAAADQWvz5AAAAyElEQVQ4EWP4//vLf2pgBmoYAjIDr0F/fnz8n11YAMYgNj5LcRp06+bl/9NnTf/vFRgExiA2SAyXYRgG/fv1+f/7N0//L1y84L+yrgEKBomB5EBq0A3EMOj7l7f/u/t6/7v5+aMYAjIUJAaSA6nBa9Dd29f+L1qy8L93UDCGITDXgeRAakBqkQ1DcdGatav+a5uYE4VBanEa9Pjh7f87d24lCoPU0t4gqnmNaoEN8jNVoh9kENUSJCwmKM4iMINANFUyLbKBxLABH7f1EH+D5ocAAAAASUVORK5CYII=;" parent="7On1TKgl6tuQwjvSteoj-0" vertex="1">
                    <mxGeometry x="1559.41" y="470" width="10.59" height="10" as="geometry"/>
                </mxCell>
                <mxCell id="ezA5xPaDT3Ney82vRjZ4-104" value="" style="shape=image;verticalLabelPosition=bottom;labelBackgroundColor=#ffffff;verticalAlign=top;aspect=fixed;imageAspect=0;image=data:image/png,iVBORw0KGgoAAAANSUhEUgAAABIAAAARCAYAAADQWvz5AAAAyElEQVQ4EWP4//vLf2pgBmoYAjIDr0F/fnz8n11YAMYgNj5LcRp06+bl/9NnTf/vFRgExiA2SAyXYRgG/fv1+f/7N0//L1y84L+yrgEKBomB5EBq0A3EMOj7l7f/u/t6/7v5+aMYAjIUJAaSA6nBa9Dd29f+L1qy8L93UDCGITDXgeRAakBqkQ1DcdGatav+a5uYE4VBanEa9Pjh7f87d24lCoPU0t4gqnmNaoEN8jNVoh9kENUSJCwmKM4iMINANFUyLbKBxLABH7f1EH+D5ocAAAAASUVORK5CYII=;" parent="7On1TKgl6tuQwjvSteoj-0" vertex="1">
                    <mxGeometry x="1620" y="470" width="10.59" height="10" as="geometry"/>
                </mxCell>
                <mxCell id="ezA5xPaDT3Ney82vRjZ4-105" value="" style="shape=image;verticalLabelPosition=bottom;labelBackgroundColor=#ffffff;verticalAlign=top;aspect=fixed;imageAspect=0;image=data:image/png,iVBORw0KGgoAAAANSUhEUgAAABIAAAARCAYAAADQWvz5AAAAyElEQVQ4EWP4//vLf2pgBmoYAjIDr0F/fnz8n11YAMYgNj5LcRp06+bl/9NnTf/vFRgExiA2SAyXYRgG/fv1+f/7N0//L1y84L+yrgEKBomB5EBq0A3EMOj7l7f/u/t6/7v5+aMYAjIUJAaSA6nBa9Dd29f+L1qy8L93UDCGITDXgeRAakBqkQ1DcdGatav+a5uYE4VBanEa9Pjh7f87d24lCoPU0t4gqnmNaoEN8jNVoh9kENUSJCwmKM4iMINANFUyLbKBxLABH7f1EH+D5ocAAAAASUVORK5CYII=;" parent="7On1TKgl6tuQwjvSteoj-0" vertex="1">
                    <mxGeometry x="1680" y="470" width="10.59" height="10" as="geometry"/>
                </mxCell>
                <mxCell id="ezA5xPaDT3Ney82vRjZ4-106" value="" style="shape=image;verticalLabelPosition=bottom;labelBackgroundColor=#ffffff;verticalAlign=top;aspect=fixed;imageAspect=0;image=data:image/png,iVBORw0KGgoAAAANSUhEUgAAABIAAAARCAYAAADQWvz5AAAAyElEQVQ4EWP4//vLf2pgBmoYAjIDr0F/fnz8n11YAMYgNj5LcRp06+bl/9NnTf/vFRgExiA2SAyXYRgG/fv1+f/7N0//L1y84L+yrgEKBomB5EBq0A3EMOj7l7f/u/t6/7v5+aMYAjIUJAaSA6nBa9Dd29f+L1qy8L93UDCGITDXgeRAakBqkQ1DcdGatav+a5uYE4VBanEa9Pjh7f87d24lCoPU0t4gqnmNaoEN8jNVoh9kENUSJCwmKM4iMINANFUyLbKBxLABH7f1EH+D5ocAAAAASUVORK5CYII=;" parent="7On1TKgl6tuQwjvSteoj-0" vertex="1">
                    <mxGeometry x="1740" y="470" width="10.59" height="10" as="geometry"/>
                </mxCell>
                <mxCell id="ezA5xPaDT3Ney82vRjZ4-107" value="" style="shape=image;verticalLabelPosition=bottom;labelBackgroundColor=#ffffff;verticalAlign=top;aspect=fixed;imageAspect=0;image=data:image/png,iVBORw0KGgoAAAANSUhEUgAAABIAAAARCAYAAADQWvz5AAAAyElEQVQ4EWP4//vLf2pgBmoYAjIDr0F/fnz8n11YAMYgNj5LcRp06+bl/9NnTf/vFRgExiA2SAyXYRgG/fv1+f/7N0//L1y84L+yrgEKBomB5EBq0A3EMOj7l7f/u/t6/7v5+aMYAjIUJAaSA6nBa9Dd29f+L1qy8L93UDCGITDXgeRAakBqkQ1DcdGatav+a5uYE4VBanEa9Pjh7f87d24lCoPU0t4gqnmNaoEN8jNVoh9kENUSJCwmKM4iMINANFUyLbKBxLABH7f1EH+D5ocAAAAASUVORK5CYII=;" parent="7On1TKgl6tuQwjvSteoj-0" vertex="1">
                    <mxGeometry x="1799.41" y="470" width="10.59" height="10" as="geometry"/>
                </mxCell>
                <mxCell id="ezA5xPaDT3Ney82vRjZ4-108" value="新規登録" style="rounded=1;whiteSpace=wrap;html=1;align=center;labelBackgroundColor=none;fillColor=#d5e8d4;strokeColor=#82b366;" parent="7On1TKgl6tuQwjvSteoj-0" vertex="1">
                    <mxGeometry x="1709.41" y="735.04" width="90" height="34" as="geometry"/>
                </mxCell>
                <mxCell id="zs2UOZ9xgtd1IBT_Jsem-0" value="" style="shape=image;html=1;verticalAlign=top;verticalLabelPosition=bottom;labelBackgroundColor=#ffffff;imageAspect=0;aspect=fixed;image=https://cdn1.iconfinder.com/data/icons/ui-essentials-14/32/UI_Essentials_button_circle_round_arrow_previous-128.png" vertex="1" parent="7On1TKgl6tuQwjvSteoj-0">
                    <mxGeometry x="1100" y="353" width="40" height="40" as="geometry"/>
                </mxCell>
                <mxCell id="7On1TKgl6tuQwjvSteoj-1" value="名称未設定レイヤ" parent="Ew2Icu9jrgo6xF9pl-kO-0"/>
            </root>
        </mxGraphModel>
    </diagram>
    <diagram id="FFajQtlzlAUDvUCMnyYc" name="S08-03 ベンチマーク検索">
        <mxGraphModel dx="1552" dy="860" grid="1" gridSize="10" guides="1" tooltips="1" connect="1" arrows="1" fold="1" page="1" pageScale="1" pageWidth="827" pageHeight="1169" math="0" shadow="0">
            <root>
                <mxCell id="ERHaDuIm5LUvsVNgwkY5-0"/>
                <mxCell id="ERHaDuIm5LUvsVNgwkY5-1" style="locked=1;" parent="ERHaDuIm5LUvsVNgwkY5-0"/>
                <mxCell id="4gcOael5Gp-_grvDncsd-2" value="" style="rounded=0;whiteSpace=wrap;html=1;shadow=1;" parent="ERHaDuIm5LUvsVNgwkY5-1" vertex="1">
                    <mxGeometry x="80" y="60" width="390" height="230" as="geometry"/>
                </mxCell>
                <mxCell id="4gcOael5Gp-_grvDncsd-3" value="" style="rounded=0;whiteSpace=wrap;html=1;" parent="ERHaDuIm5LUvsVNgwkY5-1" vertex="1">
                    <mxGeometry x="110" y="230" width="140" height="30" as="geometry"/>
                </mxCell>
                <mxCell id="4gcOael5Gp-_grvDncsd-4" value="" style="rounded=0;whiteSpace=wrap;html=1;" parent="ERHaDuIm5LUvsVNgwkY5-1" vertex="1">
                    <mxGeometry x="290" y="230" width="140" height="30" as="geometry"/>
                </mxCell>
                <mxCell id="4gcOael5Gp-_grvDncsd-5" value="ベンチマーク検索" style="text;html=1;strokeColor=none;fillColor=none;align=center;verticalAlign=middle;whiteSpace=wrap;rounded=0;" parent="ERHaDuIm5LUvsVNgwkY5-1" vertex="1">
                    <mxGeometry x="220" y="70" width="110" height="30" as="geometry"/>
                </mxCell>
                <mxCell id="4gcOael5Gp-_grvDncsd-6" value="" style="rounded=0;whiteSpace=wrap;html=1;" parent="ERHaDuIm5LUvsVNgwkY5-1" vertex="1">
                    <mxGeometry x="110" y="170" width="140" height="30" as="geometry"/>
                </mxCell>
                <mxCell id="4gcOael5Gp-_grvDncsd-7" value="CPU１" style="text;html=1;strokeColor=none;fillColor=none;align=center;verticalAlign=middle;whiteSpace=wrap;rounded=0;" parent="ERHaDuIm5LUvsVNgwkY5-1" vertex="1">
                    <mxGeometry x="160" y="140" width="40" height="30" as="geometry"/>
                </mxCell>
                <mxCell id="4gcOael5Gp-_grvDncsd-8" value="" style="rounded=0;whiteSpace=wrap;html=1;" parent="ERHaDuIm5LUvsVNgwkY5-1" vertex="1">
                    <mxGeometry x="290" y="170" width="140" height="30" as="geometry"/>
                </mxCell>
                <mxCell id="4gcOael5Gp-_grvDncsd-9" value="▼" style="rounded=0;whiteSpace=wrap;html=1;" parent="ERHaDuIm5LUvsVNgwkY5-1" vertex="1">
                    <mxGeometry x="230" y="170" width="20" height="30" as="geometry"/>
                </mxCell>
                <mxCell id="4gcOael5Gp-_grvDncsd-10" value="▼" style="rounded=0;whiteSpace=wrap;html=1;" parent="ERHaDuIm5LUvsVNgwkY5-1" vertex="1">
                    <mxGeometry x="410" y="170" width="20" height="30" as="geometry"/>
                </mxCell>
                <mxCell id="4gcOael5Gp-_grvDncsd-11" value="CPU２" style="text;html=1;strokeColor=none;fillColor=none;align=center;verticalAlign=middle;whiteSpace=wrap;rounded=0;" parent="ERHaDuIm5LUvsVNgwkY5-1" vertex="1">
                    <mxGeometry x="330" y="140" width="50" height="30" as="geometry"/>
                </mxCell>
                <mxCell id="4gcOael5Gp-_grvDncsd-12" value="CPU&lt;span style=&quot;color: rgba(0 , 0 , 0 , 0) ; font-family: monospace ; font-size: 0px&quot;&gt;%3CmxGraphModel%3E%3Croot%3E%3CmxCell%20id%3D%220%22%2F%3E%3CmxCell%20id%3D%221%22%20parent%3D%220%22%2F%3E%3CmxCell%20id%3D%222%22%20value%3D%22CPU%EF%BC%91%22%20style%3D%22text%3Bhtml%3D1%3BstrokeColor%3Dnone%3BfillColor%3Dnone%3Balign%3Dcenter%3BverticalAlign%3Dmiddle%3BwhiteSpace%3Dwrap%3Brounded%3D0%3B%22%20vertex%3D%221%22%20parent%3D%221%22%3E%3CmxGeometry%20x%3D%22190%22%20y%3D%22110%22%20width%3D%2240%22%20height%3D%2230%22%20as%3D%22geometry%22%2F%3E%3C%2FmxCell%3E%3C%2Froot%3E%3C%2FmxGraphModel%3E&lt;/span&gt;" style="rounded=0;whiteSpace=wrap;html=1;" parent="ERHaDuIm5LUvsVNgwkY5-1" vertex="1">
                    <mxGeometry x="210" y="100" width="60" height="30" as="geometry"/>
                </mxCell>
                <mxCell id="4gcOael5Gp-_grvDncsd-13" value="GPU&lt;span style=&quot;color: rgba(0 , 0 , 0 , 0) ; font-family: monospace ; font-size: 0px&quot;&gt;%3CmxGraphModel%3E%3Croot%3E%3CmxCell%20id%3D%220%22%2F%3E%3CmxCell%20id%3D%221%22%20parent%3D%220%22%2F%3E%3CmxCell%20id%3D%222%22%20value%3D%22CPU%EF%BC%91%22%20style%3D%22text%3Bhtml%3D1%3BstrokeColor%3Dnone%3BfillColor%3Dnone%3Balign%3Dcenter%3BverticalAlign%3Dmiddle%3BwhiteSpace%3Dwrap%3Brounded%3D0%3B%22%20vertex%3D%221%22%20parent%3D%221%22%3E%3CmxGeometry%20x%3D%22190%22%20y%3D%22110%22%20width%3D%2240%22%20height%3D%2230%22%20as%3D%22geometry%22%2F%3E%3C%2FmxCell%3E%3C%2Froot%3E%3C%2FmxGraphModel%3E&lt;/span&gt;" style="rounded=0;whiteSpace=wrap;html=1;" parent="ERHaDuIm5LUvsVNgwkY5-1" vertex="1">
                    <mxGeometry x="270" y="100" width="60" height="30" as="geometry"/>
                </mxCell>
                <mxCell id="4gcOael5Gp-_grvDncsd-0" value="名称未設定レイヤ" parent="ERHaDuIm5LUvsVNgwkY5-0"/>
                <mxCell id="MJ9QH0lpCwyGPS788R6U-0" value="&lt;span style=&quot;color: rgba(0 , 0 , 0 , 0) ; font-family: monospace ; font-size: 0px&quot;&gt;%3CmxGraphModel%3E%3Croot%3E%3CmxCell%20id%3D%220%22%2F%3E%3CmxCell%20id%3D%221%22%20parent%3D%220%22%2F%3E%3CmxCell%20id%3D%222%22%20value%3D%22CPU%22%20style%3D%22rounded%3D1%3BarcSize%3D9%3BfillColor%3D%23ffffff%3BstrokeColor%3D%234C9AFF%3Bhtml%3D1%3BstrokeWidth%3D2%3BspacingLeft%3D30%3BfontColor%3D%23808080%3Balign%3Dleft%22%20vertex%3D%221%22%20parent%3D%221%22%3E%3CmxGeometry%20x%3D%22710%22%20y%3D%22130%22%20width%3D%22160%22%20height%3D%2233%22%20as%3D%22geometry%22%2F%3E%3C%2FmxCell%3E%3CmxCell%20id%3D%223%22%20value%3D%22%22%20style%3D%22shape%3Dstep%3BwhiteSpace%3Dwrap%3Bhtml%3D1%3Brounded%3D0%3BstrokeColor%3Dnone%3BstrokeWidth%3D2%3BfillColor%3D%230A1E43%3BgradientColor%3Dnone%3BfontFamily%3DVerdana%3BfontSize%3D14%3BfontColor%3D%23000000%3Balign%3Dleft%3Bdirection%3Dsouth%3Bsize%3D0.65%3B%22%20vertex%3D%221%22%20parent%3D%222%22%3E%3CmxGeometry%20x%3D%221%22%20y%3D%220.5%22%20width%3D%2210%22%20height%3D%227%22%20relative%3D%221%22%20as%3D%22geometry%22%3E%3CmxPoint%20x%3D%22-24%22%20y%3D%22-3%22%20as%3D%22offset%22%2F%3E%3C%2FmxGeometry%3E%3C%2FmxCell%3E%3CmxCell%20id%3D%224%22%20value%3D%22GPU%22%20style%3D%22rounded%3D1%3BarcSize%3D9%3BfillColor%3D%23ffffff%3BstrokeColor%3D%234C9AFF%3Bhtml%3D1%3BstrokeWidth%3D2%3BspacingLeft%3D30%3BfontColor%3D%23808080%3Balign%3Dleft%22%20vertex%3D%221%22%20parent%3D%221%22%3E%3CmxGeometry%20x%3D%22900%22%20y%3D%22130%22%20width%3D%22160%22%20height%3D%2233%22%20as%3D%22geometry%22%2F%3E%3C%2FmxCell%3E%3CmxCell%20id%3D%225%22%20value%3D%22%22%20style%3D%22shape%3Dstep%3BwhiteSpace%3Dwrap%3Bhtml%3D1%3Brounded%3D0%3BstrokeColor%3Dnone%3BstrokeWidth%3D2%3BfillColor%3D%230A1E43%3BgradientColor%3Dnone%3BfontFamily%3DVerdana%3BfontSize%3D14%3BfontColor%3D%23000000%3Balign%3Dleft%3Bdirection%3Dsouth%3Bsize%3D0.65%3B%22%20vertex%3D%221%22%20parent%3D%224%22%3E%3CmxGeometry%20x%3D%221%22%20y%3D%220.5%22%20width%3D%2210%22%20height%3D%227%22%20relative%3D%221%22%20as%3D%22geometry%22%3E%3CmxPoint%20x%3D%22-24%22%20y%3D%22-3%22%20as%3D%22offset%22%2F%3E%3C%2FmxGeometry%3E%3C%2FmxCell%3E%3CmxCell%20id%3D%226%22%20value%3D%22%C3%97%22%20style%3D%22text%3Bhtml%3D1%3BstrokeColor%3Dnone%3BfillColor%3Dnone%3Balign%3Dcenter%3BverticalAlign%3Dmiddle%3BwhiteSpace%3Dwrap%3Brounded%3D0%3BfontSize%3D11%3B%22%20vertex%3D%221%22%20parent%3D%221%22%3E%3CmxGeometry%20x%3D%22870%22%20y%3D%22132%22%20width%3D%2230%22%20height%3D%2230%22%20as%3D%22geometry%22%2F%3E%3C%2FmxCell%3E%3C%2Froot%3E%3C%2FmxGraphModel%3E&lt;/span&gt;" style="rounded=0;whiteSpace=wrap;html=1;fillColor=#d5e8d4;strokeColor=#82b366;" parent="4gcOael5Gp-_grvDncsd-0" vertex="1">
                    <mxGeometry x="1550" y="721.52" width="420" height="240" as="geometry"/>
                </mxCell>
                <mxCell id="MJ9QH0lpCwyGPS788R6U-1" value="ベンチマーク比較" style="text;html=1;strokeColor=none;fillColor=none;align=center;verticalAlign=middle;whiteSpace=wrap;rounded=0;fontColor=default;fontStyle=1;fontSize=20;" parent="4gcOael5Gp-_grvDncsd-0" vertex="1">
                    <mxGeometry x="1647.5" y="731.52" width="225" height="40" as="geometry"/>
                </mxCell>
                <mxCell id="ehp48eZSXxuT44E4Nm5N-5" value="&lt;span style=&quot;font-size: 12px&quot;&gt;Ryzen 9 5900X&lt;/span&gt;" style="text;html=1;strokeColor=none;fillColor=none;align=center;verticalAlign=middle;whiteSpace=wrap;rounded=0;fontSize=11;" parent="4gcOael5Gp-_grvDncsd-0" vertex="1">
                    <mxGeometry x="1640" y="861.52" width="97.5" height="30" as="geometry"/>
                </mxCell>
                <mxCell id="RRESupQG9xRiSJMqFhq_-0" value="" style="rounded=0;whiteSpace=wrap;html=1;fillColor=default;strokeColor=default;fontColor=default;" parent="4gcOael5Gp-_grvDncsd-0" vertex="1">
                    <mxGeometry x="650" y="530" width="880" height="437.44" as="geometry"/>
                </mxCell>
                <mxCell id="RRESupQG9xRiSJMqFhq_-1" value="CPUベンチマーク検索" style="text;html=1;strokeColor=none;fillColor=none;align=center;verticalAlign=middle;whiteSpace=wrap;rounded=0;fontColor=default;fontStyle=1;fontSize=20;" parent="4gcOael5Gp-_grvDncsd-0" vertex="1">
                    <mxGeometry x="963.75" y="540" width="252.5" height="50" as="geometry"/>
                </mxCell>
                <mxCell id="RRESupQG9xRiSJMqFhq_-2" value="" style="shape=table;startSize=0;container=1;collapsible=0;childLayout=tableLayout;" parent="4gcOael5Gp-_grvDncsd-0" vertex="1">
                    <mxGeometry x="700" y="660" width="790" height="272.56" as="geometry"/>
                </mxCell>
                <mxCell id="RRESupQG9xRiSJMqFhq_-3" value="" style="shape=partialRectangle;collapsible=0;dropTarget=0;pointerEvents=0;fillColor=none;top=0;left=0;bottom=0;right=0;points=[[0,0.5],[1,0.5]];portConstraint=eastwest;" parent="RRESupQG9xRiSJMqFhq_-2" vertex="1">
                    <mxGeometry width="790" height="32" as="geometry"/>
                </mxCell>
                <mxCell id="RRESupQG9xRiSJMqFhq_-4" value="CPU名称" style="shape=partialRectangle;html=1;whiteSpace=wrap;connectable=0;overflow=hidden;fillColor=#b0e3e6;top=0;left=0;bottom=0;right=0;pointerEvents=1;strokeColor=#0e8088;" parent="RRESupQG9xRiSJMqFhq_-3" vertex="1">
                    <mxGeometry width="122" height="32" as="geometry">
                        <mxRectangle width="122" height="32" as="alternateBounds"/>
                    </mxGeometry>
                </mxCell>
                <mxCell id="RRESupQG9xRiSJMqFhq_-5" value="PassMark" style="shape=partialRectangle;html=1;whiteSpace=wrap;connectable=0;overflow=hidden;fillColor=#b0e3e6;top=0;left=0;bottom=0;right=0;pointerEvents=1;strokeColor=#0e8088;" parent="RRESupQG9xRiSJMqFhq_-3" vertex="1">
                    <mxGeometry x="122" width="111" height="32" as="geometry">
                        <mxRectangle width="111" height="32" as="alternateBounds"/>
                    </mxGeometry>
                </mxCell>
                <mxCell id="RRESupQG9xRiSJMqFhq_-6" value="コア" style="shape=partialRectangle;html=1;whiteSpace=wrap;connectable=0;overflow=hidden;fillColor=#b0e3e6;top=0;left=0;bottom=0;right=0;pointerEvents=1;strokeColor=#0e8088;" parent="RRESupQG9xRiSJMqFhq_-3" vertex="1">
                    <mxGeometry x="233" width="61" height="32" as="geometry">
                        <mxRectangle width="61" height="32" as="alternateBounds"/>
                    </mxGeometry>
                </mxCell>
                <mxCell id="RRESupQG9xRiSJMqFhq_-7" value="スレッド" style="shape=partialRectangle;html=1;whiteSpace=wrap;connectable=0;overflow=hidden;fillColor=#b0e3e6;top=0;left=0;bottom=0;right=0;pointerEvents=1;strokeColor=#0e8088;" parent="RRESupQG9xRiSJMqFhq_-3" vertex="1">
                    <mxGeometry x="294" width="57" height="32" as="geometry">
                        <mxRectangle width="57" height="32" as="alternateBounds"/>
                    </mxGeometry>
                </mxCell>
                <mxCell id="RRESupQG9xRiSJMqFhq_-8" value="TDP" style="shape=partialRectangle;html=1;whiteSpace=wrap;connectable=0;overflow=hidden;fillColor=#b0e3e6;top=0;left=0;bottom=0;right=0;pointerEvents=1;strokeColor=#0e8088;" parent="RRESupQG9xRiSJMqFhq_-3" vertex="1">
                    <mxGeometry x="351" width="88" height="32" as="geometry">
                        <mxRectangle width="88" height="32" as="alternateBounds"/>
                    </mxGeometry>
                </mxCell>
                <mxCell id="RRESupQG9xRiSJMqFhq_-9" value="定格クロック" style="shape=partialRectangle;html=1;whiteSpace=wrap;connectable=0;overflow=hidden;fillColor=#b0e3e6;top=0;left=0;bottom=0;right=0;pointerEvents=1;strokeColor=#0e8088;" parent="RRESupQG9xRiSJMqFhq_-3" vertex="1">
                    <mxGeometry x="439" width="88" height="32" as="geometry">
                        <mxRectangle width="88" height="32" as="alternateBounds"/>
                    </mxGeometry>
                </mxCell>
                <mxCell id="RRESupQG9xRiSJMqFhq_-10" value="最大クロック" style="shape=partialRectangle;html=1;whiteSpace=wrap;connectable=0;overflow=hidden;fillColor=#b0e3e6;top=0;left=0;bottom=0;right=0;pointerEvents=1;strokeColor=#0e8088;" parent="RRESupQG9xRiSJMqFhq_-3" vertex="1">
                    <mxGeometry x="527" width="88" height="32" as="geometry">
                        <mxRectangle width="88" height="32" as="alternateBounds"/>
                    </mxGeometry>
                </mxCell>
                <mxCell id="RRESupQG9xRiSJMqFhq_-11" value="定価" style="shape=partialRectangle;html=1;whiteSpace=wrap;connectable=0;overflow=hidden;fillColor=#b0e3e6;top=0;left=0;bottom=0;right=0;pointerEvents=1;strokeColor=#0e8088;" parent="RRESupQG9xRiSJMqFhq_-3" vertex="1">
                    <mxGeometry x="615" width="104" height="32" as="geometry">
                        <mxRectangle width="104" height="32" as="alternateBounds"/>
                    </mxGeometry>
                </mxCell>
                <mxCell id="RRESupQG9xRiSJMqFhq_-12" value="コスパ" style="shape=partialRectangle;html=1;whiteSpace=wrap;connectable=0;overflow=hidden;fillColor=#b0e3e6;top=0;left=0;bottom=0;right=0;pointerEvents=1;strokeColor=#0e8088;" parent="RRESupQG9xRiSJMqFhq_-3" vertex="1">
                    <mxGeometry x="719" width="71" height="32" as="geometry">
                        <mxRectangle width="71" height="32" as="alternateBounds"/>
                    </mxGeometry>
                </mxCell>
                <mxCell id="RRESupQG9xRiSJMqFhq_-13" style="shape=partialRectangle;collapsible=0;dropTarget=0;pointerEvents=0;fillColor=none;top=0;left=0;bottom=0;right=0;points=[[0,0.5],[1,0.5]];portConstraint=eastwest;" parent="RRESupQG9xRiSJMqFhq_-2" vertex="1">
                    <mxGeometry y="32" width="790" height="24" as="geometry"/>
                </mxCell>
                <mxCell id="RRESupQG9xRiSJMqFhq_-14" value="&lt;span style=&quot;color: rgb(51 , 51 , 255)&quot;&gt;Ryzen 9 5950X&lt;/span&gt;" style="shape=partialRectangle;html=1;whiteSpace=wrap;connectable=0;overflow=hidden;top=0;left=0;bottom=0;right=0;pointerEvents=1;" parent="RRESupQG9xRiSJMqFhq_-13" vertex="1">
                    <mxGeometry width="122" height="24" as="geometry">
                        <mxRectangle width="122" height="24" as="alternateBounds"/>
                    </mxGeometry>
                </mxCell>
                <mxCell id="RRESupQG9xRiSJMqFhq_-15" value="&lt;span&gt;46132&lt;/span&gt;" style="shape=partialRectangle;html=1;whiteSpace=wrap;connectable=0;overflow=hidden;top=0;left=0;bottom=0;right=0;pointerEvents=1;" parent="RRESupQG9xRiSJMqFhq_-13" vertex="1">
                    <mxGeometry x="122" width="111" height="24" as="geometry">
                        <mxRectangle width="111" height="24" as="alternateBounds"/>
                    </mxGeometry>
                </mxCell>
                <mxCell id="RRESupQG9xRiSJMqFhq_-16" value="16" style="shape=partialRectangle;html=1;whiteSpace=wrap;connectable=0;overflow=hidden;top=0;left=0;bottom=0;right=0;pointerEvents=1;" parent="RRESupQG9xRiSJMqFhq_-13" vertex="1">
                    <mxGeometry x="233" width="61" height="24" as="geometry">
                        <mxRectangle width="61" height="24" as="alternateBounds"/>
                    </mxGeometry>
                </mxCell>
                <mxCell id="RRESupQG9xRiSJMqFhq_-17" value="32" style="shape=partialRectangle;html=1;whiteSpace=wrap;connectable=0;overflow=hidden;top=0;left=0;bottom=0;right=0;pointerEvents=1;" parent="RRESupQG9xRiSJMqFhq_-13" vertex="1">
                    <mxGeometry x="294" width="57" height="24" as="geometry">
                        <mxRectangle width="57" height="24" as="alternateBounds"/>
                    </mxGeometry>
                </mxCell>
                <mxCell id="RRESupQG9xRiSJMqFhq_-18" value="105W" style="shape=partialRectangle;html=1;whiteSpace=wrap;connectable=0;overflow=hidden;top=0;left=0;bottom=0;right=0;pointerEvents=1;" parent="RRESupQG9xRiSJMqFhq_-13" vertex="1">
                    <mxGeometry x="351" width="88" height="24" as="geometry">
                        <mxRectangle width="88" height="24" as="alternateBounds"/>
                    </mxGeometry>
                </mxCell>
                <mxCell id="RRESupQG9xRiSJMqFhq_-19" value="3.4GHz" style="shape=partialRectangle;html=1;whiteSpace=wrap;connectable=0;overflow=hidden;top=0;left=0;bottom=0;right=0;pointerEvents=1;" parent="RRESupQG9xRiSJMqFhq_-13" vertex="1">
                    <mxGeometry x="439" width="88" height="24" as="geometry">
                        <mxRectangle width="88" height="24" as="alternateBounds"/>
                    </mxGeometry>
                </mxCell>
                <mxCell id="RRESupQG9xRiSJMqFhq_-20" value="4.9GHz" style="shape=partialRectangle;html=1;whiteSpace=wrap;connectable=0;overflow=hidden;top=0;left=0;bottom=0;right=0;pointerEvents=1;" parent="RRESupQG9xRiSJMqFhq_-13" vertex="1">
                    <mxGeometry x="527" width="88" height="24" as="geometry">
                        <mxRectangle width="88" height="24" as="alternateBounds"/>
                    </mxGeometry>
                </mxCell>
                <mxCell id="RRESupQG9xRiSJMqFhq_-21" value="106500円" style="shape=partialRectangle;html=1;whiteSpace=wrap;connectable=0;overflow=hidden;top=0;left=0;bottom=0;right=0;pointerEvents=1;" parent="RRESupQG9xRiSJMqFhq_-13" vertex="1">
                    <mxGeometry x="615" width="104" height="24" as="geometry">
                        <mxRectangle width="104" height="24" as="alternateBounds"/>
                    </mxGeometry>
                </mxCell>
                <mxCell id="RRESupQG9xRiSJMqFhq_-22" value="0.43" style="shape=partialRectangle;html=1;whiteSpace=wrap;connectable=0;overflow=hidden;top=0;left=0;bottom=0;right=0;pointerEvents=1;" parent="RRESupQG9xRiSJMqFhq_-13" vertex="1">
                    <mxGeometry x="719" width="71" height="24" as="geometry">
                        <mxRectangle width="71" height="24" as="alternateBounds"/>
                    </mxGeometry>
                </mxCell>
                <mxCell id="RRESupQG9xRiSJMqFhq_-23" style="shape=partialRectangle;collapsible=0;dropTarget=0;pointerEvents=0;fillColor=none;top=0;left=0;bottom=0;right=0;points=[[0,0.5],[1,0.5]];portConstraint=eastwest;" parent="RRESupQG9xRiSJMqFhq_-2" vertex="1">
                    <mxGeometry y="56" width="790" height="24" as="geometry"/>
                </mxCell>
                <mxCell id="RRESupQG9xRiSJMqFhq_-24" value="&lt;span style=&quot;color: rgb(51 , 51 , 255) ; font-family: &amp;#34;helvetica&amp;#34;&quot;&gt;Ryzen 9 5900X&lt;/span&gt;" style="shape=partialRectangle;html=1;whiteSpace=wrap;connectable=0;overflow=hidden;top=0;left=0;bottom=0;right=0;pointerEvents=1;" parent="RRESupQG9xRiSJMqFhq_-23" vertex="1">
                    <mxGeometry width="122" height="24" as="geometry">
                        <mxRectangle width="122" height="24" as="alternateBounds"/>
                    </mxGeometry>
                </mxCell>
                <mxCell id="RRESupQG9xRiSJMqFhq_-25" value="39641" style="shape=partialRectangle;html=1;whiteSpace=wrap;connectable=0;overflow=hidden;top=0;left=0;bottom=0;right=0;pointerEvents=1;" parent="RRESupQG9xRiSJMqFhq_-23" vertex="1">
                    <mxGeometry x="122" width="111" height="24" as="geometry">
                        <mxRectangle width="111" height="24" as="alternateBounds"/>
                    </mxGeometry>
                </mxCell>
                <mxCell id="RRESupQG9xRiSJMqFhq_-26" value="12" style="shape=partialRectangle;html=1;whiteSpace=wrap;connectable=0;overflow=hidden;top=0;left=0;bottom=0;right=0;pointerEvents=1;" parent="RRESupQG9xRiSJMqFhq_-23" vertex="1">
                    <mxGeometry x="233" width="61" height="24" as="geometry">
                        <mxRectangle width="61" height="24" as="alternateBounds"/>
                    </mxGeometry>
                </mxCell>
                <mxCell id="RRESupQG9xRiSJMqFhq_-27" value="24" style="shape=partialRectangle;html=1;whiteSpace=wrap;connectable=0;overflow=hidden;top=0;left=0;bottom=0;right=0;pointerEvents=1;" parent="RRESupQG9xRiSJMqFhq_-23" vertex="1">
                    <mxGeometry x="294" width="57" height="24" as="geometry">
                        <mxRectangle width="57" height="24" as="alternateBounds"/>
                    </mxGeometry>
                </mxCell>
                <mxCell id="RRESupQG9xRiSJMqFhq_-28" value="105W" style="shape=partialRectangle;html=1;whiteSpace=wrap;connectable=0;overflow=hidden;top=0;left=0;bottom=0;right=0;pointerEvents=1;" parent="RRESupQG9xRiSJMqFhq_-23" vertex="1">
                    <mxGeometry x="351" width="88" height="24" as="geometry">
                        <mxRectangle width="88" height="24" as="alternateBounds"/>
                    </mxGeometry>
                </mxCell>
                <mxCell id="RRESupQG9xRiSJMqFhq_-29" value="3.7GHz" style="shape=partialRectangle;html=1;whiteSpace=wrap;connectable=0;overflow=hidden;top=0;left=0;bottom=0;right=0;pointerEvents=1;" parent="RRESupQG9xRiSJMqFhq_-23" vertex="1">
                    <mxGeometry x="439" width="88" height="24" as="geometry">
                        <mxRectangle width="88" height="24" as="alternateBounds"/>
                    </mxGeometry>
                </mxCell>
                <mxCell id="RRESupQG9xRiSJMqFhq_-30" value="3.7GHz" style="shape=partialRectangle;html=1;whiteSpace=wrap;connectable=0;overflow=hidden;top=0;left=0;bottom=0;right=0;pointerEvents=1;" parent="RRESupQG9xRiSJMqFhq_-23" vertex="1">
                    <mxGeometry x="527" width="88" height="24" as="geometry">
                        <mxRectangle width="88" height="24" as="alternateBounds"/>
                    </mxGeometry>
                </mxCell>
                <mxCell id="RRESupQG9xRiSJMqFhq_-31" style="shape=partialRectangle;html=1;whiteSpace=wrap;connectable=0;overflow=hidden;top=0;left=0;bottom=0;right=0;pointerEvents=1;" parent="RRESupQG9xRiSJMqFhq_-23" vertex="1">
                    <mxGeometry x="615" width="104" height="24" as="geometry">
                        <mxRectangle width="104" height="24" as="alternateBounds"/>
                    </mxGeometry>
                </mxCell>
                <mxCell id="RRESupQG9xRiSJMqFhq_-32" value="0.32" style="shape=partialRectangle;html=1;whiteSpace=wrap;connectable=0;overflow=hidden;top=0;left=0;bottom=0;right=0;pointerEvents=1;" parent="RRESupQG9xRiSJMqFhq_-23" vertex="1">
                    <mxGeometry x="719" width="71" height="24" as="geometry">
                        <mxRectangle width="71" height="24" as="alternateBounds"/>
                    </mxGeometry>
                </mxCell>
                <mxCell id="RRESupQG9xRiSJMqFhq_-33" style="shape=partialRectangle;collapsible=0;dropTarget=0;pointerEvents=0;fillColor=none;top=0;left=0;bottom=0;right=0;points=[[0,0.5],[1,0.5]];portConstraint=eastwest;" parent="RRESupQG9xRiSJMqFhq_-2" vertex="1">
                    <mxGeometry y="80" width="790" height="24" as="geometry"/>
                </mxCell>
                <mxCell id="RRESupQG9xRiSJMqFhq_-34" style="shape=partialRectangle;html=1;whiteSpace=wrap;connectable=0;overflow=hidden;top=0;left=0;bottom=0;right=0;pointerEvents=1;" parent="RRESupQG9xRiSJMqFhq_-33" vertex="1">
                    <mxGeometry width="122" height="24" as="geometry">
                        <mxRectangle width="122" height="24" as="alternateBounds"/>
                    </mxGeometry>
                </mxCell>
                <mxCell id="RRESupQG9xRiSJMqFhq_-35" style="shape=partialRectangle;html=1;whiteSpace=wrap;connectable=0;overflow=hidden;top=0;left=0;bottom=0;right=0;pointerEvents=1;" parent="RRESupQG9xRiSJMqFhq_-33" vertex="1">
                    <mxGeometry x="122" width="111" height="24" as="geometry">
                        <mxRectangle width="111" height="24" as="alternateBounds"/>
                    </mxGeometry>
                </mxCell>
                <mxCell id="RRESupQG9xRiSJMqFhq_-36" style="shape=partialRectangle;html=1;whiteSpace=wrap;connectable=0;overflow=hidden;top=0;left=0;bottom=0;right=0;pointerEvents=1;" parent="RRESupQG9xRiSJMqFhq_-33" vertex="1">
                    <mxGeometry x="233" width="61" height="24" as="geometry">
                        <mxRectangle width="61" height="24" as="alternateBounds"/>
                    </mxGeometry>
                </mxCell>
                <mxCell id="RRESupQG9xRiSJMqFhq_-37" style="shape=partialRectangle;html=1;whiteSpace=wrap;connectable=0;overflow=hidden;top=0;left=0;bottom=0;right=0;pointerEvents=1;" parent="RRESupQG9xRiSJMqFhq_-33" vertex="1">
                    <mxGeometry x="294" width="57" height="24" as="geometry">
                        <mxRectangle width="57" height="24" as="alternateBounds"/>
                    </mxGeometry>
                </mxCell>
                <mxCell id="RRESupQG9xRiSJMqFhq_-38" style="shape=partialRectangle;html=1;whiteSpace=wrap;connectable=0;overflow=hidden;top=0;left=0;bottom=0;right=0;pointerEvents=1;" parent="RRESupQG9xRiSJMqFhq_-33" vertex="1">
                    <mxGeometry x="351" width="88" height="24" as="geometry">
                        <mxRectangle width="88" height="24" as="alternateBounds"/>
                    </mxGeometry>
                </mxCell>
                <mxCell id="RRESupQG9xRiSJMqFhq_-39" style="shape=partialRectangle;html=1;whiteSpace=wrap;connectable=0;overflow=hidden;top=0;left=0;bottom=0;right=0;pointerEvents=1;" parent="RRESupQG9xRiSJMqFhq_-33" vertex="1">
                    <mxGeometry x="439" width="88" height="24" as="geometry">
                        <mxRectangle width="88" height="24" as="alternateBounds"/>
                    </mxGeometry>
                </mxCell>
                <mxCell id="RRESupQG9xRiSJMqFhq_-40" style="shape=partialRectangle;html=1;whiteSpace=wrap;connectable=0;overflow=hidden;top=0;left=0;bottom=0;right=0;pointerEvents=1;" parent="RRESupQG9xRiSJMqFhq_-33" vertex="1">
                    <mxGeometry x="527" width="88" height="24" as="geometry">
                        <mxRectangle width="88" height="24" as="alternateBounds"/>
                    </mxGeometry>
                </mxCell>
                <mxCell id="RRESupQG9xRiSJMqFhq_-41" style="shape=partialRectangle;html=1;whiteSpace=wrap;connectable=0;overflow=hidden;top=0;left=0;bottom=0;right=0;pointerEvents=1;" parent="RRESupQG9xRiSJMqFhq_-33" vertex="1">
                    <mxGeometry x="615" width="104" height="24" as="geometry">
                        <mxRectangle width="104" height="24" as="alternateBounds"/>
                    </mxGeometry>
                </mxCell>
                <mxCell id="RRESupQG9xRiSJMqFhq_-42" style="shape=partialRectangle;html=1;whiteSpace=wrap;connectable=0;overflow=hidden;top=0;left=0;bottom=0;right=0;pointerEvents=1;" parent="RRESupQG9xRiSJMqFhq_-33" vertex="1">
                    <mxGeometry x="719" width="71" height="24" as="geometry">
                        <mxRectangle width="71" height="24" as="alternateBounds"/>
                    </mxGeometry>
                </mxCell>
                <mxCell id="RRESupQG9xRiSJMqFhq_-43" style="shape=partialRectangle;collapsible=0;dropTarget=0;pointerEvents=0;fillColor=none;top=0;left=0;bottom=0;right=0;points=[[0,0.5],[1,0.5]];portConstraint=eastwest;" parent="RRESupQG9xRiSJMqFhq_-2" vertex="1">
                    <mxGeometry y="104" width="790" height="24" as="geometry"/>
                </mxCell>
                <mxCell id="RRESupQG9xRiSJMqFhq_-44" style="shape=partialRectangle;html=1;whiteSpace=wrap;connectable=0;overflow=hidden;top=0;left=0;bottom=0;right=0;pointerEvents=1;" parent="RRESupQG9xRiSJMqFhq_-43" vertex="1">
                    <mxGeometry width="122" height="24" as="geometry">
                        <mxRectangle width="122" height="24" as="alternateBounds"/>
                    </mxGeometry>
                </mxCell>
                <mxCell id="RRESupQG9xRiSJMqFhq_-45" style="shape=partialRectangle;html=1;whiteSpace=wrap;connectable=0;overflow=hidden;top=0;left=0;bottom=0;right=0;pointerEvents=1;" parent="RRESupQG9xRiSJMqFhq_-43" vertex="1">
                    <mxGeometry x="122" width="111" height="24" as="geometry">
                        <mxRectangle width="111" height="24" as="alternateBounds"/>
                    </mxGeometry>
                </mxCell>
                <mxCell id="RRESupQG9xRiSJMqFhq_-46" style="shape=partialRectangle;html=1;whiteSpace=wrap;connectable=0;overflow=hidden;top=0;left=0;bottom=0;right=0;pointerEvents=1;" parent="RRESupQG9xRiSJMqFhq_-43" vertex="1">
                    <mxGeometry x="233" width="61" height="24" as="geometry">
                        <mxRectangle width="61" height="24" as="alternateBounds"/>
                    </mxGeometry>
                </mxCell>
                <mxCell id="RRESupQG9xRiSJMqFhq_-47" style="shape=partialRectangle;html=1;whiteSpace=wrap;connectable=0;overflow=hidden;top=0;left=0;bottom=0;right=0;pointerEvents=1;" parent="RRESupQG9xRiSJMqFhq_-43" vertex="1">
                    <mxGeometry x="294" width="57" height="24" as="geometry">
                        <mxRectangle width="57" height="24" as="alternateBounds"/>
                    </mxGeometry>
                </mxCell>
                <mxCell id="RRESupQG9xRiSJMqFhq_-48" style="shape=partialRectangle;html=1;whiteSpace=wrap;connectable=0;overflow=hidden;top=0;left=0;bottom=0;right=0;pointerEvents=1;" parent="RRESupQG9xRiSJMqFhq_-43" vertex="1">
                    <mxGeometry x="351" width="88" height="24" as="geometry">
                        <mxRectangle width="88" height="24" as="alternateBounds"/>
                    </mxGeometry>
                </mxCell>
                <mxCell id="RRESupQG9xRiSJMqFhq_-49" style="shape=partialRectangle;html=1;whiteSpace=wrap;connectable=0;overflow=hidden;top=0;left=0;bottom=0;right=0;pointerEvents=1;" parent="RRESupQG9xRiSJMqFhq_-43" vertex="1">
                    <mxGeometry x="439" width="88" height="24" as="geometry">
                        <mxRectangle width="88" height="24" as="alternateBounds"/>
                    </mxGeometry>
                </mxCell>
                <mxCell id="RRESupQG9xRiSJMqFhq_-50" style="shape=partialRectangle;html=1;whiteSpace=wrap;connectable=0;overflow=hidden;top=0;left=0;bottom=0;right=0;pointerEvents=1;" parent="RRESupQG9xRiSJMqFhq_-43" vertex="1">
                    <mxGeometry x="527" width="88" height="24" as="geometry">
                        <mxRectangle width="88" height="24" as="alternateBounds"/>
                    </mxGeometry>
                </mxCell>
                <mxCell id="RRESupQG9xRiSJMqFhq_-51" style="shape=partialRectangle;html=1;whiteSpace=wrap;connectable=0;overflow=hidden;top=0;left=0;bottom=0;right=0;pointerEvents=1;" parent="RRESupQG9xRiSJMqFhq_-43" vertex="1">
                    <mxGeometry x="615" width="104" height="24" as="geometry">
                        <mxRectangle width="104" height="24" as="alternateBounds"/>
                    </mxGeometry>
                </mxCell>
                <mxCell id="RRESupQG9xRiSJMqFhq_-52" style="shape=partialRectangle;html=1;whiteSpace=wrap;connectable=0;overflow=hidden;top=0;left=0;bottom=0;right=0;pointerEvents=1;" parent="RRESupQG9xRiSJMqFhq_-43" vertex="1">
                    <mxGeometry x="719" width="71" height="24" as="geometry">
                        <mxRectangle width="71" height="24" as="alternateBounds"/>
                    </mxGeometry>
                </mxCell>
                <mxCell id="RRESupQG9xRiSJMqFhq_-53" style="shape=partialRectangle;collapsible=0;dropTarget=0;pointerEvents=0;fillColor=none;top=0;left=0;bottom=0;right=0;points=[[0,0.5],[1,0.5]];portConstraint=eastwest;" parent="RRESupQG9xRiSJMqFhq_-2" vertex="1">
                    <mxGeometry y="128" width="790" height="24" as="geometry"/>
                </mxCell>
                <mxCell id="RRESupQG9xRiSJMqFhq_-54" style="shape=partialRectangle;html=1;whiteSpace=wrap;connectable=0;overflow=hidden;top=0;left=0;bottom=0;right=0;pointerEvents=1;" parent="RRESupQG9xRiSJMqFhq_-53" vertex="1">
                    <mxGeometry width="122" height="24" as="geometry">
                        <mxRectangle width="122" height="24" as="alternateBounds"/>
                    </mxGeometry>
                </mxCell>
                <mxCell id="RRESupQG9xRiSJMqFhq_-55" style="shape=partialRectangle;html=1;whiteSpace=wrap;connectable=0;overflow=hidden;top=0;left=0;bottom=0;right=0;pointerEvents=1;" parent="RRESupQG9xRiSJMqFhq_-53" vertex="1">
                    <mxGeometry x="122" width="111" height="24" as="geometry">
                        <mxRectangle width="111" height="24" as="alternateBounds"/>
                    </mxGeometry>
                </mxCell>
                <mxCell id="RRESupQG9xRiSJMqFhq_-56" style="shape=partialRectangle;html=1;whiteSpace=wrap;connectable=0;overflow=hidden;top=0;left=0;bottom=0;right=0;pointerEvents=1;" parent="RRESupQG9xRiSJMqFhq_-53" vertex="1">
                    <mxGeometry x="233" width="61" height="24" as="geometry">
                        <mxRectangle width="61" height="24" as="alternateBounds"/>
                    </mxGeometry>
                </mxCell>
                <mxCell id="RRESupQG9xRiSJMqFhq_-57" style="shape=partialRectangle;html=1;whiteSpace=wrap;connectable=0;overflow=hidden;top=0;left=0;bottom=0;right=0;pointerEvents=1;" parent="RRESupQG9xRiSJMqFhq_-53" vertex="1">
                    <mxGeometry x="294" width="57" height="24" as="geometry">
                        <mxRectangle width="57" height="24" as="alternateBounds"/>
                    </mxGeometry>
                </mxCell>
                <mxCell id="RRESupQG9xRiSJMqFhq_-58" style="shape=partialRectangle;html=1;whiteSpace=wrap;connectable=0;overflow=hidden;top=0;left=0;bottom=0;right=0;pointerEvents=1;" parent="RRESupQG9xRiSJMqFhq_-53" vertex="1">
                    <mxGeometry x="351" width="88" height="24" as="geometry">
                        <mxRectangle width="88" height="24" as="alternateBounds"/>
                    </mxGeometry>
                </mxCell>
                <mxCell id="RRESupQG9xRiSJMqFhq_-59" style="shape=partialRectangle;html=1;whiteSpace=wrap;connectable=0;overflow=hidden;top=0;left=0;bottom=0;right=0;pointerEvents=1;" parent="RRESupQG9xRiSJMqFhq_-53" vertex="1">
                    <mxGeometry x="439" width="88" height="24" as="geometry">
                        <mxRectangle width="88" height="24" as="alternateBounds"/>
                    </mxGeometry>
                </mxCell>
                <mxCell id="RRESupQG9xRiSJMqFhq_-60" style="shape=partialRectangle;html=1;whiteSpace=wrap;connectable=0;overflow=hidden;top=0;left=0;bottom=0;right=0;pointerEvents=1;" parent="RRESupQG9xRiSJMqFhq_-53" vertex="1">
                    <mxGeometry x="527" width="88" height="24" as="geometry">
                        <mxRectangle width="88" height="24" as="alternateBounds"/>
                    </mxGeometry>
                </mxCell>
                <mxCell id="RRESupQG9xRiSJMqFhq_-61" style="shape=partialRectangle;html=1;whiteSpace=wrap;connectable=0;overflow=hidden;top=0;left=0;bottom=0;right=0;pointerEvents=1;" parent="RRESupQG9xRiSJMqFhq_-53" vertex="1">
                    <mxGeometry x="615" width="104" height="24" as="geometry">
                        <mxRectangle width="104" height="24" as="alternateBounds"/>
                    </mxGeometry>
                </mxCell>
                <mxCell id="RRESupQG9xRiSJMqFhq_-62" style="shape=partialRectangle;html=1;whiteSpace=wrap;connectable=0;overflow=hidden;top=0;left=0;bottom=0;right=0;pointerEvents=1;" parent="RRESupQG9xRiSJMqFhq_-53" vertex="1">
                    <mxGeometry x="719" width="71" height="24" as="geometry">
                        <mxRectangle width="71" height="24" as="alternateBounds"/>
                    </mxGeometry>
                </mxCell>
                <mxCell id="RRESupQG9xRiSJMqFhq_-63" style="shape=partialRectangle;collapsible=0;dropTarget=0;pointerEvents=0;fillColor=none;top=0;left=0;bottom=0;right=0;points=[[0,0.5],[1,0.5]];portConstraint=eastwest;" parent="RRESupQG9xRiSJMqFhq_-2" vertex="1">
                    <mxGeometry y="152" width="790" height="24" as="geometry"/>
                </mxCell>
                <mxCell id="RRESupQG9xRiSJMqFhq_-64" style="shape=partialRectangle;html=1;whiteSpace=wrap;connectable=0;overflow=hidden;top=0;left=0;bottom=0;right=0;pointerEvents=1;" parent="RRESupQG9xRiSJMqFhq_-63" vertex="1">
                    <mxGeometry width="122" height="24" as="geometry">
                        <mxRectangle width="122" height="24" as="alternateBounds"/>
                    </mxGeometry>
                </mxCell>
                <mxCell id="RRESupQG9xRiSJMqFhq_-65" style="shape=partialRectangle;html=1;whiteSpace=wrap;connectable=0;overflow=hidden;top=0;left=0;bottom=0;right=0;pointerEvents=1;" parent="RRESupQG9xRiSJMqFhq_-63" vertex="1">
                    <mxGeometry x="122" width="111" height="24" as="geometry">
                        <mxRectangle width="111" height="24" as="alternateBounds"/>
                    </mxGeometry>
                </mxCell>
                <mxCell id="RRESupQG9xRiSJMqFhq_-66" style="shape=partialRectangle;html=1;whiteSpace=wrap;connectable=0;overflow=hidden;top=0;left=0;bottom=0;right=0;pointerEvents=1;" parent="RRESupQG9xRiSJMqFhq_-63" vertex="1">
                    <mxGeometry x="233" width="61" height="24" as="geometry">
                        <mxRectangle width="61" height="24" as="alternateBounds"/>
                    </mxGeometry>
                </mxCell>
                <mxCell id="RRESupQG9xRiSJMqFhq_-67" style="shape=partialRectangle;html=1;whiteSpace=wrap;connectable=0;overflow=hidden;top=0;left=0;bottom=0;right=0;pointerEvents=1;" parent="RRESupQG9xRiSJMqFhq_-63" vertex="1">
                    <mxGeometry x="294" width="57" height="24" as="geometry">
                        <mxRectangle width="57" height="24" as="alternateBounds"/>
                    </mxGeometry>
                </mxCell>
                <mxCell id="RRESupQG9xRiSJMqFhq_-68" style="shape=partialRectangle;html=1;whiteSpace=wrap;connectable=0;overflow=hidden;top=0;left=0;bottom=0;right=0;pointerEvents=1;" parent="RRESupQG9xRiSJMqFhq_-63" vertex="1">
                    <mxGeometry x="351" width="88" height="24" as="geometry">
                        <mxRectangle width="88" height="24" as="alternateBounds"/>
                    </mxGeometry>
                </mxCell>
                <mxCell id="RRESupQG9xRiSJMqFhq_-69" style="shape=partialRectangle;html=1;whiteSpace=wrap;connectable=0;overflow=hidden;top=0;left=0;bottom=0;right=0;pointerEvents=1;" parent="RRESupQG9xRiSJMqFhq_-63" vertex="1">
                    <mxGeometry x="439" width="88" height="24" as="geometry">
                        <mxRectangle width="88" height="24" as="alternateBounds"/>
                    </mxGeometry>
                </mxCell>
                <mxCell id="RRESupQG9xRiSJMqFhq_-70" style="shape=partialRectangle;html=1;whiteSpace=wrap;connectable=0;overflow=hidden;top=0;left=0;bottom=0;right=0;pointerEvents=1;" parent="RRESupQG9xRiSJMqFhq_-63" vertex="1">
                    <mxGeometry x="527" width="88" height="24" as="geometry">
                        <mxRectangle width="88" height="24" as="alternateBounds"/>
                    </mxGeometry>
                </mxCell>
                <mxCell id="RRESupQG9xRiSJMqFhq_-71" style="shape=partialRectangle;html=1;whiteSpace=wrap;connectable=0;overflow=hidden;top=0;left=0;bottom=0;right=0;pointerEvents=1;" parent="RRESupQG9xRiSJMqFhq_-63" vertex="1">
                    <mxGeometry x="615" width="104" height="24" as="geometry">
                        <mxRectangle width="104" height="24" as="alternateBounds"/>
                    </mxGeometry>
                </mxCell>
                <mxCell id="RRESupQG9xRiSJMqFhq_-72" style="shape=partialRectangle;html=1;whiteSpace=wrap;connectable=0;overflow=hidden;top=0;left=0;bottom=0;right=0;pointerEvents=1;" parent="RRESupQG9xRiSJMqFhq_-63" vertex="1">
                    <mxGeometry x="719" width="71" height="24" as="geometry">
                        <mxRectangle width="71" height="24" as="alternateBounds"/>
                    </mxGeometry>
                </mxCell>
                <mxCell id="RRESupQG9xRiSJMqFhq_-73" style="shape=partialRectangle;collapsible=0;dropTarget=0;pointerEvents=0;fillColor=none;top=0;left=0;bottom=0;right=0;points=[[0,0.5],[1,0.5]];portConstraint=eastwest;" parent="RRESupQG9xRiSJMqFhq_-2" vertex="1">
                    <mxGeometry y="176" width="790" height="24" as="geometry"/>
                </mxCell>
                <mxCell id="RRESupQG9xRiSJMqFhq_-74" style="shape=partialRectangle;html=1;whiteSpace=wrap;connectable=0;overflow=hidden;top=0;left=0;bottom=0;right=0;pointerEvents=1;" parent="RRESupQG9xRiSJMqFhq_-73" vertex="1">
                    <mxGeometry width="122" height="24" as="geometry">
                        <mxRectangle width="122" height="24" as="alternateBounds"/>
                    </mxGeometry>
                </mxCell>
                <mxCell id="RRESupQG9xRiSJMqFhq_-75" style="shape=partialRectangle;html=1;whiteSpace=wrap;connectable=0;overflow=hidden;top=0;left=0;bottom=0;right=0;pointerEvents=1;" parent="RRESupQG9xRiSJMqFhq_-73" vertex="1">
                    <mxGeometry x="122" width="111" height="24" as="geometry">
                        <mxRectangle width="111" height="24" as="alternateBounds"/>
                    </mxGeometry>
                </mxCell>
                <mxCell id="RRESupQG9xRiSJMqFhq_-76" style="shape=partialRectangle;html=1;whiteSpace=wrap;connectable=0;overflow=hidden;top=0;left=0;bottom=0;right=0;pointerEvents=1;" parent="RRESupQG9xRiSJMqFhq_-73" vertex="1">
                    <mxGeometry x="233" width="61" height="24" as="geometry">
                        <mxRectangle width="61" height="24" as="alternateBounds"/>
                    </mxGeometry>
                </mxCell>
                <mxCell id="RRESupQG9xRiSJMqFhq_-77" style="shape=partialRectangle;html=1;whiteSpace=wrap;connectable=0;overflow=hidden;top=0;left=0;bottom=0;right=0;pointerEvents=1;" parent="RRESupQG9xRiSJMqFhq_-73" vertex="1">
                    <mxGeometry x="294" width="57" height="24" as="geometry">
                        <mxRectangle width="57" height="24" as="alternateBounds"/>
                    </mxGeometry>
                </mxCell>
                <mxCell id="RRESupQG9xRiSJMqFhq_-78" style="shape=partialRectangle;html=1;whiteSpace=wrap;connectable=0;overflow=hidden;top=0;left=0;bottom=0;right=0;pointerEvents=1;" parent="RRESupQG9xRiSJMqFhq_-73" vertex="1">
                    <mxGeometry x="351" width="88" height="24" as="geometry">
                        <mxRectangle width="88" height="24" as="alternateBounds"/>
                    </mxGeometry>
                </mxCell>
                <mxCell id="RRESupQG9xRiSJMqFhq_-79" style="shape=partialRectangle;html=1;whiteSpace=wrap;connectable=0;overflow=hidden;top=0;left=0;bottom=0;right=0;pointerEvents=1;" parent="RRESupQG9xRiSJMqFhq_-73" vertex="1">
                    <mxGeometry x="439" width="88" height="24" as="geometry">
                        <mxRectangle width="88" height="24" as="alternateBounds"/>
                    </mxGeometry>
                </mxCell>
                <mxCell id="RRESupQG9xRiSJMqFhq_-80" style="shape=partialRectangle;html=1;whiteSpace=wrap;connectable=0;overflow=hidden;top=0;left=0;bottom=0;right=0;pointerEvents=1;" parent="RRESupQG9xRiSJMqFhq_-73" vertex="1">
                    <mxGeometry x="527" width="88" height="24" as="geometry">
                        <mxRectangle width="88" height="24" as="alternateBounds"/>
                    </mxGeometry>
                </mxCell>
                <mxCell id="RRESupQG9xRiSJMqFhq_-81" style="shape=partialRectangle;html=1;whiteSpace=wrap;connectable=0;overflow=hidden;top=0;left=0;bottom=0;right=0;pointerEvents=1;" parent="RRESupQG9xRiSJMqFhq_-73" vertex="1">
                    <mxGeometry x="615" width="104" height="24" as="geometry">
                        <mxRectangle width="104" height="24" as="alternateBounds"/>
                    </mxGeometry>
                </mxCell>
                <mxCell id="RRESupQG9xRiSJMqFhq_-82" style="shape=partialRectangle;html=1;whiteSpace=wrap;connectable=0;overflow=hidden;top=0;left=0;bottom=0;right=0;pointerEvents=1;" parent="RRESupQG9xRiSJMqFhq_-73" vertex="1">
                    <mxGeometry x="719" width="71" height="24" as="geometry">
                        <mxRectangle width="71" height="24" as="alternateBounds"/>
                    </mxGeometry>
                </mxCell>
                <mxCell id="RRESupQG9xRiSJMqFhq_-83" style="shape=partialRectangle;collapsible=0;dropTarget=0;pointerEvents=0;fillColor=none;top=0;left=0;bottom=0;right=0;points=[[0,0.5],[1,0.5]];portConstraint=eastwest;" parent="RRESupQG9xRiSJMqFhq_-2" vertex="1">
                    <mxGeometry y="200" width="790" height="23" as="geometry"/>
                </mxCell>
                <mxCell id="RRESupQG9xRiSJMqFhq_-84" style="shape=partialRectangle;html=1;whiteSpace=wrap;connectable=0;overflow=hidden;top=0;left=0;bottom=0;right=0;pointerEvents=1;" parent="RRESupQG9xRiSJMqFhq_-83" vertex="1">
                    <mxGeometry width="122" height="23" as="geometry">
                        <mxRectangle width="122" height="23" as="alternateBounds"/>
                    </mxGeometry>
                </mxCell>
                <mxCell id="RRESupQG9xRiSJMqFhq_-85" style="shape=partialRectangle;html=1;whiteSpace=wrap;connectable=0;overflow=hidden;top=0;left=0;bottom=0;right=0;pointerEvents=1;" parent="RRESupQG9xRiSJMqFhq_-83" vertex="1">
                    <mxGeometry x="122" width="111" height="23" as="geometry">
                        <mxRectangle width="111" height="23" as="alternateBounds"/>
                    </mxGeometry>
                </mxCell>
                <mxCell id="RRESupQG9xRiSJMqFhq_-86" style="shape=partialRectangle;html=1;whiteSpace=wrap;connectable=0;overflow=hidden;top=0;left=0;bottom=0;right=0;pointerEvents=1;" parent="RRESupQG9xRiSJMqFhq_-83" vertex="1">
                    <mxGeometry x="233" width="61" height="23" as="geometry">
                        <mxRectangle width="61" height="23" as="alternateBounds"/>
                    </mxGeometry>
                </mxCell>
                <mxCell id="RRESupQG9xRiSJMqFhq_-87" style="shape=partialRectangle;html=1;whiteSpace=wrap;connectable=0;overflow=hidden;top=0;left=0;bottom=0;right=0;pointerEvents=1;" parent="RRESupQG9xRiSJMqFhq_-83" vertex="1">
                    <mxGeometry x="294" width="57" height="23" as="geometry">
                        <mxRectangle width="57" height="23" as="alternateBounds"/>
                    </mxGeometry>
                </mxCell>
                <mxCell id="RRESupQG9xRiSJMqFhq_-88" style="shape=partialRectangle;html=1;whiteSpace=wrap;connectable=0;overflow=hidden;top=0;left=0;bottom=0;right=0;pointerEvents=1;" parent="RRESupQG9xRiSJMqFhq_-83" vertex="1">
                    <mxGeometry x="351" width="88" height="23" as="geometry">
                        <mxRectangle width="88" height="23" as="alternateBounds"/>
                    </mxGeometry>
                </mxCell>
                <mxCell id="RRESupQG9xRiSJMqFhq_-89" style="shape=partialRectangle;html=1;whiteSpace=wrap;connectable=0;overflow=hidden;top=0;left=0;bottom=0;right=0;pointerEvents=1;" parent="RRESupQG9xRiSJMqFhq_-83" vertex="1">
                    <mxGeometry x="439" width="88" height="23" as="geometry">
                        <mxRectangle width="88" height="23" as="alternateBounds"/>
                    </mxGeometry>
                </mxCell>
                <mxCell id="RRESupQG9xRiSJMqFhq_-90" style="shape=partialRectangle;html=1;whiteSpace=wrap;connectable=0;overflow=hidden;top=0;left=0;bottom=0;right=0;pointerEvents=1;" parent="RRESupQG9xRiSJMqFhq_-83" vertex="1">
                    <mxGeometry x="527" width="88" height="23" as="geometry">
                        <mxRectangle width="88" height="23" as="alternateBounds"/>
                    </mxGeometry>
                </mxCell>
                <mxCell id="RRESupQG9xRiSJMqFhq_-91" style="shape=partialRectangle;html=1;whiteSpace=wrap;connectable=0;overflow=hidden;top=0;left=0;bottom=0;right=0;pointerEvents=1;" parent="RRESupQG9xRiSJMqFhq_-83" vertex="1">
                    <mxGeometry x="615" width="104" height="23" as="geometry">
                        <mxRectangle width="104" height="23" as="alternateBounds"/>
                    </mxGeometry>
                </mxCell>
                <mxCell id="RRESupQG9xRiSJMqFhq_-92" style="shape=partialRectangle;html=1;whiteSpace=wrap;connectable=0;overflow=hidden;top=0;left=0;bottom=0;right=0;pointerEvents=1;" parent="RRESupQG9xRiSJMqFhq_-83" vertex="1">
                    <mxGeometry x="719" width="71" height="23" as="geometry">
                        <mxRectangle width="71" height="23" as="alternateBounds"/>
                    </mxGeometry>
                </mxCell>
                <mxCell id="RRESupQG9xRiSJMqFhq_-93" style="shape=partialRectangle;collapsible=0;dropTarget=0;pointerEvents=0;fillColor=none;top=0;left=0;bottom=0;right=0;points=[[0,0.5],[1,0.5]];portConstraint=eastwest;" parent="RRESupQG9xRiSJMqFhq_-2" vertex="1">
                    <mxGeometry y="223" width="790" height="25" as="geometry"/>
                </mxCell>
                <mxCell id="RRESupQG9xRiSJMqFhq_-94" style="shape=partialRectangle;html=1;whiteSpace=wrap;connectable=0;overflow=hidden;top=0;left=0;bottom=0;right=0;pointerEvents=1;" parent="RRESupQG9xRiSJMqFhq_-93" vertex="1">
                    <mxGeometry width="122" height="25" as="geometry">
                        <mxRectangle width="122" height="25" as="alternateBounds"/>
                    </mxGeometry>
                </mxCell>
                <mxCell id="RRESupQG9xRiSJMqFhq_-95" style="shape=partialRectangle;html=1;whiteSpace=wrap;connectable=0;overflow=hidden;top=0;left=0;bottom=0;right=0;pointerEvents=1;" parent="RRESupQG9xRiSJMqFhq_-93" vertex="1">
                    <mxGeometry x="122" width="111" height="25" as="geometry">
                        <mxRectangle width="111" height="25" as="alternateBounds"/>
                    </mxGeometry>
                </mxCell>
                <mxCell id="RRESupQG9xRiSJMqFhq_-96" style="shape=partialRectangle;html=1;whiteSpace=wrap;connectable=0;overflow=hidden;top=0;left=0;bottom=0;right=0;pointerEvents=1;" parent="RRESupQG9xRiSJMqFhq_-93" vertex="1">
                    <mxGeometry x="233" width="61" height="25" as="geometry">
                        <mxRectangle width="61" height="25" as="alternateBounds"/>
                    </mxGeometry>
                </mxCell>
                <mxCell id="RRESupQG9xRiSJMqFhq_-97" style="shape=partialRectangle;html=1;whiteSpace=wrap;connectable=0;overflow=hidden;top=0;left=0;bottom=0;right=0;pointerEvents=1;" parent="RRESupQG9xRiSJMqFhq_-93" vertex="1">
                    <mxGeometry x="294" width="57" height="25" as="geometry">
                        <mxRectangle width="57" height="25" as="alternateBounds"/>
                    </mxGeometry>
                </mxCell>
                <mxCell id="RRESupQG9xRiSJMqFhq_-98" style="shape=partialRectangle;html=1;whiteSpace=wrap;connectable=0;overflow=hidden;top=0;left=0;bottom=0;right=0;pointerEvents=1;" parent="RRESupQG9xRiSJMqFhq_-93" vertex="1">
                    <mxGeometry x="351" width="88" height="25" as="geometry">
                        <mxRectangle width="88" height="25" as="alternateBounds"/>
                    </mxGeometry>
                </mxCell>
                <mxCell id="RRESupQG9xRiSJMqFhq_-99" style="shape=partialRectangle;html=1;whiteSpace=wrap;connectable=0;overflow=hidden;top=0;left=0;bottom=0;right=0;pointerEvents=1;" parent="RRESupQG9xRiSJMqFhq_-93" vertex="1">
                    <mxGeometry x="439" width="88" height="25" as="geometry">
                        <mxRectangle width="88" height="25" as="alternateBounds"/>
                    </mxGeometry>
                </mxCell>
                <mxCell id="RRESupQG9xRiSJMqFhq_-100" style="shape=partialRectangle;html=1;whiteSpace=wrap;connectable=0;overflow=hidden;top=0;left=0;bottom=0;right=0;pointerEvents=1;" parent="RRESupQG9xRiSJMqFhq_-93" vertex="1">
                    <mxGeometry x="527" width="88" height="25" as="geometry">
                        <mxRectangle width="88" height="25" as="alternateBounds"/>
                    </mxGeometry>
                </mxCell>
                <mxCell id="RRESupQG9xRiSJMqFhq_-101" style="shape=partialRectangle;html=1;whiteSpace=wrap;connectable=0;overflow=hidden;top=0;left=0;bottom=0;right=0;pointerEvents=1;" parent="RRESupQG9xRiSJMqFhq_-93" vertex="1">
                    <mxGeometry x="615" width="104" height="25" as="geometry">
                        <mxRectangle width="104" height="25" as="alternateBounds"/>
                    </mxGeometry>
                </mxCell>
                <mxCell id="RRESupQG9xRiSJMqFhq_-102" style="shape=partialRectangle;html=1;whiteSpace=wrap;connectable=0;overflow=hidden;top=0;left=0;bottom=0;right=0;pointerEvents=1;" parent="RRESupQG9xRiSJMqFhq_-93" vertex="1">
                    <mxGeometry x="719" width="71" height="25" as="geometry">
                        <mxRectangle width="71" height="25" as="alternateBounds"/>
                    </mxGeometry>
                </mxCell>
                <mxCell id="RRESupQG9xRiSJMqFhq_-103" style="shape=partialRectangle;collapsible=0;dropTarget=0;pointerEvents=0;fillColor=none;top=0;left=0;bottom=0;right=0;points=[[0,0.5],[1,0.5]];portConstraint=eastwest;" parent="RRESupQG9xRiSJMqFhq_-2" vertex="1">
                    <mxGeometry y="248" width="790" height="25" as="geometry"/>
                </mxCell>
                <mxCell id="RRESupQG9xRiSJMqFhq_-104" style="shape=partialRectangle;html=1;whiteSpace=wrap;connectable=0;overflow=hidden;top=0;left=0;bottom=0;right=0;pointerEvents=1;" parent="RRESupQG9xRiSJMqFhq_-103" vertex="1">
                    <mxGeometry width="122" height="25" as="geometry">
                        <mxRectangle width="122" height="25" as="alternateBounds"/>
                    </mxGeometry>
                </mxCell>
                <mxCell id="RRESupQG9xRiSJMqFhq_-105" style="shape=partialRectangle;html=1;whiteSpace=wrap;connectable=0;overflow=hidden;top=0;left=0;bottom=0;right=0;pointerEvents=1;" parent="RRESupQG9xRiSJMqFhq_-103" vertex="1">
                    <mxGeometry x="122" width="111" height="25" as="geometry">
                        <mxRectangle width="111" height="25" as="alternateBounds"/>
                    </mxGeometry>
                </mxCell>
                <mxCell id="RRESupQG9xRiSJMqFhq_-106" style="shape=partialRectangle;html=1;whiteSpace=wrap;connectable=0;overflow=hidden;top=0;left=0;bottom=0;right=0;pointerEvents=1;" parent="RRESupQG9xRiSJMqFhq_-103" vertex="1">
                    <mxGeometry x="233" width="61" height="25" as="geometry">
                        <mxRectangle width="61" height="25" as="alternateBounds"/>
                    </mxGeometry>
                </mxCell>
                <mxCell id="RRESupQG9xRiSJMqFhq_-107" style="shape=partialRectangle;html=1;whiteSpace=wrap;connectable=0;overflow=hidden;top=0;left=0;bottom=0;right=0;pointerEvents=1;" parent="RRESupQG9xRiSJMqFhq_-103" vertex="1">
                    <mxGeometry x="294" width="57" height="25" as="geometry">
                        <mxRectangle width="57" height="25" as="alternateBounds"/>
                    </mxGeometry>
                </mxCell>
                <mxCell id="RRESupQG9xRiSJMqFhq_-108" style="shape=partialRectangle;html=1;whiteSpace=wrap;connectable=0;overflow=hidden;top=0;left=0;bottom=0;right=0;pointerEvents=1;" parent="RRESupQG9xRiSJMqFhq_-103" vertex="1">
                    <mxGeometry x="351" width="88" height="25" as="geometry">
                        <mxRectangle width="88" height="25" as="alternateBounds"/>
                    </mxGeometry>
                </mxCell>
                <mxCell id="RRESupQG9xRiSJMqFhq_-109" style="shape=partialRectangle;html=1;whiteSpace=wrap;connectable=0;overflow=hidden;top=0;left=0;bottom=0;right=0;pointerEvents=1;" parent="RRESupQG9xRiSJMqFhq_-103" vertex="1">
                    <mxGeometry x="439" width="88" height="25" as="geometry">
                        <mxRectangle width="88" height="25" as="alternateBounds"/>
                    </mxGeometry>
                </mxCell>
                <mxCell id="RRESupQG9xRiSJMqFhq_-110" style="shape=partialRectangle;html=1;whiteSpace=wrap;connectable=0;overflow=hidden;top=0;left=0;bottom=0;right=0;pointerEvents=1;" parent="RRESupQG9xRiSJMqFhq_-103" vertex="1">
                    <mxGeometry x="527" width="88" height="25" as="geometry">
                        <mxRectangle width="88" height="25" as="alternateBounds"/>
                    </mxGeometry>
                </mxCell>
                <mxCell id="RRESupQG9xRiSJMqFhq_-111" style="shape=partialRectangle;html=1;whiteSpace=wrap;connectable=0;overflow=hidden;top=0;left=0;bottom=0;right=0;pointerEvents=1;" parent="RRESupQG9xRiSJMqFhq_-103" vertex="1">
                    <mxGeometry x="615" width="104" height="25" as="geometry">
                        <mxRectangle width="104" height="25" as="alternateBounds"/>
                    </mxGeometry>
                </mxCell>
                <mxCell id="RRESupQG9xRiSJMqFhq_-112" style="shape=partialRectangle;html=1;whiteSpace=wrap;connectable=0;overflow=hidden;top=0;left=0;bottom=0;right=0;pointerEvents=1;" parent="RRESupQG9xRiSJMqFhq_-103" vertex="1">
                    <mxGeometry x="719" width="71" height="25" as="geometry">
                        <mxRectangle width="71" height="25" as="alternateBounds"/>
                    </mxGeometry>
                </mxCell>
                <mxCell id="RRESupQG9xRiSJMqFhq_-113" value="" style="shape=image;verticalLabelPosition=bottom;labelBackgroundColor=#ffffff;verticalAlign=top;aspect=fixed;imageAspect=0;image=data:image/png,iVBORw0KGgoAAAANSUhEUgAAAIIAAAAlCAYAAACOGjGrAAAJR0lEQVR4Ae2bZagVbRDHrwFioBgfxAAFFQNEPwiKBdYXERMDRVFEsUFFxW7EQOxWFAxUsDExsQu7u7s75uU3MNd9lz1nd48Xz7nnnoV1z90npv7PzDzzrGlfvnyR1J3SQVoKBCkQgIEUEFIeUSNCCggpIKSAkAqLf8JiKI/w7ds3sev79+9/lWR+/frVppIgc9H/x48f6WOcP37//h2IF+b4+fOnDv3161egMf8KLPCGHFxB9UFf5GDs3/IZCgjv37+XCxcuyN69e+X58+cxE4fxd+/eydGjR+XEiRPy+PFj+fTpU0SBACDKefLkiaxfv15mzZolU6ZMkWnTpunfly9fVgPTL5JCaIPmnTt35ODBg8KYSH3j8f7t27dy8eJF2b17t8oZjQfT35kzZ+TevXvpwI4mf7T5aAsEBEPorVu3ZNKkSdKmTRsFBBOERSP9me/p06cyYMAAGTZsmBw7dkwAmdFxM42A9N+0aZPUrl1b8ufPL2lpaZIzZ06pWbOmAgNgfv78OSI/eBMAt23bNunatassWrQoIYBg+nvw4IHMnTtXWrZsKcePH1ferM2pD96hj0ePHsm4ceNk6dKlcvfuXXnz5k1U+Z1zeP32BYK5UmC3YcMG6dSpkzRv3lyBAFNezHoRsnf0NyAMGjRIRo4cqYJ7AYG+GBcjs/obNWqkytq3b5+cP39eTp8+LVOnTpWePXvKmDFj5ObNm+oZjJbzCRDwKNu3b5fu3bvLkiVLEgoIDx8+lPnz50vr1q3l5MmTUYGA/gACuqtWrZpUqVJF9cMcsYaLiEAAdRgC98Pq6dWrl9SoUUMqVaqkzOLGaOd2KtzvN/0NCEOGDJHRo0drePACAv0IGUeOHJEePXpIvXr15NSpUyqs/YPShg8fLk2bNpUDBw7Ix48fPXkyIOzYsUPnWrZsWSi+/eSKtd30hxEXLFgg7dq1CwWEEiVKqHesWrWqdO7cWcFE2LN8Kmi4iAgEjMAkW7Zskfbt20uhQoXUJZcqVUqZ/VdAwLC7du3SkERYYlUjpCnwxYsXsnjxYqlfv75s3LhR+NtL+GQEwqhRo6RixYoKBEIld+HChTVkkH+hCzyqLepoYI0IBBtEgvXy5Uu5f/++rriBAwdKs2bNMiQ0+HkE4wFv8fr1a70RjPcGhGfPnsnChQulYcOGmkNkNSBUqFDhf0AADHnz5pVy5cpp6CAvYhEQ4k2fXk9fIJiLwRWTLBKLccPEaIxhBvGa3Osd/YOGBhtPf7ZJbK+MHu8Q7vr16zJx4kSpW7euZtwfPnzIUh7BCYRs2bL9DxSlS5dW7z179mzVEzZEh14e0xcIGIOBxGqMb/H4XwLBAGFP+AEIeCsy7Q4dOki3bt3k3Llz+t7AYv15JmtocALBwoP7WblyZRkxYoQcOnRIPTvh1g2GTAkEjMq+G8HKly+vWfPhw4f1HW1OANjvrAwE8xTFihUTvAO1FHcRLlMBgZVOOCBPYCvLamjQoIFmygCDdi9vkFU9ggHA6SHYXSxfvlzzPvRi+so0QMCVcZMDrFq1SmsZZcuW1WISOwlyCLe7M2+QVYFgAChSpIhu/dmaUkPZvHmz7igyJRDICdg5UCuoVauW4OZWrlypFUeSIKfRvX5ntdBg3qBgwYLStm1b2blzp5ZeCAnowjyB6SpTeATCAVtIqoIlS5bU7SvlZraOCBTNE5igWQEIZnw8AeV3tvnUga5evar5E3pED1768gUCA+26ffu2FitatWqlCYe9Z7Wawv2eGI7+nB341REMtWS5gKBPnz7SokULLRwZbefT6yQOWqwC2gghYSuLjONyryKUybxcbvlNZ7TTz2ofXroxGWOpLFJQcu8aAACleHSLF4A2F3J40bd3vkB49eqVbjk4ddy6dWt6qZfDG5DG6RfbuGjCGjGeYYCAEtm2QofzhDJlyughy9mzZ+XGjRty6dIlvalyUlblTIL+Tnp4EjwH7wBfGCAgE2PJstEDc5vhyFWYjzYSVaNJO305C6CYA30bY32cT2uLFQgUjvAA+fLlkwIFCmhhDTuxeLi8Vr+Tvv2OCARQzk3ZFg+QK1cudTeWgIC8okWLasGC8wgEdq8MI+J8Ijj9gngEXBkK54StevXqKnCOHDkkd+7ckidPnvQ7e/bsQiyk1IzymR86KAPepk+frgUVTuiCAMGMA222W3ghlGtJKfIATo7Ccb+cFppc8IzOBg8eLGPHjtV+GMSpA+dvoxULEDh0Kl68uOqFcwaOsMmjWJjQCAoC+kYEAgxys+rWrFmjIWHChAnp3wHY77Vr1wpHqCjdhHIK6v5Nn6BAMI+AMVevXq20OW+A9vjx49NvDq54zwEUxmYcN4aD9yZNmujBFYYNAgTjGQ9AzR7aV65c0bkN7ACZOgY7GLwiY0w2dIZb5rsN+hEqbE7303QWFgj0p7jXu3dvmTFjhlBHQT4uwGjzuulF+jsiEGwAk/pdphwbE+1pygriEWwei9N+fBCTmd9oYJDJkyfrNwt8jIJhwwAB+pYHuJUL0Oxyy+/UGf2ihU0zWBggMIYwSD0AANgF4KLRMn16PX2B4DXob96ZkcIAISw9aGCM/fv366rp2LGjhgjCV1gghKUdtn9YIDjnB9ixGt45D7/jBgTcdr9+/TSW4n6D5hhuAbz+ZhXiRdatW6euc+jQoRqrCRtsp/i4ho9AzAhec/yrd8YD4XXmzJkaxvhiC/rW5sULbXgAtzfy6hvk3T8HAkxhKDLrFStWaPy9du2a5hi8D8K0Xx/m4Zo3b55+S8HBFHGcGMqHLYBgz549GULLjxe/djM2rh5vxZdYnKgyztr85siI9rgAwRgHzdwZLbABgay9cePGWlIlFBEuaGMlZRToTJaMeBpvGa2PILwlJRAAFxcZNZ/XUXew0IOSaU8B4c//aQAocQVCEKTG0gcjs/r5ToHTNvIRvEA8Vlos/MdjTNIBwYzNJ2sUwvAIZNZc8VBwZqGZdEDA7RMGKELx0S1gYJtFPSCzGCUefCYdEAgJlFk5nezSpYv07dtXgeB36BIP5ScSzaQDAgZnKzZnzhz9CIPSMx4BgCSS4hONl6QDArkAJ38cw3JsTa2CHIFkMdGUn0j8JCUQKB6RH/Tv319P5AACuUMiKT7ReElKIPD/L+rUqaNegYMngJCIdYNEAsN/qpyiMTVscqAAAAAASUVORK5CYII=;" parent="4gcOael5Gp-_grvDncsd-0" vertex="1">
                    <mxGeometry x="1053.95" y="937.44" width="84.6" height="24.08" as="geometry"/>
                </mxCell>
                <mxCell id="RRESupQG9xRiSJMqFhq_-114" value="&lt;span style=&quot;font-size: 19px&quot;&gt;CPU&lt;/span&gt;" style="rounded=1;whiteSpace=wrap;html=1;align=center;labelBackgroundColor=none;fillColor=#d5e8d4;strokeColor=#82b366;" parent="4gcOael5Gp-_grvDncsd-0" vertex="1">
                    <mxGeometry x="1330" y="563.0799999999999" width="60" height="24.36" as="geometry"/>
                </mxCell>
                <mxCell id="RRESupQG9xRiSJMqFhq_-115" value="&lt;span style=&quot;font-size: 19px&quot;&gt;GPU&lt;/span&gt;" style="rounded=1;whiteSpace=wrap;html=1;align=center;labelBackgroundColor=none;fillColor=#d5e8d4;strokeColor=#82b366;" parent="4gcOael5Gp-_grvDncsd-0" vertex="1">
                    <mxGeometry x="1398.82" y="563.73" width="60" height="23.71" as="geometry"/>
                </mxCell>
                <mxCell id="RRESupQG9xRiSJMqFhq_-116" value="" style="shape=image;verticalLabelPosition=bottom;labelBackgroundColor=#ffffff;verticalAlign=top;aspect=fixed;imageAspect=0;image=data:image/png,iVBORw0KGgoAAAANSUhEUgAAABIAAAARCAYAAADQWvz5AAAAyElEQVQ4EWP4//vLf2pgBmoYAjIDr0F/fnz8n11YAMYgNj5LcRp06+bl/9NnTf/vFRgExiA2SAyXYRgG/fv1+f/7N0//L1y84L+yrgEKBomB5EBq0A3EMOj7l7f/u/t6/7v5+aMYAjIUJAaSA6nBa9Dd29f+L1qy8L93UDCGITDXgeRAakBqkQ1DcdGatav+a5uYE4VBanEa9Pjh7f87d24lCoPU0t4gqnmNaoEN8jNVoh9kENUSJCwmKM4iMINANFUyLbKBxLABH7f1EH+D5ocAAAAASUVORK5CYII=;" parent="4gcOael5Gp-_grvDncsd-0" vertex="1">
                    <mxGeometry x="914.71" y="680" width="10.59" height="10" as="geometry"/>
                </mxCell>
                <mxCell id="RRESupQG9xRiSJMqFhq_-117" value="" style="shape=image;verticalLabelPosition=bottom;labelBackgroundColor=#ffffff;verticalAlign=top;aspect=fixed;imageAspect=0;image=data:image/png,iVBORw0KGgoAAAANSUhEUgAAABIAAAARCAYAAADQWvz5AAAAyElEQVQ4EWP4//vLf2pgBmoYAjIDr0F/fnz8n11YAMYgNj5LcRp06+bl/9NnTf/vFRgExiA2SAyXYRgG/fv1+f/7N0//L1y84L+yrgEKBomB5EBq0A3EMOj7l7f/u/t6/7v5+aMYAjIUJAaSA6nBa9Dd29f+L1qy8L93UDCGITDXgeRAakBqkQ1DcdGatav+a5uYE4VBanEa9Pjh7f87d24lCoPU0t4gqnmNaoEN8jNVoh9kENUSJCwmKM4iMINANFUyLbKBxLABH7f1EH+D5ocAAAAASUVORK5CYII=;" parent="4gcOael5Gp-_grvDncsd-0" vertex="1">
                    <mxGeometry x="980" y="680" width="10.59" height="10" as="geometry"/>
                </mxCell>
                <mxCell id="RRESupQG9xRiSJMqFhq_-118" value="" style="shape=image;verticalLabelPosition=bottom;labelBackgroundColor=#ffffff;verticalAlign=top;aspect=fixed;imageAspect=0;image=data:image/png,iVBORw0KGgoAAAANSUhEUgAAABIAAAARCAYAAADQWvz5AAAAyElEQVQ4EWP4//vLf2pgBmoYAjIDr0F/fnz8n11YAMYgNj5LcRp06+bl/9NnTf/vFRgExiA2SAyXYRgG/fv1+f/7N0//L1y84L+yrgEKBomB5EBq0A3EMOj7l7f/u/t6/7v5+aMYAjIUJAaSA6nBa9Dd29f+L1qy8L93UDCGITDXgeRAakBqkQ1DcdGatav+a5uYE4VBanEa9Pjh7f87d24lCoPU0t4gqnmNaoEN8jNVoh9kENUSJCwmKM4iMINANFUyLbKBxLABH7f1EH+D5ocAAAAASUVORK5CYII=;" parent="4gcOael5Gp-_grvDncsd-0" vertex="1">
                    <mxGeometry x="1030" y="680" width="10.59" height="10" as="geometry"/>
                </mxCell>
                <mxCell id="RRESupQG9xRiSJMqFhq_-119" value="" style="shape=image;verticalLabelPosition=bottom;labelBackgroundColor=#ffffff;verticalAlign=top;aspect=fixed;imageAspect=0;image=data:image/png,iVBORw0KGgoAAAANSUhEUgAAABIAAAARCAYAAADQWvz5AAAAyElEQVQ4EWP4//vLf2pgBmoYAjIDr0F/fnz8n11YAMYgNj5LcRp06+bl/9NnTf/vFRgExiA2SAyXYRgG/fv1+f/7N0//L1y84L+yrgEKBomB5EBq0A3EMOj7l7f/u/t6/7v5+aMYAjIUJAaSA6nBa9Dd29f+L1qy8L93UDCGITDXgeRAakBqkQ1DcdGatav+a5uYE4VBanEa9Pjh7f87d24lCoPU0t4gqnmNaoEN8jNVoh9kENUSJCwmKM4iMINANFUyLbKBxLABH7f1EH+D5ocAAAAASUVORK5CYII=;" parent="4gcOael5Gp-_grvDncsd-0" vertex="1">
                    <mxGeometry x="1120" y="680" width="10.59" height="10" as="geometry"/>
                </mxCell>
                <mxCell id="RRESupQG9xRiSJMqFhq_-120" value="" style="shape=image;verticalLabelPosition=bottom;labelBackgroundColor=#ffffff;verticalAlign=top;aspect=fixed;imageAspect=0;image=data:image/png,iVBORw0KGgoAAAANSUhEUgAAABIAAAARCAYAAADQWvz5AAAAyElEQVQ4EWP4//vLf2pgBmoYAjIDr0F/fnz8n11YAMYgNj5LcRp06+bl/9NnTf/vFRgExiA2SAyXYRgG/fv1+f/7N0//L1y84L+yrgEKBomB5EBq0A3EMOj7l7f/u/t6/7v5+aMYAjIUJAaSA6nBa9Dd29f+L1qy8L93UDCGITDXgeRAakBqkQ1DcdGatav+a5uYE4VBanEa9Pjh7f87d24lCoPU0t4gqnmNaoEN8jNVoh9kENUSJCwmKM4iMINANFUyLbKBxLABH7f1EH+D5ocAAAAASUVORK5CYII=;" parent="4gcOael5Gp-_grvDncsd-0" vertex="1">
                    <mxGeometry x="1209.41" y="680" width="10.59" height="10" as="geometry"/>
                </mxCell>
                <mxCell id="RRESupQG9xRiSJMqFhq_-121" value="" style="shape=image;verticalLabelPosition=bottom;labelBackgroundColor=#ffffff;verticalAlign=top;aspect=fixed;imageAspect=0;image=data:image/png,iVBORw0KGgoAAAANSUhEUgAAABIAAAARCAYAAADQWvz5AAAAyElEQVQ4EWP4//vLf2pgBmoYAjIDr0F/fnz8n11YAMYgNj5LcRp06+bl/9NnTf/vFRgExiA2SAyXYRgG/fv1+f/7N0//L1y84L+yrgEKBomB5EBq0A3EMOj7l7f/u/t6/7v5+aMYAjIUJAaSA6nBa9Dd29f+L1qy8L93UDCGITDXgeRAakBqkQ1DcdGatav+a5uYE4VBanEa9Pjh7f87d24lCoPU0t4gqnmNaoEN8jNVoh9kENUSJCwmKM4iMINANFUyLbKBxLABH7f1EH+D5ocAAAAASUVORK5CYII=;" parent="4gcOael5Gp-_grvDncsd-0" vertex="1">
                    <mxGeometry x="1290" y="680" width="10.59" height="10" as="geometry"/>
                </mxCell>
                <mxCell id="RRESupQG9xRiSJMqFhq_-122" value="" style="shape=image;verticalLabelPosition=bottom;labelBackgroundColor=#ffffff;verticalAlign=top;aspect=fixed;imageAspect=0;image=data:image/png,iVBORw0KGgoAAAANSUhEUgAAABIAAAARCAYAAADQWvz5AAAAyElEQVQ4EWP4//vLf2pgBmoYAjIDr0F/fnz8n11YAMYgNj5LcRp06+bl/9NnTf/vFRgExiA2SAyXYRgG/fv1+f/7N0//L1y84L+yrgEKBomB5EBq0A3EMOj7l7f/u/t6/7v5+aMYAjIUJAaSA6nBa9Dd29f+L1qy8L93UDCGITDXgeRAakBqkQ1DcdGatav+a5uYE4VBanEa9Pjh7f87d24lCoPU0t4gqnmNaoEN8jNVoh9kENUSJCwmKM4iMINANFUyLbKBxLABH7f1EH+D5ocAAAAASUVORK5CYII=;" parent="4gcOael5Gp-_grvDncsd-0" vertex="1">
                    <mxGeometry x="1390" y="680" width="10.59" height="10" as="geometry"/>
                </mxCell>
                <mxCell id="RRESupQG9xRiSJMqFhq_-123" value="" style="shape=image;verticalLabelPosition=bottom;labelBackgroundColor=#ffffff;verticalAlign=top;aspect=fixed;imageAspect=0;image=data:image/png,iVBORw0KGgoAAAANSUhEUgAAABIAAAARCAYAAADQWvz5AAAAyElEQVQ4EWP4//vLf2pgBmoYAjIDr0F/fnz8n11YAMYgNj5LcRp06+bl/9NnTf/vFRgExiA2SAyXYRgG/fv1+f/7N0//L1y84L+yrgEKBomB5EBq0A3EMOj7l7f/u/t6/7v5+aMYAjIUJAaSA6nBa9Dd29f+L1qy8L93UDCGITDXgeRAakBqkQ1DcdGatav+a5uYE4VBanEa9Pjh7f87d24lCoPU0t4gqnmNaoEN8jNVoh9kENUSJCwmKM4iMINANFUyLbKBxLABH7f1EH+D5ocAAAAASUVORK5CYII=;" parent="4gcOael5Gp-_grvDncsd-0" vertex="1">
                    <mxGeometry x="1470" y="680" width="10.59" height="10" as="geometry"/>
                </mxCell>
                <mxCell id="RRESupQG9xRiSJMqFhq_-124" value="" style="shape=rect;fillColor=#F6F6F6;strokeColor=none;" parent="4gcOael5Gp-_grvDncsd-0" vertex="1">
                    <mxGeometry x="700" y="587.44" width="164" height="20" as="geometry"/>
                </mxCell>
                <mxCell id="RRESupQG9xRiSJMqFhq_-125" value="" style="html=1;strokeWidth=1;shadow=0;dashed=0;shape=mxgraph.ios7ui.marginRect;rx=3;ry=3;rectMargin=5;fillColor=#E4E4E4;strokeColor=none;" parent="RRESupQG9xRiSJMqFhq_-124" vertex="1">
                    <mxGeometry width="164" height="20" as="geometry"/>
                </mxCell>
                <mxCell id="RRESupQG9xRiSJMqFhq_-126" value="Search" style="shape=mxgraph.ios7.icons.looking_glass;strokeColor=#878789;fillColor=none;fontColor=#878789;labelPosition=right;verticalLabelPosition=middle;align=left;verticalAlign=middle;fontSize=6;fontStyle=0;spacingTop=2;sketch=0;" parent="RRESupQG9xRiSJMqFhq_-124" vertex="1">
                    <mxGeometry x="0.5" y="0.5" width="6" height="6" relative="1" as="geometry">
                        <mxPoint x="-17" y="-3" as="offset"/>
                    </mxGeometry>
                </mxCell>
                <mxCell id="6LVl5Rvw5edzCCzlJgR7-0" value=":" style="text;html=1;strokeColor=none;fillColor=none;align=center;verticalAlign=middle;whiteSpace=wrap;rounded=0;fontSize=11;" parent="4gcOael5Gp-_grvDncsd-0" vertex="1">
                    <mxGeometry x="1730" y="811.52" width="30" height="30" as="geometry"/>
                </mxCell>
                <mxCell id="6LVl5Rvw5edzCCzlJgR7-1" value=":" style="text;html=1;strokeColor=none;fillColor=none;align=center;verticalAlign=middle;whiteSpace=wrap;rounded=0;fontSize=11;" parent="4gcOael5Gp-_grvDncsd-0" vertex="1">
                    <mxGeometry x="1730" y="861.52" width="30" height="30" as="geometry"/>
                </mxCell>
                <mxCell id="6LVl5Rvw5edzCCzlJgR7-2" value="46132" style="text;html=1;strokeColor=none;fillColor=none;align=center;verticalAlign=middle;whiteSpace=wrap;rounded=0;fontSize=11;" parent="4gcOael5Gp-_grvDncsd-0" vertex="1">
                    <mxGeometry x="1780" y="811.52" width="80" height="30" as="geometry"/>
                </mxCell>
                <mxCell id="6LVl5Rvw5edzCCzlJgR7-3" value="39641" style="text;html=1;strokeColor=none;fillColor=none;align=center;verticalAlign=middle;whiteSpace=wrap;rounded=0;fontSize=11;" parent="4gcOael5Gp-_grvDncsd-0" vertex="1">
                    <mxGeometry x="1780" y="861.52" width="80" height="30" as="geometry"/>
                </mxCell>
                <mxCell id="6LVl5Rvw5edzCCzlJgR7-4" value="&lt;span style=&quot;color: rgba(0 , 0 , 0 , 0) ; font-family: monospace ; font-size: 0px&quot;&gt;%3CmxGraphModel%3E%3Croot%3E%3CmxCell%20id%3D%220%22%2F%3E%3CmxCell%20id%3D%221%22%20parent%3D%220%22%2F%3E%3CmxCell%20id%3D%222%22%20value%3D%22CPU%22%20style%3D%22rounded%3D1%3BarcSize%3D9%3BfillColor%3D%23ffffff%3BstrokeColor%3D%234C9AFF%3Bhtml%3D1%3BstrokeWidth%3D2%3BspacingLeft%3D30%3BfontColor%3D%23808080%3Balign%3Dleft%22%20vertex%3D%221%22%20parent%3D%221%22%3E%3CmxGeometry%20x%3D%22710%22%20y%3D%22130%22%20width%3D%22160%22%20height%3D%2233%22%20as%3D%22geometry%22%2F%3E%3C%2FmxCell%3E%3CmxCell%20id%3D%223%22%20value%3D%22%22%20style%3D%22shape%3Dstep%3BwhiteSpace%3Dwrap%3Bhtml%3D1%3Brounded%3D0%3BstrokeColor%3Dnone%3BstrokeWidth%3D2%3BfillColor%3D%230A1E43%3BgradientColor%3Dnone%3BfontFamily%3DVerdana%3BfontSize%3D14%3BfontColor%3D%23000000%3Balign%3Dleft%3Bdirection%3Dsouth%3Bsize%3D0.65%3B%22%20vertex%3D%221%22%20parent%3D%222%22%3E%3CmxGeometry%20x%3D%221%22%20y%3D%220.5%22%20width%3D%2210%22%20height%3D%227%22%20relative%3D%221%22%20as%3D%22geometry%22%3E%3CmxPoint%20x%3D%22-24%22%20y%3D%22-3%22%20as%3D%22offset%22%2F%3E%3C%2FmxGeometry%3E%3C%2FmxCell%3E%3CmxCell%20id%3D%224%22%20value%3D%22GPU%22%20style%3D%22rounded%3D1%3BarcSize%3D9%3BfillColor%3D%23ffffff%3BstrokeColor%3D%234C9AFF%3Bhtml%3D1%3BstrokeWidth%3D2%3BspacingLeft%3D30%3BfontColor%3D%23808080%3Balign%3Dleft%22%20vertex%3D%221%22%20parent%3D%221%22%3E%3CmxGeometry%20x%3D%22900%22%20y%3D%22130%22%20width%3D%22160%22%20height%3D%2233%22%20as%3D%22geometry%22%2F%3E%3C%2FmxCell%3E%3CmxCell%20id%3D%225%22%20value%3D%22%22%20style%3D%22shape%3Dstep%3BwhiteSpace%3Dwrap%3Bhtml%3D1%3Brounded%3D0%3BstrokeColor%3Dnone%3BstrokeWidth%3D2%3BfillColor%3D%230A1E43%3BgradientColor%3Dnone%3BfontFamily%3DVerdana%3BfontSize%3D14%3BfontColor%3D%23000000%3Balign%3Dleft%3Bdirection%3Dsouth%3Bsize%3D0.65%3B%22%20vertex%3D%221%22%20parent%3D%224%22%3E%3CmxGeometry%20x%3D%221%22%20y%3D%220.5%22%20width%3D%2210%22%20height%3D%227%22%20relative%3D%221%22%20as%3D%22geometry%22%3E%3CmxPoint%20x%3D%22-24%22%20y%3D%22-3%22%20as%3D%22offset%22%2F%3E%3C%2FmxGeometry%3E%3C%2FmxCell%3E%3CmxCell%20id%3D%226%22%20value%3D%22%C3%97%22%20style%3D%22text%3Bhtml%3D1%3BstrokeColor%3Dnone%3BfillColor%3Dnone%3Balign%3Dcenter%3BverticalAlign%3Dmiddle%3BwhiteSpace%3Dwrap%3Brounded%3D0%3BfontSize%3D11%3B%22%20vertex%3D%221%22%20parent%3D%221%22%3E%3CmxGeometry%20x%3D%22870%22%20y%3D%22132%22%20width%3D%2230%22%20height%3D%2230%22%20as%3D%22geometry%22%2F%3E%3C%2FmxCell%3E%3C%2Froot%3E%3C%2FmxGraphModel%3E&lt;/span&gt;" style="rounded=0;whiteSpace=wrap;html=1;fillColor=#b1ddf0;strokeColor=#10739e;" parent="4gcOael5Gp-_grvDncsd-0" vertex="1">
                    <mxGeometry x="700" y="617.44" width="440" height="32.56" as="geometry"/>
                </mxCell>
                <mxCell id="6LVl5Rvw5edzCCzlJgR7-6" value="" style="shape=ellipse;dashed=0;strokeColor=none;shadow=1;fontSize=13;align=center;verticalAlign=top;labelPosition=center;verticalLabelPosition=bottom;html=1;aspect=fixed;" parent="4gcOael5Gp-_grvDncsd-0" vertex="1">
                    <mxGeometry x="710" y="621.58" width="24.28" height="24.28" as="geometry"/>
                </mxCell>
                <mxCell id="6LVl5Rvw5edzCCzlJgR7-7" value="" style="dashed=0;html=1;shape=mxgraph.gmdl.x;strokeColor=#737373;strokeWidth=2;shadow=0;sketch=0;" parent="6LVl5Rvw5edzCCzlJgR7-6" vertex="1">
                    <mxGeometry x="8.671428571428573" y="8.671428571428573" width="6.937142857142859" height="6.937142857142859" as="geometry"/>
                </mxCell>
                <mxCell id="6LVl5Rvw5edzCCzlJgR7-8" value="&lt;span style=&quot;&quot;&gt;Ryzen 9 5950X&lt;/span&gt;" style="text;html=1;strokeColor=none;fillColor=none;align=center;verticalAlign=middle;whiteSpace=wrap;rounded=0;fontColor=#000000;" parent="4gcOael5Gp-_grvDncsd-0" vertex="1">
                    <mxGeometry x="740" y="620" width="100" height="30" as="geometry"/>
                </mxCell>
                <mxCell id="6LVl5Rvw5edzCCzlJgR7-9" value="" style="shape=ellipse;dashed=0;strokeColor=none;shadow=1;fontSize=13;align=center;verticalAlign=top;labelPosition=center;verticalLabelPosition=bottom;html=1;aspect=fixed;" parent="4gcOael5Gp-_grvDncsd-0" vertex="1">
                    <mxGeometry x="878.22" y="621.58" width="24.28" height="24.28" as="geometry"/>
                </mxCell>
                <mxCell id="6LVl5Rvw5edzCCzlJgR7-10" value="" style="dashed=0;html=1;shape=mxgraph.gmdl.x;strokeColor=#737373;strokeWidth=2;shadow=0;sketch=0;" parent="6LVl5Rvw5edzCCzlJgR7-9" vertex="1">
                    <mxGeometry x="8.671428571428573" y="8.671428571428573" width="6.937142857142859" height="6.937142857142859" as="geometry"/>
                </mxCell>
                <mxCell id="6LVl5Rvw5edzCCzlJgR7-102" value="&lt;span&gt;Ryzen 9 5900X&lt;/span&gt;" style="text;html=1;strokeColor=none;fillColor=none;align=center;verticalAlign=middle;whiteSpace=wrap;rounded=0;fontColor=#000000;" parent="4gcOael5Gp-_grvDncsd-0" vertex="1">
                    <mxGeometry x="910" y="618.72" width="100" height="30" as="geometry"/>
                </mxCell>
                <mxCell id="6LVl5Rvw5edzCCzlJgR7-103" value="&lt;span style=&quot;&quot;&gt;Ryzen 9 5950X&lt;/span&gt;" style="text;html=1;strokeColor=none;fillColor=none;align=center;verticalAlign=middle;whiteSpace=wrap;rounded=0;fontColor=#000000;" parent="4gcOael5Gp-_grvDncsd-0" vertex="1">
                    <mxGeometry x="1637.5" y="811.52" width="100" height="30" as="geometry"/>
                </mxCell>
                <mxCell id="6LVl5Rvw5edzCCzlJgR7-104" value="&lt;span style=&quot;font-size: 19px&quot;&gt;比較&lt;/span&gt;" style="rounded=1;whiteSpace=wrap;html=1;align=center;labelBackgroundColor=none;fillColor=#d5e8d4;strokeColor=#82b366;" parent="4gcOael5Gp-_grvDncsd-0" vertex="1">
                    <mxGeometry x="1070.59" y="621.5799999999999" width="60" height="24.36" as="geometry"/>
                </mxCell>
                <mxCell id="FfTjbcg4TY3dJTyJulo8-1" value="" style="shape=image;html=1;verticalAlign=top;verticalLabelPosition=bottom;labelBackgroundColor=#ffffff;imageAspect=0;aspect=fixed;image=https://cdn1.iconfinder.com/data/icons/ui-essentials-14/32/UI_Essentials_button_circle_round_arrow_previous-128.png" vertex="1" parent="4gcOael5Gp-_grvDncsd-0">
                    <mxGeometry x="1550" y="721.52" width="40" height="40" as="geometry"/>
                </mxCell>
                <mxCell id="4gcOael5Gp-_grvDncsd-1" value="名称未設定レイヤ" parent="ERHaDuIm5LUvsVNgwkY5-0"/>
            </root>
        </mxGraphModel>
    </diagram>
</mxfile>